<svg width="120" height="120" viewBox="0 0 120 120" fill="none" xmlns="http://www.w3.org/2000/svg">
<g clip-path="url(#clip0_638_1015)">
<path d="M112.005 40.2992C110.095 30.9859 102.215 24.5383 92.4242 24.5383C91.7078 24.5383 90.7529 24.7774 89.7975 24.7774C82.395 25.7328 75.47 32.1799 74.0371 39.1054C73.7982 40.5379 74.992 42.9262 76.1863 43.6421C76.6638 43.8809 77.3803 44.12 77.8578 44.12C79.0519 44.12 80.2456 43.1646 80.9621 41.4931C81.201 41.0156 81.201 40.7766 81.4397 40.2991C81.4397 39.8212 81.6787 39.3437 81.9176 38.8663C83.828 34.5681 88.1262 31.9412 92.9018 31.9412C94.5737 31.9412 96.0061 32.4187 97.439 32.896C103.409 35.2845 106.513 41.9704 104.603 47.9406C102.932 53.4329 98.1554 56.5371 91.4695 56.5371H12.1889C11.4725 56.5371 10.5174 56.5371 9.80107 57.0145C8.84565 57.731 7.65186 59.4029 7.65186 60.5968C7.65186 62.0297 9.32318 63.2238 10.2786 63.7011C10.995 63.9402 11.4726 63.9402 11.9501 63.9402C12.4279 63.9402 12.6665 63.9402 12.6665 63.462H90.7528C92.9015 63.462 95.051 63.462 97.2005 62.9846C107.707 60.5969 113.916 50.806 112.005 40.2992ZM74.7533 75.4024H12.1887C11.4723 75.4024 10.7557 75.4024 10.0394 75.8798C9.08436 76.5962 7.89033 78.0293 7.89033 79.2232C7.89033 80.4171 9.32283 81.85 10.2783 82.3275C10.9946 82.805 11.7111 82.805 12.1887 82.805H69.4997C71.8875 82.805 74.9919 82.805 77.8577 83.0441C80.4845 83.2824 82.8724 84.7153 84.3054 86.8647C85.9767 89.0136 86.454 91.6404 85.7381 94.2672C84.5437 98.327 81.9174 100.715 78.0967 101.192H76.4249C73.0816 101.192 70.4547 99.521 68.5445 96.4167C67.8285 94.9837 66.634 93.5509 64.9625 93.5509C64.2461 93.5509 63.5297 93.7899 62.8133 94.2672C59.709 96.1775 61.3808 99.0433 62.0973 100.237C64.9626 105.491 70.6938 108.595 76.6637 108.595C78.8126 108.595 80.7231 108.356 82.6332 107.879C90.0364 105.252 94.5736 97.3715 93.1407 89.4915C91.4693 80.6556 84.7827 75.4024 74.7533 75.4024Z" fill="#4682A9" stroke="#4682A9" stroke-width="5"/>
<path d="M12.4275 45.0751H32.7252C34.3965 45.0751 42.038 45.0751 43.9483 44.8366H51.5898C60.4252 44.5976 67.5891 37.6727 67.8282 28.5983C68.0667 19.7628 61.3805 12.1214 52.3062 11.405H51.1123C44.6647 11.405 38.4561 15.4648 36.3069 20.9569C35.8292 22.1507 36.3069 24.7776 37.5008 25.733C37.9782 26.449 38.6947 26.6879 39.4112 26.6879C40.3665 26.6879 41.5604 25.9714 42.5155 24.7776C42.7545 24.5385 42.9935 24.0612 43.2318 23.8226C43.4708 23.5835 43.7094 23.1061 43.9482 22.8671C45.6195 20.4793 48.4855 19.0465 51.3507 19.0465C52.0671 19.0465 52.7836 19.0465 53.4999 19.2855C58.2761 20.7178 60.9027 24.7776 60.4251 29.5539C59.7086 34.3295 55.8879 37.6728 51.1122 37.6728H13.1435C10.9946 37.6728 7.65137 37.6728 7.65137 41.4935C7.65137 42.4485 7.8902 43.4039 8.6068 44.1204C9.56164 45.0751 10.9945 45.0751 12.4275 45.0751Z" fill="#4682A9" stroke="#4682A9" stroke-width="5"/>
</g>
<defs>
<clipPath id="clip0_638_1015">
<rect width="120" height="120" fill="white"/>
</clipPath>
</defs>
</svg>
