<svg width="120" height="120" viewBox="0 0 120 120" fill="none" xmlns="http://www.w3.org/2000/svg">
<rect width="120" height="120" rx="16" fill="#5A8FD8"/>
<path d="M103.338 43.5828C101.746 35.8217 95.1791 30.4487 87.0201 30.4487C86.423 30.4487 85.6273 30.648 84.8312 30.648C78.6624 31.4441 72.8916 36.8167 71.6975 42.588C71.4984 43.7817 72.4933 45.772 73.4885 46.3686C73.8864 46.5676 74.4835 46.7668 74.8814 46.7668C75.8765 46.7668 76.8713 45.9706 77.4684 44.5777C77.6674 44.1798 77.6674 43.9807 77.8663 43.5827C77.8663 43.1845 78.0655 42.7865 78.2646 42.3887C79.8565 38.8068 83.4384 36.6178 87.4181 36.6178C88.8113 36.6178 90.005 37.0157 91.1991 37.4135C96.1743 39.4039 98.7611 44.9755 97.1691 49.9506C95.7764 54.5275 91.7961 57.1144 86.2245 57.1144H20.1573C19.5604 57.1144 18.7645 57.1144 18.1675 57.5122C17.3713 58.1093 16.3765 59.5025 16.3765 60.4975C16.3765 61.6915 17.7692 62.6866 18.5654 63.0844C19.1624 63.2836 19.5604 63.2836 19.9583 63.2836C20.3565 63.2836 20.5554 63.2836 20.5554 62.8852H85.6272C87.4179 62.8852 89.2091 62.8852 91.0003 62.4873C99.756 60.4976 104.93 52.3385 103.338 43.5828ZM72.2943 72.8355H20.1571C19.5602 72.8355 18.963 72.8355 18.3661 73.2333C17.5702 73.8303 16.5752 75.0245 16.5752 76.0194C16.5752 77.0144 17.7689 78.2085 18.5651 78.6064C19.1621 79.0043 19.7592 79.0043 20.1571 79.0043H67.9163C69.9062 79.0043 72.4932 79.0043 74.8813 79.2035C77.0703 79.4022 79.0603 80.5962 80.2544 82.3874C81.6472 84.1781 82.0449 86.3671 81.4483 88.5562C80.453 91.9393 78.2644 93.9291 75.0805 94.3271H73.6873C70.9013 94.3271 68.7122 92.9343 67.1203 90.3474C66.5236 89.1532 65.5282 87.9592 64.1353 87.9592C63.5384 87.9592 62.9413 88.1584 62.3443 88.5562C59.7574 90.148 61.1506 92.5362 61.7477 93.5313C64.1355 97.9089 68.9114 100.496 73.8863 100.496C75.6771 100.496 77.2691 100.297 78.8609 99.8991C85.0303 97.7101 88.8112 91.1431 87.6172 84.5764C86.2243 77.2131 80.6521 72.8355 72.2943 72.8355Z" fill="white" stroke="white" stroke-width="3"/>
<path d="M20.3561 47.5626H37.2708C38.6636 47.5626 45.0315 47.5626 46.6234 47.3638H52.9913C60.3542 47.1646 66.3241 41.3939 66.5233 33.8319C66.7221 26.469 61.1503 20.1011 53.5884 19.5042H52.5935C47.2204 19.5042 42.0466 22.8873 40.2556 27.464C39.8575 28.4588 40.2556 30.648 41.2505 31.4441C41.6483 32.0408 42.2454 32.2399 42.8425 32.2399C43.6386 32.2399 44.6335 31.6428 45.4294 30.648C45.6286 30.4487 45.8277 30.0509 46.0264 29.8521C46.2255 29.6529 46.4243 29.255 46.6233 29.0559C48.0161 27.0661 50.4044 25.872 52.7921 25.872C53.3891 25.872 53.9861 25.872 54.5831 26.0712C58.5633 27.2648 60.7521 30.648 60.3541 34.6282C59.757 38.6079 56.573 41.394 52.5934 41.394H20.9527C19.162 41.394 16.376 41.394 16.376 44.5779C16.376 45.3737 16.575 46.1699 17.1722 46.7669C17.9679 47.5626 19.1619 47.5626 20.3561 47.5626Z" fill="white" stroke="white" stroke-width="3"/>
</svg>
