<svg width="120" height="120" viewBox="0 0 120 120" fill="none" xmlns="http://www.w3.org/2000/svg">
<g clip-path="url(#clip0_638_1006)">
<g clip-path="url(#clip1_638_1006)">
<path d="M95.6313 62.6814H2.75948C0.322772 62.6814 -1.6709 60.6134 -1.6709 58.0858C-1.6709 55.5582 0.322772 53.4902 2.75948 53.4902H95.6313C98.068 53.4902 100.062 55.5582 100.062 58.0858C100.062 60.6134 98.068 62.6814 95.6313 62.6814ZM96.0743 87.4976H50.1645C48.0463 87.4976 46.3156 85.7024 46.3156 83.5052V82.3132C46.3156 80.1159 48.0463 78.3208 50.1645 78.3208H96.0743C98.1926 78.3208 99.9232 80.1159 99.9232 82.3132V83.5052C99.9232 85.7024 98.1926 87.4976 96.0743 87.4976Z" fill="#85B6D2" stroke="#85B6D2" stroke-width="6"/>
<path d="M94.8143 62.6816C92.3638 62.6816 90.3839 60.628 90.3839 58.086C90.3839 55.5441 92.3638 53.4904 94.8143 53.4904C99.3139 53.4904 102.983 49.6847 102.983 45.0173C102.983 40.3499 99.3139 36.5442 94.8143 36.5442C92.3638 36.5442 90.3839 34.4906 90.3839 31.9486C90.3839 29.4067 92.3638 27.353 94.8143 27.353C104.201 27.353 111.844 35.2804 111.844 45.0173C111.844 54.7542 104.215 62.6816 94.8143 62.6816ZM94.6897 112.817C92.2392 112.817 90.2593 110.763 90.2593 108.221C90.2593 105.679 92.2392 103.625 94.6897 103.625C98.9678 103.625 102.457 100.006 102.457 95.5688C102.457 91.1312 98.9678 87.5122 94.6897 87.5122C92.2392 87.5122 90.2593 85.4585 90.2593 82.9166C90.2593 80.3746 92.2392 78.321 94.6897 78.321C103.855 78.321 111.317 86.0617 111.317 95.5688C111.317 105.076 103.855 112.817 94.6897 112.817ZM33.3705 87.4978H15.4274C12.9907 87.4978 10.9971 85.4298 10.9971 82.9022C10.9971 80.3746 12.9907 78.3066 15.4274 78.3066H33.3705C35.8072 78.3066 37.8009 80.3746 37.8009 82.9022C37.8009 85.4298 35.8072 87.4978 33.3705 87.4978Z" fill="#85B6D2" stroke="#85B6D2" stroke-width="6"/>
</g>
<g clip-path="url(#clip2_638_1006)">
<path d="M100.183 47.1296H9.82744C7.45675 47.1296 5.51709 44.7253 5.51709 41.7868C5.51709 38.8483 7.45675 36.4441 9.82744 36.4441H100.183C102.554 36.4441 104.493 38.8483 104.493 41.7868C104.493 44.7253 102.554 47.1296 100.183 47.1296ZM100.614 75.9804H55.9481C53.8872 75.9804 52.2035 73.8934 52.2035 71.3389V69.9531C52.2035 67.3986 53.8872 65.3116 55.9481 65.3116H100.614C102.675 65.3116 104.359 67.3986 104.359 69.9531V71.3389C104.359 73.8934 102.675 75.9804 100.614 75.9804Z" fill="#85B6D2" stroke="#85B6D2" stroke-width="6"/>
<path d="M99.3886 47.1295C97.0045 47.1295 95.0783 44.7419 95.0783 41.7867C95.0783 38.8315 97.0045 36.444 99.3886 36.444C103.766 36.444 107.336 32.0195 107.336 26.5933C107.336 21.1671 103.766 16.7426 99.3886 16.7426C97.0045 16.7426 95.0783 14.3551 95.0783 11.3999C95.0783 8.44467 97.0045 6.05713 99.3886 6.05713C108.521 6.05713 115.957 15.2734 115.957 26.5933C115.957 37.9132 108.535 47.1295 99.3886 47.1295ZM99.2674 105.415C96.8832 105.415 94.957 103.028 94.957 100.073C94.957 97.1175 96.8832 94.7299 99.2674 94.7299C103.43 94.7299 106.824 90.5225 106.824 85.3634C106.824 80.2044 103.43 75.997 99.2674 75.997C96.8832 75.997 94.957 73.6094 94.957 70.6542C94.957 67.699 96.8832 65.3115 99.2674 65.3115C108.184 65.3115 115.445 74.3107 115.445 85.3634C115.445 96.4162 108.184 105.415 99.2674 105.415ZM39.6095 75.9803H22.1526C19.7819 75.9803 17.8423 73.576 17.8423 70.6375C17.8423 67.699 19.7819 65.2948 22.1526 65.2948H39.6095C41.9802 65.2948 43.9199 67.699 43.9199 70.6375C43.9199 73.576 41.9802 75.9803 39.6095 75.9803Z" fill="#85B6D2" stroke="#85B6D2" stroke-width="6"/>
</g>
</g>
<defs>
<clipPath id="clip0_638_1006">
<rect width="120" height="120" fill="white"/>
</clipPath>
<clipPath id="clip1_638_1006">
<rect width="112" height="50" fill="white" transform="translate(4 70)"/>
</clipPath>
<clipPath id="clip2_638_1006">
<rect width="120" height="53" fill="white"/>
</clipPath>
</defs>
</svg>
