<svg width="120" height="120" viewBox="0 0 120 120" fill="none" xmlns="http://www.w3.org/2000/svg">
<rect width="120" height="120" rx="16" fill="#A0C4FF"/>
<g clip-path="url(#clip0_631_858)">
<path d="M84.6328 62.0234H19.125C17.4062 62.0234 16 60.6172 16 58.8984C16 57.1797 17.4062 55.7734 19.125 55.7734H84.6328C86.3516 55.7734 87.7578 57.1797 87.7578 58.8984C87.7578 60.6172 86.3516 62.0234 84.6328 62.0234ZM84.9453 78.8984H52.5625C51.0684 78.8984 49.8477 77.6777 49.8477 76.1836V75.373C49.8477 73.8789 51.0684 72.6582 52.5625 72.6582H84.9453C86.4395 72.6582 87.6602 73.8789 87.6602 75.373V76.1836C87.6602 77.6777 86.4395 78.8984 84.9453 78.8984Z" fill="white" stroke="white" stroke-width="4"/>
<path d="M84.0566 62.0234C82.3281 62.0234 80.9316 60.627 80.9316 58.8984C80.9316 57.1699 82.3281 55.7734 84.0566 55.7734C87.2305 55.7734 89.8184 53.1855 89.8184 50.0117C89.8184 46.8379 87.2305 44.25 84.0566 44.25C82.3281 44.25 80.9316 42.8535 80.9316 41.125C80.9316 39.3965 82.3281 38 84.0566 38C90.6777 38 96.0684 43.3906 96.0684 50.0117C96.0684 56.6328 90.6875 62.0234 84.0566 62.0234ZM83.9688 96.1152C82.2402 96.1152 80.8438 94.7187 80.8438 92.9902C80.8438 91.2617 82.2402 89.8652 83.9688 89.8652C86.9863 89.8652 89.4473 87.4043 89.4473 84.3867C89.4473 81.3691 86.9863 78.9082 83.9688 78.9082C82.2402 78.9082 80.8438 77.5117 80.8438 75.7832C80.8438 74.0547 82.2402 72.6582 83.9688 72.6582C90.4336 72.6582 95.6973 77.9219 95.6973 84.3867C95.6973 90.8516 90.4336 96.1152 83.9688 96.1152ZM40.7168 78.8984H28.0605C26.3418 78.8984 24.9355 77.4922 24.9355 75.7734C24.9355 74.0547 26.3418 72.6484 28.0605 72.6484H40.7168C42.4355 72.6484 43.8418 74.0547 43.8418 75.7734C43.8418 77.4922 42.4355 78.8984 40.7168 78.8984Z" fill="white" stroke="white" stroke-width="4"/>
</g>
<g clip-path="url(#clip1_631_858)">
<path d="M88.6328 51.1233H23.125C21.4062 51.1233 20 49.5356 20 47.5951C20 45.6546 21.4062 44.0669 23.125 44.0669H88.6328C90.3516 44.0669 91.7578 45.6546 91.7578 47.5951C91.7578 49.5356 90.3516 51.1233 88.6328 51.1233ZM88.9453 70.1758H56.5625C55.0684 70.1758 53.8477 68.7975 53.8477 67.1106V66.1955C53.8477 64.5086 55.0684 63.1303 56.5625 63.1303H88.9453C90.4395 63.1303 91.6602 64.5086 91.6602 66.1955V67.1106C91.6602 68.7975 90.4395 70.1758 88.9453 70.1758Z" fill="white" stroke="white" stroke-width="4"/>
<path d="M88.0566 51.1232C86.3281 51.1232 84.9316 49.5466 84.9316 47.595C84.9316 45.6435 86.3281 44.0668 88.0566 44.0668C91.2305 44.0668 93.8184 41.145 93.8184 37.5616C93.8184 33.9783 91.2305 31.0565 88.0566 31.0565C86.3281 31.0565 84.9316 29.4798 84.9316 27.5282C84.9316 25.5767 86.3281 24 88.0566 24C94.6777 24 100.068 30.0862 100.068 37.5616C100.068 45.037 94.6875 51.1232 88.0566 51.1232ZM87.9688 89.614C86.2402 89.614 84.8438 88.0373 84.8438 86.0857C84.8438 84.1342 86.2402 82.5575 87.9688 82.5575C90.9863 82.5575 93.4473 79.779 93.4473 76.3721C93.4473 72.9652 90.9863 70.1867 87.9688 70.1867C86.2402 70.1867 84.8438 68.61 84.8438 66.6585C84.8438 64.7069 86.2402 63.1302 87.9688 63.1302C94.4336 63.1302 99.6973 69.0731 99.6973 76.3721C99.6973 83.6711 94.4336 89.614 87.9688 89.614ZM44.7168 70.1757H32.0605C30.3418 70.1757 28.9355 68.588 28.9355 66.6474C28.9355 64.7069 30.3418 63.1192 32.0605 63.1192H44.7168C46.4355 63.1192 47.8418 64.7069 47.8418 66.6474C47.8418 68.588 46.4355 70.1757 44.7168 70.1757Z" fill="white" stroke="white" stroke-width="4"/>
</g>
<defs>
<clipPath id="clip0_631_858">
<rect width="79" height="34" fill="white" transform="translate(20 67)"/>
</clipPath>
<clipPath id="clip1_631_858">
<rect width="87" height="35" fill="white" transform="translate(16 20)"/>
</clipPath>
</defs>
</svg>
