<svg width="120" height="120" viewBox="0 0 120 120" fill="none" xmlns="http://www.w3.org/2000/svg">
<g clip-path="url(#clip0_638_1019)">
<g clip-path="url(#clip1_638_1019)">
<path d="M5.52941 48C4.06292 48 2.65649 47.3679 1.61953 46.2426C0.582562 45.1174 0 43.5913 0 42C0 40.4087 0.582562 38.8826 1.61953 37.7574C2.65649 36.6321 4.06292 36 5.52941 36H44.2353V48H5.52941ZM55.2941 66C53.8276 66 52.4212 65.3679 51.3842 64.2426C50.3473 63.1174 49.7647 61.5913 49.7647 60C49.7647 58.4087 50.3473 56.8826 51.3842 55.7574C52.4212 54.6321 53.8276 54 55.2941 54H94V66H55.2941ZM5.52941 66C4.06292 66 2.65649 65.3679 1.61953 64.2426C0.582562 63.1174 0 61.5913 0 60C0 58.4087 0.582562 56.8826 1.61953 55.7574C2.65649 54.6321 4.06292 54 5.52941 54H38.7059C40.1724 54 41.5788 54.6321 42.6158 55.7574C43.6527 56.8826 44.2353 58.4087 44.2353 60C44.2353 61.5913 43.6527 63.1174 42.6158 64.2426C41.5788 65.3679 40.1724 66 38.7059 66H5.52941ZM5.52941 84C4.06292 84 2.65649 83.3679 1.61953 82.2426C0.582562 81.1174 0 79.5913 0 78C0 76.4087 0.582562 74.8826 1.61953 73.7574C2.65649 72.6321 4.06292 72 5.52941 72H82.9412V84H5.52941ZM5.52941 102C4.06292 102 2.65649 101.368 1.61953 100.243C0.582562 99.1174 0 97.5913 0 96C0 94.4087 0.582562 92.8826 1.61953 91.7574C2.65649 90.6321 4.06292 90 5.52941 90H11.0588C12.5253 90 13.9317 90.6321 14.9687 91.7574C16.0057 92.8826 16.5882 94.4087 16.5882 96C16.5882 97.5913 16.0057 99.1174 14.9687 100.243C13.9317 101.368 12.5253 102 11.0588 102H5.52941Z" fill="#1F4E5F"/>
<path d="M48.0659 12C45.1234 12 42.467 13.158 40.454 15.048C38.9682 16.4346 37.8481 18.2282 37.209 20.244C36.975 20.9898 36.6086 21.678 36.1308 22.2693C35.653 22.8606 35.0731 23.3435 34.4242 23.6903C33.1138 24.3908 31.6019 24.4946 30.2213 23.979C28.8407 23.4635 27.7043 22.3707 27.0622 20.9411C26.4201 19.5115 26.3249 17.8622 26.7976 16.356C28.0725 12.3207 30.3109 8.7293 33.282 5.95204C37.3956 2.10094 42.6398 -0.0111552 48.0604 4.43115e-05C60.3254 4.43115e-05 70.5003 10.602 70.5003 24C70.5003 37.398 60.3254 48 48.0659 48H42.566V36H48.0659C54.5174 36 59.5004 30.48 59.5004 24C59.5004 17.52 54.5174 12 48.0659 12ZM97.5656 30C94.6232 30 91.9667 31.158 89.9537 33.048C88.4677 34.4344 87.3476 36.2281 86.7087 38.244C86.4747 38.9898 86.1083 39.678 85.6305 40.2693C85.1527 40.8606 84.5728 41.3435 83.9239 41.6903C83.2751 42.0371 82.5699 42.2411 81.8488 42.2907C81.1276 42.3402 80.4046 42.2343 79.721 41.979C79.0374 41.7237 78.4065 41.3241 77.8645 40.8028C77.3225 40.2816 76.8799 39.6489 76.5619 38.9411C76.244 38.2332 76.057 37.464 76.0116 36.6773C75.9662 35.8906 76.0633 35.1018 76.2973 34.356C77.5722 30.3207 79.8106 26.7293 82.7817 23.952C86.8953 20.1009 92.1395 17.9888 97.5601 18C109.825 18 120 28.602 120 42C120 55.398 109.825 66 97.5656 66H92.0657V54H97.5656C104.017 54 109 48.48 109 42C109 35.52 104.017 30 97.5656 30ZM86.5657 108C83.7753 108.013 81.0736 106.932 78.9537 104.952C77.4676 103.566 76.3474 101.772 75.7088 99.756C75.2362 98.2499 74.2344 97.0102 72.924 96.3097C71.6135 95.6093 70.1017 95.5054 68.7211 96.021C67.3404 96.5366 66.2041 97.6294 65.562 99.059C64.9199 100.489 64.8247 102.138 65.2973 103.644C66.5723 107.679 68.8107 111.271 71.7818 114.048C75.7418 117.762 80.9227 120 86.5657 120C98.8251 120 109 109.398 109 96C109 82.602 98.8251 72 86.5657 72H81.0657V84H86.5657C93.0172 84 98.0001 89.52 98.0001 96C98.0001 102.48 93.0172 108 86.5657 108ZM39.8875 102C37.66 102 35.6525 101.124 34.14 99.702C33.0241 98.6618 32.183 97.3154 31.7035 95.802C31.4692 95.0566 31.1025 94.3689 30.6245 93.7781C30.1465 93.1873 29.5665 92.705 28.9176 92.3587C28.2687 92.0125 27.5637 91.809 26.8428 91.76C26.1218 91.711 25.3991 91.8173 24.7158 92.073C24.0326 92.3287 23.4021 92.7287 22.8606 93.2502C22.319 93.7716 21.8769 94.4044 21.5595 95.1122C21.2421 95.8201 21.0556 96.5892 21.0107 97.3757C20.9657 98.1622 21.0632 98.9506 21.2976 99.696C22.4124 103.226 24.3698 106.368 26.9681 108.798C30.433 112.044 34.9595 114 39.893 114C50.5794 114 59.5004 104.742 59.5004 93C59.5004 81.258 50.5849 72 39.8875 72H34.3875V84H39.8875C44.7825 84 48.5004 88.176 48.5004 93C48.5004 97.824 44.7825 102 39.8875 102Z" fill="#1F4E5F"/>
</g>
</g>
<defs>
<clipPath id="clip0_638_1019">
<rect width="120" height="120" fill="white"/>
</clipPath>
<clipPath id="clip1_638_1019">
<rect width="120" height="120" fill="white"/>
</clipPath>
</defs>
</svg>
