<svg width="120" height="120" viewBox="0 0 120 120" fill="none" xmlns="http://www.w3.org/2000/svg">
<g clip-path="url(#clip0_631_836)">
<rect width="120" height="120" rx="16" fill="#2B5C99"/>
<path d="M13.7647 50C12.501 50 11.2891 49.4732 10.3956 48.5355C9.50199 47.5979 9 46.3261 9 45C9 43.6739 9.50199 42.4021 10.3956 41.4645C11.2891 40.5268 12.501 40 13.7647 40H47.1176V50H13.7647ZM56.6471 65C55.3834 65 54.1715 64.4732 53.2779 63.5355C52.3844 62.5978 51.8824 61.3261 51.8824 60C51.8824 58.6739 52.3844 57.4021 53.2779 56.4645C54.1715 55.5268 55.3834 55 56.6471 55H90V65H56.6471ZM13.7647 65C12.501 65 11.2891 64.4732 10.3956 63.5355C9.50199 62.5978 9 61.3261 9 60C9 58.6739 9.50199 57.4021 10.3956 56.4645C11.2891 55.5268 12.501 55 13.7647 55H42.3529C43.6166 55 44.8285 55.5268 45.7221 56.4645C46.6157 57.4021 47.1176 58.6739 47.1176 60C47.1176 61.3261 46.6157 62.5978 45.7221 63.5355C44.8285 64.4732 43.6166 65 42.3529 65H13.7647ZM13.7647 80C12.501 80 11.2891 79.4732 10.3956 78.5355C9.50199 77.5978 9 76.3261 9 75C9 73.6739 9.50199 72.4022 10.3956 71.4645C11.2891 70.5268 12.501 70 13.7647 70H80.4706V80H13.7647ZM13.7647 95C12.501 95 11.2891 94.4732 10.3956 93.5355C9.50199 92.5978 9 91.3261 9 90C9 88.6739 9.50199 87.4022 10.3956 86.4645C11.2891 85.5268 12.501 85 13.7647 85H18.5294C19.7931 85 21.005 85.5268 21.8986 86.4645C22.7921 87.4022 23.2941 88.6739 23.2941 90C23.2941 91.3261 22.7921 92.5978 21.8986 93.5355C21.005 94.4732 19.7931 95 18.5294 95H13.7647Z" fill="white"/>
<path d="M50.5118 20C47.9557 20 45.6481 20.965 43.8994 22.54C42.6088 23.6955 41.6357 25.1902 41.0805 26.87C40.8773 27.4915 40.559 28.065 40.1439 28.5578C39.7289 29.0505 39.2251 29.4529 38.6614 29.7419C37.5231 30.3256 36.2098 30.4122 35.0104 29.9825C33.8111 29.5529 32.8239 28.6422 32.2662 27.4509C31.7084 26.2596 31.6257 24.8852 32.0363 23.63C33.1438 20.2672 35.0883 17.2744 37.6692 14.96C41.2426 11.7508 45.7982 9.9907 50.507 10C61.1614 10 70.0003 18.835 70.0003 30C70.0003 41.165 61.1614 50 50.5118 50H45.7341V40H50.5118C56.1161 40 60.4448 35.4 60.4448 30C60.4448 24.6 56.1161 20 50.5118 20ZM93.5116 35C90.9555 35 88.6478 35.965 86.8992 37.54C85.6083 38.6954 84.6353 40.1901 84.0803 41.87C83.877 42.4915 83.5587 43.065 83.1437 43.5578C82.7286 44.0505 82.2249 44.4529 81.6612 44.7419C81.0975 45.0309 80.485 45.2009 79.8585 45.2422C79.2321 45.2835 78.604 45.1953 78.0102 44.9825C77.4163 44.7698 76.8683 44.4367 76.3974 44.0023C75.9266 43.568 75.5421 43.0408 75.2659 42.4509C74.9897 41.861 74.8273 41.22 74.7878 40.5644C74.7484 39.9088 74.8327 39.2515 75.036 38.63C76.1436 35.2672 78.088 32.2744 80.669 29.96C84.2424 26.7508 88.7979 24.9907 93.5068 25C104.161 25 113 33.835 113 45C113 56.165 104.161 65 93.5116 65H88.7338V55H93.5116C99.1159 55 103.445 50.4 103.445 45C103.445 39.6 99.1159 35 93.5116 35ZM83.9561 100C81.5321 100.011 79.1851 99.1096 77.3437 97.46C76.0527 96.3048 75.0796 94.8101 74.5248 93.13C74.1142 91.8749 73.2441 90.8418 72.1057 90.2581C70.9673 89.6744 69.654 89.5879 68.4547 90.0175C67.2553 90.4472 66.2682 91.3578 65.7104 92.5491C65.1527 93.7405 65.07 95.1149 65.4805 96.37C66.5881 99.7328 68.5325 102.726 71.1135 105.04C74.5535 108.135 79.0541 110 83.9561 110C94.6057 110 103.445 101.165 103.445 90C103.445 78.835 94.6057 70 83.9561 70H79.1783V80H83.9561C89.5604 80 93.889 84.6 93.889 90C93.889 95.4 89.5604 100 83.9561 100ZM43.4073 95C41.4723 95 39.7284 94.27 38.4146 93.085C37.4452 92.2182 36.7145 91.0962 36.298 89.835C36.0944 89.2139 35.7759 88.6407 35.3607 88.1484C34.9454 87.6561 34.4416 87.2542 33.8779 86.9656C33.3143 86.6771 32.7018 86.5075 32.0755 86.4667C31.4493 86.4258 30.8214 86.5144 30.2279 86.7275C29.6343 86.9406 29.0867 87.2739 28.6163 87.7085C28.1458 88.143 27.7618 88.6703 27.486 89.2602C27.2103 89.8501 27.0483 90.491 27.0093 91.1464C26.9702 91.8018 27.0549 92.4589 27.2585 93.08C28.227 96.0216 29.9273 98.6399 32.1844 100.665C35.1944 103.37 39.1264 105 43.4121 105C52.6953 105 60.4448 97.285 60.4448 87.5C60.4448 77.715 52.7 70 43.4073 70H38.6296V80H43.4073C47.6595 80 50.8893 83.48 50.8893 87.5C50.8893 91.52 47.6595 95 43.4073 95Z" fill="white"/>
</g>
<defs>
<clipPath id="clip0_631_836">
<rect width="120" height="120" rx="16" fill="white"/>
</clipPath>
</defs>
</svg>
