<svg width="120" height="120" viewBox="0 0 120 120" fill="none" xmlns="http://www.w3.org/2000/svg">
<g clip-path="url(#clip0_638_1013)">
<path d="M47.6367 117.652C46.0971 115.646 46.0971 114.141 47.4827 110.796C49.0224 106.95 49.9462 106.616 57.0285 107.118C66.1124 107.619 69.6536 111.298 66.7283 116.482C64.4188 120.495 50.562 121.331 47.6367 117.652ZM49.4843 100.763C45.3272 97.7536 45.1733 94.7437 48.8684 91.2322C51.1779 88.8912 55.027 88.3896 67.0362 88.3896C77.0439 88.3896 83.0485 89.0584 84.2802 90.3961C87.0516 93.406 86.4357 99.7602 83.2025 101.767C78.2756 104.609 53.4873 103.941 49.4843 100.763ZM46.0971 82.7043C45.1733 81.3666 44.5574 78.5239 44.8653 76.3501L45.3272 72.5042H102.294L102.756 76.3501C103.834 84.3764 101.524 85.0453 73.8107 85.0453C53.1794 85.0453 47.6367 84.5436 46.0971 82.7043ZM26.0817 63.3074C24.85 60.9664 24.85 58.9598 26.0817 56.6188C27.7753 53.2745 29.007 53.2745 72.5789 53.609C113.226 54.1106 117.537 54.445 119.076 57.1205C120.308 59.127 120.308 60.7992 119.076 62.973C117.537 65.4812 113.226 65.8156 72.5789 66.3173C29.007 66.6517 27.7753 66.6517 26.0817 63.3074ZM7.91386 46.2515C5.45043 43.5761 5.60439 39.0613 8.22179 36.7203C9.60747 35.3826 22.8484 34.8809 53.0255 35.2154C91.8245 35.717 95.9815 36.0514 97.5212 38.7269C98.7529 40.7334 98.7529 42.4056 97.5212 44.5794C95.9815 47.0876 91.8245 47.422 52.8715 47.9237C20.6929 48.2581 9.29954 47.7565 7.91386 46.2515ZM21.1548 29.6973C17.4597 27.5235 17.6136 20.3333 21.3088 18.1595C24.542 16.3201 108.607 15.6513 112.918 17.4906C117.537 19.33 119.076 24.6809 115.997 28.3596C113.533 31.3694 110.762 31.5366 68.5759 31.5366C41.0162 31.5366 22.6945 30.7006 21.1548 29.6973ZM1.75528 11.1365C-0.708151 8.46105 -0.554187 3.94626 2.06321 1.60526C3.44889 0.267544 20.0771 -0.2341 59.9539 0.100329C111.224 0.601972 115.997 0.769188 117.537 3.44462C118.768 5.61841 118.768 7.29055 117.537 9.29713C115.997 12.1398 111.224 12.307 59.7999 12.8086C17.4597 13.1431 3.14096 12.6414 1.75528 11.1365Z" fill="#0B2C3A"/>
</g>
<defs>
<clipPath id="clip0_638_1013">
<rect width="120" height="120" fill="white"/>
</clipPath>
</defs>
</svg>
