<svg width="120" height="120" viewBox="0 0 120 120" fill="none" xmlns="http://www.w3.org/2000/svg">
<rect width="120" height="120" rx="16" fill="#1A3A5E"/>
<path d="M49.3003 106.102C48.0301 104.48 48.0301 103.264 49.1733 100.56C50.4435 97.4516 51.2056 97.1812 57.0485 97.5867C64.5428 97.9922 67.4642 100.966 65.0508 105.156C63.1455 108.4 51.7137 109.076 49.3003 106.102ZM50.8245 92.4504C47.395 90.0175 47.2679 87.5845 50.3164 84.746C52.2218 82.8537 55.3973 82.4482 65.3049 82.4482C73.5612 82.4482 78.515 82.9889 79.5312 84.0702C81.8176 86.5032 81.3095 91.6395 78.642 93.2614C74.5774 95.5592 54.1271 95.0186 50.8245 92.4504ZM48.0301 77.8526C47.2679 76.7713 46.7599 74.4735 47.0139 72.7163L47.395 69.6076H94.3926L94.7737 72.7163C95.6628 79.2043 93.7575 79.7449 70.8938 79.7449C53.873 79.7449 49.3003 79.3394 48.0301 77.8526ZM31.5174 62.1735C30.5012 60.2812 30.5012 58.6592 31.5174 56.7669C32.9146 54.0636 33.9308 54.0636 69.8776 54.3339C103.411 54.7394 106.968 55.0097 108.238 57.1724C109.254 58.7944 109.254 60.146 108.238 61.9031C106.968 63.9306 103.411 64.201 69.8776 64.6064C33.9308 64.8768 32.9146 64.8768 31.5174 62.1735ZM16.5289 48.3866C14.4966 46.224 14.6236 42.5745 16.783 40.6822C17.9262 39.6009 28.8499 39.1954 53.746 39.4658C85.7552 39.8712 89.1848 40.1416 90.455 42.3042C91.4711 43.9262 91.4711 45.2779 90.455 47.035C89.1848 49.0625 85.7552 49.3328 53.619 49.7383C27.0717 50.0086 17.6721 49.6031 16.5289 48.3866ZM27.4527 35.0053C24.4042 33.2482 24.5312 27.4361 27.5797 25.6789C30.2472 24.1921 99.6005 23.6514 103.157 25.1383C106.968 26.6251 108.238 30.9504 105.697 33.924C103.665 36.357 101.379 36.4921 66.5751 36.4921C43.8384 36.4921 28.7229 35.8163 27.4527 35.0053ZM11.4481 20.002C9.41578 17.8394 9.5428 14.1899 11.7021 12.2976C12.8453 11.2163 26.5636 10.8108 59.4619 11.0811C101.76 11.4866 105.697 11.6218 106.968 13.7844C107.984 15.5415 107.984 16.8932 106.968 18.5152C105.697 20.813 101.76 20.9481 59.3349 21.3536C24.4042 21.624 12.5913 21.2185 11.4481 20.002Z" fill="white"/>
</svg>
