<svg width="1219" height="226" viewBox="0 0 1219 226" fill="none" xmlns="http://www.w3.org/2000/svg">
<rect width="1219" height="226" rx="10" fill="#040219" fill-opacity="0.8"/>
<path d="M665.537 51.1519C665.293 51.1517 665.053 51.092 664.837 50.9779L661.171 49.0509C661.1 49.0134 661.02 48.9939 660.939 48.9939C660.858 48.9939 660.779 49.0134 660.707 49.0509L657.037 50.9779C656.79 51.1083 656.51 51.1668 656.231 51.1467C655.952 51.1266 655.684 51.0288 655.457 50.8643C655.231 50.6998 655.055 50.4751 654.949 50.2158C654.844 49.9565 654.813 49.6729 654.86 49.3969L655.56 45.3149C655.574 45.2352 655.568 45.1533 655.543 45.0763C655.518 44.9993 655.475 44.9295 655.417 44.8729L652.453 41.9819C652.253 41.7865 652.111 41.5389 652.044 41.2671C651.977 40.9952 651.987 40.71 652.074 40.4437C652.16 40.1774 652.319 39.9407 652.534 39.7603C652.748 39.5799 653.008 39.463 653.285 39.4229L657.385 38.8229C657.465 38.8113 657.541 38.7803 657.607 38.7328C657.672 38.6852 657.725 38.6225 657.761 38.5499L659.594 34.8359C659.718 34.585 659.91 34.3737 660.148 34.226C660.385 34.0783 660.659 34 660.939 34C661.219 34 661.493 34.0783 661.731 34.226C661.969 34.3737 662.16 34.585 662.284 34.8359L664.117 38.5499C664.153 38.6227 664.206 38.6856 664.271 38.7333C664.337 38.7811 664.413 38.8122 664.493 38.8239L668.593 39.4239C668.87 39.464 669.131 39.5809 669.345 39.7613C669.559 39.9417 669.719 40.1784 669.805 40.4447C669.892 40.711 669.902 40.9962 669.835 41.2681C669.768 41.5399 669.626 41.7875 669.425 41.9829L666.46 44.8739C666.402 44.9304 666.359 45.0002 666.334 45.0772C666.309 45.1542 666.303 45.2361 666.316 45.3159L667.016 49.3979C667.053 49.6133 667.043 49.8342 666.986 50.0451C666.928 50.256 666.826 50.4518 666.685 50.6189C666.544 50.786 666.368 50.9202 666.17 51.0123C665.972 51.1044 665.756 51.152 665.537 51.1519ZM661.637 48.1659L665.301 50.0889C665.384 50.1322 665.477 50.1516 665.57 50.1448C665.663 50.138 665.752 50.1053 665.827 50.0505C665.903 49.9957 665.961 49.9209 665.997 49.8346C666.032 49.7483 666.042 49.6538 666.026 49.5619L665.326 45.4799C665.285 45.2401 665.303 44.994 665.378 44.7626C665.454 44.5312 665.584 44.3217 665.758 44.1519L668.723 41.2619C668.79 41.1968 668.837 41.1143 668.86 41.0237C668.882 40.9331 668.879 40.8381 668.85 40.7493C668.821 40.6606 668.768 40.5816 668.697 40.5215C668.625 40.4613 668.539 40.4224 668.446 40.4089L664.346 39.8089C664.105 39.774 663.877 39.681 663.68 39.538C663.483 39.395 663.324 39.2062 663.216 38.9879L661.386 35.2829C661.341 35.203 661.276 35.1365 661.197 35.0902C661.118 35.0439 661.028 35.0194 660.936 35.0194C660.845 35.0194 660.755 35.0439 660.676 35.0902C660.596 35.1365 660.531 35.203 660.486 35.2829L658.656 38.9969C658.549 39.215 658.389 39.4036 658.193 39.5464C657.996 39.6893 657.767 39.7821 657.526 39.8169L653.426 40.4169C653.334 40.4304 653.247 40.4693 653.176 40.5295C653.105 40.5896 653.051 40.6686 653.023 40.7573C652.994 40.8461 652.99 40.9411 653.013 41.0317C653.035 41.1223 653.082 41.2048 653.149 41.2699L656.117 44.1569C656.292 44.3272 656.423 44.5375 656.498 44.7696C656.573 45.0017 656.59 45.2486 656.548 45.4889L655.848 49.5709C655.832 49.663 655.843 49.7576 655.878 49.8441C655.913 49.9305 655.972 50.0055 656.047 50.0603C656.123 50.1152 656.212 50.1477 656.305 50.1544C656.399 50.1611 656.492 50.1415 656.574 50.0979L660.237 48.1659C660.453 48.0521 660.693 47.9926 660.937 47.9926C661.181 47.9926 661.422 48.0521 661.637 48.1659Z" fill="#F3C545"/>
<path d="M752.741 52L755.644 60.35L764.483 60.531L757.438 65.872L759.998 74.334L752.74 69.284L745.484 74.334L748.044 65.872L741 60.531L749.839 60.351L752.741 52Z" fill="#F3C545"/>
<path d="M610.001 37.6299L612.904 45.9799L621.743 46.1609L614.698 51.5019L617.258 59.9639L610 54.9139L602.744 59.9639L605.304 51.5019L598.26 46.1609L607.099 45.9809L610.001 37.6299Z" fill="#F3C545"/>
<path d="M716.34 55.8331C716.096 55.8329 715.856 55.7732 715.64 55.6591L711.974 53.7321C711.902 53.6946 711.823 53.675 711.742 53.675C711.661 53.675 711.582 53.6946 711.51 53.7321L707.84 55.6591C707.592 55.7895 707.313 55.8479 707.034 55.8278C706.755 55.8077 706.486 55.7099 706.26 55.5454C706.033 55.3809 705.857 55.1563 705.752 54.897C705.646 54.6377 705.616 54.354 705.663 54.0781L706.363 49.9961C706.377 49.9163 706.371 49.8345 706.346 49.7575C706.321 49.6805 706.278 49.6107 706.22 49.5541L703.256 46.6631C703.055 46.4677 702.914 46.2201 702.846 45.9482C702.779 45.6764 702.79 45.3911 702.876 45.1249C702.963 44.8586 703.122 44.6218 703.336 44.4414C703.55 44.261 703.811 44.1442 704.088 44.1041L708.188 43.5041C708.268 43.4924 708.344 43.4615 708.41 43.4139C708.475 43.3664 708.528 43.3036 708.564 43.2311L710.397 39.5171C710.521 39.2662 710.712 39.0549 710.95 38.9072C711.188 38.7594 711.462 38.6812 711.742 38.6812C712.022 38.6812 712.296 38.7594 712.534 38.9072C712.771 39.0549 712.963 39.2662 713.087 39.5171L714.92 43.2311C714.956 43.3038 715.009 43.3668 715.074 43.4145C715.14 43.4622 715.216 43.4933 715.296 43.5051L719.396 44.1051C719.673 44.1452 719.933 44.262 720.148 44.4424C720.362 44.6228 720.521 44.8596 720.608 45.1259C720.694 45.3921 720.705 45.6774 720.638 45.9492C720.57 46.2211 720.429 46.4687 720.228 46.6641L717.263 49.5551C717.205 49.6116 717.162 49.6813 717.136 49.7583C717.111 49.8353 717.105 49.9173 717.119 49.9971L717.819 54.0791C717.856 54.2945 717.845 54.5153 717.788 54.7262C717.731 54.9371 717.628 55.133 717.487 55.3C717.347 55.4671 717.171 55.6014 716.973 55.6935C716.774 55.7855 716.559 55.8332 716.34 55.8331ZM712.44 52.8471L716.104 54.7701C716.187 54.8134 716.28 54.8327 716.373 54.8259C716.465 54.8191 716.555 54.7865 716.63 54.7317C716.705 54.6769 716.764 54.6021 716.799 54.5158C716.834 54.4294 716.845 54.335 716.829 54.2431L716.129 50.1611C716.088 49.9213 716.106 49.6751 716.181 49.4438C716.256 49.2124 716.387 49.0028 716.561 48.8331L719.526 45.9431C719.593 45.878 719.64 45.7955 719.663 45.7049C719.685 45.6143 719.681 45.5192 719.653 45.4305C719.624 45.3417 719.571 45.2628 719.499 45.2026C719.428 45.1425 719.341 45.1035 719.249 45.0901L715.149 44.4901C714.908 44.4552 714.679 44.3622 714.483 44.2191C714.286 44.0761 714.127 43.8873 714.019 43.6691L712.189 39.9641C712.144 39.8842 712.079 39.8176 712 39.7713C711.921 39.725 711.831 39.7006 711.739 39.7006C711.647 39.7006 711.557 39.725 711.478 39.7713C711.399 39.8176 711.334 39.8842 711.289 39.9641L709.459 43.6781C709.351 43.8961 709.192 44.0847 708.995 44.2276C708.798 44.3704 708.57 44.4633 708.329 44.4981L704.229 45.0981C704.137 45.1115 704.05 45.1505 703.979 45.2106C703.907 45.2708 703.854 45.3497 703.825 45.4385C703.796 45.5272 703.793 45.6223 703.815 45.7129C703.838 45.8035 703.885 45.886 703.952 45.9511L706.92 48.8381C707.095 49.0083 707.225 49.2186 707.3 49.4507C707.376 49.6828 707.393 49.9298 707.351 50.1701L706.651 54.2521C706.635 54.3441 706.645 54.4387 706.681 54.5252C706.716 54.6117 706.774 54.6866 706.85 54.7415C706.926 54.7963 707.015 54.8289 707.108 54.8356C707.201 54.8422 707.294 54.8226 707.377 54.7791L711.04 52.8471C711.256 52.7332 711.496 52.6737 711.74 52.6737C711.984 52.6737 712.224 52.7332 712.44 52.8471Z" fill="#F3C545"/>
<path d="M711.938 86.3188L714.841 94.6688L723.68 94.8498L716.635 100.191L719.195 108.653L711.937 103.603L704.681 108.653L707.241 100.191L700.197 94.8498L709.036 94.6698L711.938 86.3188Z" fill="#F3C545"/>
<path d="M677.537 105.152C677.293 105.152 677.053 105.092 676.837 104.978L673.171 103.051C673.1 103.013 673.02 102.994 672.939 102.994C672.858 102.994 672.779 103.013 672.707 103.051L669.037 104.978C668.79 105.108 668.51 105.167 668.231 105.147C667.952 105.127 667.684 105.029 667.457 104.864C667.231 104.7 667.055 104.475 666.949 104.216C666.844 103.957 666.813 103.673 666.86 103.397L667.56 99.3149C667.574 99.2352 667.568 99.1533 667.543 99.0763C667.518 98.9993 667.475 98.9295 667.417 98.8729L664.453 95.9819C664.253 95.7865 664.111 95.5389 664.044 95.2671C663.977 94.9952 663.987 94.71 664.074 94.4437C664.16 94.1774 664.319 93.9407 664.534 93.7603C664.748 93.5799 665.008 93.463 665.285 93.4229L669.385 92.8229C669.465 92.8113 669.541 92.7803 669.607 92.7328C669.672 92.6852 669.725 92.6225 669.761 92.5499L671.594 88.8359C671.718 88.585 671.91 88.3737 672.148 88.226C672.385 88.0783 672.659 88 672.939 88C673.219 88 673.493 88.0783 673.731 88.226C673.969 88.3737 674.16 88.585 674.284 88.8359L676.117 92.5499C676.153 92.6227 676.206 92.6856 676.271 92.7333C676.337 92.7811 676.413 92.8122 676.493 92.8239L680.593 93.4239C680.87 93.464 681.131 93.5809 681.345 93.7613C681.559 93.9417 681.719 94.1784 681.805 94.4447C681.892 94.711 681.902 94.9962 681.835 95.2681C681.768 95.5399 681.626 95.7875 681.425 95.9829L678.46 98.8739C678.402 98.9304 678.359 99.0002 678.334 99.0772C678.309 99.1542 678.303 99.2361 678.316 99.3159L679.016 103.398C679.053 103.613 679.043 103.834 678.986 104.045C678.928 104.256 678.826 104.452 678.685 104.619C678.544 104.786 678.368 104.92 678.17 105.012C677.972 105.104 677.756 105.152 677.537 105.152ZM673.637 102.166L677.301 104.089C677.384 104.132 677.477 104.152 677.57 104.145C677.663 104.138 677.752 104.105 677.827 104.051C677.903 103.996 677.961 103.921 677.997 103.835C678.032 103.748 678.042 103.654 678.026 103.562L677.326 99.4799C677.285 99.2401 677.303 98.994 677.378 98.7626C677.454 98.5312 677.584 98.3217 677.758 98.1519L680.723 95.2619C680.79 95.1968 680.837 95.1143 680.86 95.0237C680.882 94.9331 680.879 94.8381 680.85 94.7493C680.821 94.6606 680.768 94.5816 680.697 94.5215C680.625 94.4613 680.539 94.4224 680.446 94.4089L676.346 93.8089C676.105 93.774 675.877 93.681 675.68 93.538C675.483 93.395 675.324 93.2062 675.216 92.9879L673.386 89.2829C673.341 89.203 673.276 89.1365 673.197 89.0902C673.118 89.0439 673.028 89.0194 672.936 89.0194C672.845 89.0194 672.755 89.0439 672.676 89.0902C672.596 89.1365 672.531 89.203 672.486 89.2829L670.656 92.9969C670.549 93.215 670.389 93.4036 670.193 93.5464C669.996 93.6893 669.767 93.7821 669.526 93.8169L665.426 94.4169C665.334 94.4304 665.247 94.4693 665.176 94.5295C665.105 94.5896 665.051 94.6686 665.023 94.7573C664.994 94.8461 664.99 94.9411 665.013 95.0317C665.035 95.1223 665.082 95.2048 665.149 95.2699L668.117 98.1569C668.292 98.3272 668.423 98.5375 668.498 98.7696C668.573 99.0017 668.59 99.2486 668.548 99.4889L667.848 103.571C667.832 103.663 667.843 103.758 667.878 103.844C667.913 103.931 667.972 104.005 668.047 104.06C668.123 104.115 668.212 104.148 668.305 104.154C668.399 104.161 668.492 104.141 668.574 104.098L672.237 102.166C672.453 102.052 672.693 101.993 672.937 101.993C673.181 101.993 673.422 102.052 673.637 102.166Z" fill="#F3C545"/>
<path d="M801.696 60.5016C801.457 60.4508 801.235 60.3426 801.047 60.1863L797.861 57.541C797.798 57.4895 797.725 57.4538 797.646 57.4371C797.567 57.4203 797.485 57.423 797.407 57.4448L793.417 58.569C793.148 58.6451 792.862 58.6444 792.593 58.5669C792.324 58.4893 792.082 58.338 791.895 58.1301C791.707 57.9222 791.582 57.666 791.532 57.3905C791.483 57.1149 791.512 56.831 791.615 56.5709L793.146 52.7228C793.176 52.6476 793.187 52.5663 793.179 52.4858C793.171 52.4053 793.143 52.3281 793.098 52.2607L790.798 48.818C790.642 48.5853 790.555 48.3136 790.545 48.0337C790.536 47.7539 790.605 47.477 790.745 47.2344C790.885 46.9919 791.09 46.7933 791.337 46.6613C791.584 46.5292 791.863 46.4689 792.142 46.4871L796.278 46.7503C796.358 46.7555 796.439 46.741 796.513 46.708C796.587 46.6751 796.652 46.6247 796.702 46.5612L799.265 43.308C799.439 43.0882 799.67 42.9212 799.933 42.826C800.196 42.7308 800.481 42.711 800.754 42.7691C801.028 42.8271 801.28 42.9605 801.482 43.1543C801.684 43.3481 801.828 43.5946 801.897 43.8657L802.92 47.8791C802.94 47.9576 802.979 48.0302 803.033 48.0905C803.087 48.1507 803.155 48.1969 803.231 48.2251L807.118 49.6622C807.38 49.7588 807.611 49.9271 807.783 50.148C807.955 50.3689 808.062 50.6335 808.091 50.912C808.121 51.1905 808.072 51.4716 807.95 51.7236C807.828 51.9757 807.638 52.1885 807.401 52.3381L803.901 54.5515C803.832 54.5947 803.775 54.6539 803.735 54.7241C803.694 54.7942 803.672 54.8731 803.668 54.954L803.507 59.0924C803.498 59.3108 803.442 59.5247 803.342 59.7191C803.243 59.9136 803.102 60.0838 802.929 60.2181C802.757 60.3523 802.557 60.4472 802.344 60.4962C802.131 60.5452 801.91 60.547 801.696 60.5016ZM798.5 56.7719L801.686 59.4128C801.757 59.4723 801.844 59.5105 801.937 59.5231C802.029 59.5357 802.123 59.5223 802.208 59.4843C802.293 59.4463 802.366 59.3853 802.419 59.3081C802.471 59.231 802.501 59.1407 802.504 59.0476L802.666 54.9091C802.675 54.666 802.744 54.4289 802.865 54.2182C802.987 54.0075 803.158 53.8295 803.364 53.6996L806.864 51.4872C806.942 51.4373 807.006 51.3664 807.047 51.2824C807.087 51.1985 807.104 51.1048 807.094 51.012C807.084 50.9192 807.048 50.831 806.991 50.7573C806.934 50.6837 806.857 50.6275 806.769 50.5953L802.883 49.1582C802.655 49.0741 802.45 48.9357 802.287 48.755C802.124 48.5742 802.008 48.3565 801.948 48.1207L800.926 44.1168C800.898 44.0293 800.848 43.9507 800.781 43.889C800.713 43.8273 800.63 43.7847 800.54 43.7657C800.451 43.7467 800.357 43.7519 800.27 43.7809C800.183 43.8098 800.106 43.8613 800.045 43.9302L797.485 47.184C797.334 47.375 797.14 47.5265 796.917 47.6254C796.695 47.7243 796.452 47.7678 796.21 47.7519L792.074 47.4888C791.981 47.4827 791.888 47.5029 791.806 47.5469C791.724 47.591 791.655 47.6572 791.609 47.738C791.562 47.8189 791.539 47.9112 791.542 48.0044C791.545 48.0977 791.574 48.1882 791.626 48.2658L793.931 51.7054C794.067 51.9082 794.151 52.141 794.176 52.3836C794.202 52.6263 794.168 52.8714 794.077 53.0979L792.546 56.946C792.511 57.0327 792.501 57.1274 792.518 57.2193C792.534 57.3112 792.576 57.3967 792.639 57.466C792.701 57.5353 792.782 57.5858 792.872 57.6116C792.962 57.6374 793.057 57.6376 793.146 57.6121L797.13 56.4816C797.365 56.415 797.613 56.4066 797.851 56.4571C798.09 56.5077 798.313 56.6158 798.5 56.7719Z" fill="#F3C545"/>
<path d="M883.117 76.4345L884.225 85.2049L892.835 87.2147L884.835 90.9789L885.585 99.7878L879.532 93.3426L871.387 96.7784L875.645 89.0311L869.862 82.3456L878.546 84.0023L883.117 76.4345Z" fill="#F3C545"/>
<g clip-path="url(#clip0_597_595)">
<path d="M780.319 23.431L781.428 32.2015L790.037 34.2113L782.038 37.9755L782.788 46.7844L776.734 40.3392L768.589 43.775L772.848 36.0277L767.064 29.3422L775.749 30.9988L780.319 23.431Z" fill="#F3C545"/>
</g>
<path d="M866.976 49.1427C866.737 49.092 866.514 48.9837 866.327 48.8274L863.14 46.1821C863.078 46.1306 863.004 46.0949 862.925 46.0782C862.846 46.0614 862.764 46.0641 862.686 46.0859L858.697 47.2101C858.427 47.2863 858.142 47.2855 857.873 47.208C857.604 47.1304 857.362 46.9791 857.174 46.7713C856.987 46.5634 856.861 46.3071 856.812 46.0316C856.763 45.756 856.791 45.4722 856.895 45.212L858.426 41.3639C858.456 41.2887 858.467 41.2074 858.459 41.1269C858.45 41.0465 858.422 40.9692 858.378 40.9019L856.077 37.4591C855.922 37.2264 855.834 36.9547 855.825 36.6748C855.816 36.395 855.885 36.1181 856.025 35.8755C856.165 35.633 856.37 35.4344 856.617 35.3024C856.864 35.1703 857.143 35.11 857.422 35.1282L861.557 35.3914C861.638 35.3966 861.719 35.3821 861.793 35.3491C861.867 35.3162 861.932 35.2658 861.982 35.2023L864.545 31.9491C864.718 31.7293 864.949 31.5623 865.213 31.4671C865.476 31.3719 865.76 31.3522 866.034 31.4102C866.308 31.4682 866.56 31.6017 866.762 31.7955C866.964 31.9893 867.107 32.2357 867.177 32.5068L868.2 36.5202C868.22 36.5987 868.258 36.6713 868.312 36.7316C868.367 36.7918 868.435 36.838 868.511 36.8662L872.397 38.3033C872.66 38.3999 872.89 38.5682 873.063 38.7891C873.235 39.01 873.341 39.2747 873.371 39.5531C873.4 39.8316 873.351 40.1127 873.229 40.3648C873.107 40.6168 872.917 40.8296 872.68 40.9792L869.18 43.1926C869.112 43.2358 869.055 43.295 869.015 43.3652C868.974 43.4353 868.951 43.5142 868.948 43.5951L868.786 47.7335C868.778 47.9519 868.722 48.1658 868.622 48.3602C868.522 48.5547 868.381 48.725 868.209 48.8592C868.036 48.9934 867.837 49.0883 867.624 49.1373C867.411 49.1863 867.19 49.1882 866.976 49.1427ZM863.78 45.413L866.965 48.0539C867.037 48.1134 867.124 48.1516 867.216 48.1642C867.309 48.1768 867.403 48.1634 867.488 48.1254C867.573 48.0874 867.646 48.0264 867.698 47.9493C867.75 47.8721 867.78 47.7818 867.784 47.6887L867.945 43.5503C867.955 43.3072 868.023 43.07 868.145 42.8593C868.267 42.6486 868.438 42.4706 868.643 42.3407L872.143 40.1283C872.222 40.0785 872.285 40.0075 872.326 39.9236C872.367 39.8396 872.383 39.7459 872.373 39.6531C872.364 39.5603 872.328 39.4721 872.271 39.3984C872.213 39.3248 872.137 39.2687 872.049 39.2364L868.163 37.7993C867.934 37.7152 867.73 37.5768 867.567 37.3961C867.404 37.2153 867.287 36.9977 867.227 36.7618L866.205 32.7579C866.178 32.6704 866.128 32.5918 866.06 32.5301C865.992 32.4684 865.909 32.4258 865.82 32.4068C865.73 32.3878 865.637 32.3931 865.55 32.422C865.463 32.4509 865.385 32.5024 865.325 32.5713L862.765 35.8251C862.614 36.0161 862.419 36.1676 862.197 36.2665C861.975 36.3655 861.732 36.4089 861.489 36.393L857.354 36.1299C857.261 36.1238 857.168 36.144 857.085 36.188C857.003 36.2321 856.935 36.2983 856.888 36.3791C856.842 36.46 856.819 36.5523 856.822 36.6455C856.825 36.7388 856.854 36.8293 856.906 36.9069L859.211 40.3466C859.347 40.5493 859.431 40.7821 859.456 41.0248C859.481 41.2674 859.447 41.5126 859.356 41.739L857.825 45.5871C857.791 45.6739 857.781 45.7685 857.797 45.8604C857.814 45.9523 857.856 46.0378 857.918 46.1071C857.981 46.1764 858.062 46.2269 858.151 46.2527C858.241 46.2785 858.336 46.2787 858.426 46.2532L862.41 45.1227C862.645 45.0561 862.892 45.0477 863.131 45.0983C863.369 45.1488 863.592 45.2569 863.78 45.413Z" fill="#F3C545"/>
<path d="M830.695 94.4188L831.803 103.189L840.413 105.199L832.413 108.963L833.163 117.772L827.11 111.327L818.965 114.763L823.224 107.015L817.44 100.33L826.124 101.987L830.695 94.4188Z" fill="#F3C545"/>
<path d="M810.091 98.0588C809.853 98.008 809.63 97.8997 809.443 97.7434L806.256 95.0981C806.194 95.0466 806.12 95.011 806.041 94.9942C805.962 94.9774 805.88 94.9801 805.802 95.0019L801.812 96.1261C801.543 96.2023 801.257 96.2015 800.988 96.124C800.719 96.0464 800.477 95.8952 800.29 95.6873C800.103 95.4794 799.977 95.2232 799.928 94.9476C799.878 94.6721 799.907 94.3882 800.01 94.1281L801.541 90.2799C801.571 90.2047 801.583 90.1234 801.574 90.0429C801.566 89.9625 801.538 89.8852 801.493 89.8179L799.193 86.3751C799.037 86.1424 798.95 85.8707 798.941 85.5909C798.931 85.311 799.001 85.0341 799.14 84.7916C799.28 84.549 799.485 84.3505 799.732 84.2184C799.979 84.0863 800.258 84.026 800.538 84.0442L804.673 84.3074C804.754 84.3126 804.834 84.2981 804.908 84.2652C804.982 84.2322 805.047 84.1818 805.097 84.1183L807.661 80.8651C807.834 80.6453 808.065 80.4783 808.328 80.3831C808.591 80.2879 808.876 80.2682 809.15 80.3262C809.423 80.3842 809.675 80.5177 809.877 80.7115C810.079 80.9053 810.223 81.1517 810.292 81.4228L811.315 85.4362C811.335 85.5148 811.374 85.5873 811.428 85.6476C811.482 85.7079 811.55 85.7541 811.626 85.7822L815.513 87.2193C815.775 87.316 816.006 87.4843 816.178 87.7051C816.35 87.926 816.457 88.1907 816.486 88.4691C816.516 88.7476 816.467 89.0287 816.345 89.2808C816.223 89.5328 816.033 89.7456 815.796 89.8952L812.296 92.1086C812.228 92.1518 812.171 92.2111 812.13 92.2812C812.09 92.3513 812.067 92.4302 812.063 92.5111L811.902 96.6495C811.893 96.8679 811.837 97.0818 811.738 97.2762C811.638 97.4707 811.497 97.641 811.324 97.7752C811.152 97.9094 810.952 98.0044 810.739 98.0533C810.526 98.1023 810.305 98.1042 810.091 98.0588ZM806.895 94.329L810.081 96.9699C810.153 97.0294 810.24 97.0676 810.332 97.0802C810.424 97.0929 810.518 97.0794 810.603 97.0414C810.689 97.0035 810.761 96.9424 810.814 96.8653C810.866 96.7881 810.896 96.6978 810.899 96.6047L811.061 92.4663C811.07 92.2232 811.139 91.986 811.261 91.7753C811.382 91.5646 811.553 91.3866 811.759 91.2567L815.259 89.0443C815.338 88.9945 815.401 88.9236 815.442 88.8396C815.482 88.7556 815.499 88.6619 815.489 88.5691C815.479 88.4763 815.444 88.3881 815.386 88.3144C815.329 88.2408 815.252 88.1847 815.165 88.1524L811.278 86.7153C811.05 86.6312 810.845 86.4928 810.682 86.3121C810.519 86.1313 810.403 85.9137 810.343 85.6779L809.321 81.6739C809.294 81.5864 809.243 81.5078 809.176 81.4461C809.108 81.3844 809.025 81.3419 808.935 81.3229C808.846 81.3039 808.753 81.3091 808.666 81.338C808.579 81.3669 808.501 81.4184 808.44 81.4873L805.88 84.7412C805.73 84.9321 805.535 85.0836 805.313 85.1825C805.09 85.2815 804.847 85.3249 804.605 85.309L800.469 85.0459C800.376 85.0399 800.283 85.06 800.201 85.1041C800.119 85.1481 800.05 85.2143 800.004 85.2952C799.957 85.376 799.934 85.4683 799.937 85.5616C799.94 85.6548 799.97 85.7454 800.022 85.8229L802.326 89.2626C802.462 89.4653 802.546 89.6981 802.572 89.9408C802.597 90.1834 802.563 90.4286 802.472 90.655L800.941 94.5031C800.906 94.5899 800.897 94.6846 800.913 94.7765C800.93 94.8684 800.971 94.9538 801.034 95.0231C801.096 95.0925 801.177 95.1429 801.267 95.1687C801.357 95.1945 801.452 95.1947 801.542 95.1692L805.526 94.0387C805.76 93.9721 806.008 93.9637 806.246 94.0143C806.485 94.0649 806.708 94.1729 806.895 94.329Z" fill="#F3C545"/>
<defs>
<clipPath id="clip0_597_595">
<rect width="24" height="24" fill="white" transform="translate(768.71 20.3262) rotate(11.9669)"/>
</clipPath>
</defs>
</svg>
