<svg width="1219" height="226" viewBox="0 0 1219 226" fill="none" xmlns="http://www.w3.org/2000/svg">
<g clip-path="url(#clip0_597_553)">
<rect width="1219" height="226" rx="10" fill="#040219" fill-opacity="0.8"/>
<path fill-rule="evenodd" clip-rule="evenodd" d="M1026.58 -119.048C1085.6 -123.44 1113.99 -119.048 1187.75 -119.048C1246.72 -98.7994 1358.73 -110.282 1360.84 -54.1413C1363.11 6.64339 1383.33 46.3217 1308.33 84.8388C1208.39 119.17 1142.33 101.405 1085.81 101.405C1000.46 101.405 983.052 73.2422 938.715 60.8174C851.997 36.516 647 88.1521 647 -12.4894C647 -113.131 745.619 -80.531 811.918 -101.653C885.261 -101.653 969.501 -114.8 1026.58 -119.048Z" fill="#7D77D4"/>
<path fill-rule="evenodd" clip-rule="evenodd" d="M1089.61 -130.358C1146.81 -134.757 1167.1 -130.358 1244.21 -116.667C1300.84 -116.667 1411.53 -147.714 1413.57 -91.4758C1415.78 -30.5857 1412.01 22.0276 1339.32 60.6116C1242.46 95.0021 1184.67 77.5946 1129.52 77.5946C1036.31 77.5946 1039.13 40.1758 942.607 40.1758C873.02 40.1758 709.276 40.1758 730.962 -28.6945C741.51 -97.3124 838.819 -84.2986 885.579 -130.358C951.264 -130.358 1034.29 -126.103 1089.61 -130.358Z" fill="#A8A3F2"/>
<path fill-rule="evenodd" clip-rule="evenodd" d="M946.524 -116.644C1017.74 -121.946 1052 -116.644 1141 -116.643C1212.15 -92.1982 1347.32 -106.061 1349.86 -38.2844C1352.6 35.0982 1377 83 1286.5 129.5C1165.91 170.946 1086.19 149.5 1018 149.5C915 149.5 894 115.5 840.5 100.5C735.861 71.162 488.5 133.5 488.5 12C488.5 -109.5 607.5 -70.1436 687.5 -95.6436C776 -95.6435 877.648 -111.515 946.524 -116.644Z" fill="#899EB4"/>
<path fill-rule="evenodd" clip-rule="evenodd" d="M1022.87 -130.018C1091.85 -135.328 1116.32 -130.018 1209.31 -113.491C1277.59 -113.491 1411.09 -150.968 1413.54 -83.0836C1416.21 -9.58358 1411.66 53.9256 1324 100.5C1207.2 142.013 1137.5 121 1071 121C958.593 121 962 75.8321 845.594 75.8321C761.679 75.8321 564.214 75.8321 590.366 -7.30077C603.086 -90.1288 720.434 -74.42 776.823 -130.018C856.035 -130.018 956.159 -124.882 1022.87 -130.018Z" fill="#A5B0BD"/>
<path d="M500 82L647 82" stroke="black" stroke-opacity="0.15" stroke-width="5" stroke-linecap="round"/>
<path d="M716 82H794" stroke="black" stroke-opacity="0.15" stroke-width="5" stroke-linecap="round"/>
<path d="M666 82L696 82" stroke="black" stroke-opacity="0.15" stroke-width="5" stroke-linecap="round"/>
<path d="M559 97H681" stroke="black" stroke-opacity="0.15" stroke-width="5" stroke-linecap="round"/>
<path d="M777 114H861" stroke="black" stroke-opacity="0.15" stroke-width="5" stroke-linecap="round"/>
<path d="M635 114H757" stroke="black" stroke-opacity="0.15" stroke-width="5" stroke-linecap="round"/>
<path d="M743 97H811" stroke="black" stroke-opacity="0.15" stroke-width="5" stroke-linecap="round"/>
<path d="M554 114H622" stroke="black" stroke-opacity="0.15" stroke-width="5" stroke-linecap="round"/>
<path d="M610 131L710 131" stroke="black" stroke-opacity="0.15" stroke-width="5" stroke-linecap="round"/>
<path d="M787 148H871" stroke="black" stroke-opacity="0.15" stroke-width="5" stroke-linecap="round"/>
<path d="M645 148H767" stroke="black" stroke-opacity="0.15" stroke-width="5" stroke-linecap="round"/>
<path d="M753 131H821" stroke="black" stroke-opacity="0.15" stroke-width="5" stroke-linecap="round"/>
<path d="M542 148H610" stroke="black" stroke-opacity="0.15" stroke-width="5" stroke-linecap="round"/>
<path d="M696 97L726 97" stroke="black" stroke-opacity="0.15" stroke-width="5" stroke-linecap="round"/>
<path d="M811 82H933" stroke="black" stroke-opacity="0.15" stroke-width="5" stroke-linecap="round"/>
<path d="M952 82L982 82" stroke="black" stroke-opacity="0.15" stroke-width="5" stroke-linecap="round"/>
<path d="M845 97H967" stroke="black" stroke-opacity="0.15" stroke-width="5" stroke-linecap="round"/>
<path d="M1063 114H1147" stroke="black" stroke-opacity="0.15" stroke-width="5" stroke-linecap="round"/>
<path d="M921 114H1043" stroke="black" stroke-opacity="0.15" stroke-width="5" stroke-linecap="round"/>
<path d="M1029 97H1097" stroke="black" stroke-opacity="0.15" stroke-width="5" stroke-linecap="round"/>
<path d="M1073 148H1157" stroke="black" stroke-opacity="0.15" stroke-width="5" stroke-linecap="round"/>
<path d="M931 148H1053" stroke="black" stroke-opacity="0.15" stroke-width="5" stroke-linecap="round"/>
<path d="M1039 131H1107" stroke="black" stroke-opacity="0.15" stroke-width="5" stroke-linecap="round"/>
<path d="M886 131H982" stroke="black" stroke-opacity="0.15" stroke-width="5" stroke-linecap="round"/>
<path d="M982 97L1012 97" stroke="black" stroke-opacity="0.15" stroke-width="5" stroke-linecap="round"/>
</g>
<defs>
<clipPath id="clip0_597_553">
<rect width="1219" height="226" rx="10" fill="white"/>
</clipPath>
</defs>
</svg>
