<svg width="1219" height="226" viewBox="0 0 1219 226" fill="none" xmlns="http://www.w3.org/2000/svg">
<g clip-path="url(#clip0_597_644)">
<rect width="1219" height="226" rx="10" fill="#040219" fill-opacity="0.8"/>
<path fill-rule="evenodd" clip-rule="evenodd" d="M946.524 -116.644C1017.74 -121.946 1052 -116.644 1141 -116.643C1212.15 -92.1982 1347.32 -106.061 1349.86 -38.2844C1352.6 35.0982 1377 83 1286.5 129.5C1165.91 170.946 1086.19 149.5 1018 149.5C915 149.5 894 115.5 840.5 100.5C735.861 71.162 488.5 133.5 488.5 12C488.5 -109.5 607.5 -70.1436 687.5 -95.6436C776 -95.6435 877.648 -111.515 946.524 -116.644Z" fill="#899EB4"/>
<path fill-rule="evenodd" clip-rule="evenodd" d="M1022.87 -130.018C1091.85 -135.328 1116.32 -130.018 1209.31 -113.491C1277.59 -113.491 1411.09 -150.968 1413.54 -83.0836C1416.21 -9.58358 1411.66 53.9256 1324 100.5C1207.2 142.013 1137.5 121 1071 121C958.593 121 962 75.8321 845.594 75.8321C761.679 75.8321 564.214 75.8321 590.366 -7.30077C603.086 -90.1288 720.434 -74.42 776.823 -130.018C856.035 -130.018 956.159 -124.882 1022.87 -130.018Z" fill="#A5B0BD"/>
</g>
<defs>
<clipPath id="clip0_597_644">
<rect width="1219" height="226" rx="10" fill="white"/>
</clipPath>
</defs>
</svg>
