<svg width="1219" height="226" viewBox="0 0 1219 226" fill="none" xmlns="http://www.w3.org/2000/svg">
<g clip-path="url(#clip0_597_453)">
<rect width="1219" height="226" rx="10" fill="#040219" fill-opacity="0.8"/>
<path fill-rule="evenodd" clip-rule="evenodd" d="M1026.58 -119.048C1085.6 -123.44 1113.99 -119.048 1187.75 -119.048C1246.72 -98.7994 1358.73 -110.282 1360.84 -54.1413C1363.11 6.64339 1383.33 46.3217 1308.33 84.8388C1208.39 119.17 1142.33 101.405 1085.81 101.405C1000.46 101.405 983.052 73.2422 938.715 60.8174C851.997 36.516 647 88.1521 647 -12.4894C647 -113.131 745.619 -80.531 811.918 -101.653C885.261 -101.653 969.501 -114.8 1026.58 -119.048Z" fill="#7D77D4"/>
<path fill-rule="evenodd" clip-rule="evenodd" d="M1089.61 -130.358C1146.81 -134.757 1167.1 -130.358 1244.21 -116.667C1300.84 -116.667 1411.53 -147.714 1413.57 -91.4758C1415.78 -30.5857 1412.01 22.0276 1339.32 60.6116C1242.46 95.0021 1184.67 77.5946 1129.52 77.5946C1036.31 77.5946 1039.13 40.1758 942.607 40.1758C873.02 40.1758 709.276 40.1758 730.962 -28.6945C741.51 -97.3124 838.819 -84.2986 885.579 -130.358C951.264 -130.358 1034.29 -126.103 1089.61 -130.358Z" fill="#A8A3F2"/>
<line x1="836.287" y1="96.6377" x2="776.522" y2="240.072" stroke="#8981F6" stroke-opacity="0.4" stroke-linecap="round"/>
<line x1="861.712" y1="78.8164" x2="812.097" y2="197.893" stroke="#F9F9F9" stroke-opacity="0.7" stroke-linecap="round"/>
<line x1="825.712" y1="36.8164" x2="776.097" y2="155.893" stroke="#8981F6" stroke-linecap="round"/>
<line x1="750.269" y1="49.6538" x2="700.654" y2="168.731" stroke="#8981F6" stroke-linecap="round"/>
<line x1="734.047" y1="35.3923" x2="700.392" y2="116.163" stroke="#D3D1F5" stroke-width="0.6" stroke-linecap="round"/>
<line x1="961.712" y1="96.8164" x2="912.097" y2="215.893" stroke="#8981F6" stroke-opacity="0.4" stroke-linecap="round"/>
<line x1="986.712" y1="78.8164" x2="937.097" y2="197.893" stroke="#8981F6" stroke-opacity="0.4" stroke-linecap="round"/>
<line x1="1027.62" y1="78.5473" x2="999.385" y2="155.821" stroke="#D3D1F5" stroke-width="0.6" stroke-linecap="round"/>
<line x1="943.269" y1="31.6538" x2="893.654" y2="150.731" stroke="#8981F6" stroke-linecap="round"/>
</g>
<defs>
<clipPath id="clip0_597_453">
<rect width="1219" height="226" rx="10" fill="white"/>
</clipPath>
</defs>
</svg>
