<svg width="1219" height="226" viewBox="0 0 1219 226" fill="none" xmlns="http://www.w3.org/2000/svg">
<g clip-path="url(#clip0_597_498)">
<rect width="1219" height="226" rx="10" fill="#F9F9F9"/>
<path fill-rule="evenodd" clip-rule="evenodd" d="M1026.58 -119.048C1085.6 -123.44 1113.99 -119.048 1187.75 -119.048C1246.72 -98.7994 1358.73 -110.282 1360.84 -54.1413C1363.11 6.64339 1383.33 46.3217 1308.33 84.8388C1208.39 119.17 1142.33 101.405 1085.81 101.405C1000.46 101.405 983.052 73.2422 938.715 60.8174C851.997 36.516 647 88.1521 647 -12.4894C647 -113.131 745.619 -80.531 811.918 -101.653C885.261 -101.653 969.501 -114.8 1026.58 -119.048Z" fill="#899EB4"/>
<path fill-rule="evenodd" clip-rule="evenodd" d="M1089.61 -130.358C1146.81 -134.757 1167.1 -130.358 1244.21 -116.667C1300.84 -116.667 1411.53 -147.714 1413.57 -91.4758C1415.78 -30.5857 1412.01 22.0276 1339.32 60.6116C1242.46 95.0021 1184.67 77.5946 1129.52 77.5946C1036.31 77.5946 1039.13 40.1758 942.607 40.1758C873.02 40.1758 709.276 40.1758 730.962 -28.6945C741.51 -97.3124 838.819 -84.2986 885.579 -130.358C951.264 -130.358 1034.29 -126.103 1089.61 -130.358Z" fill="#A5B0BD"/>
<path d="M1145.51 140.041L1143.85 139.082C1144.15 138.773 1144.49 138.509 1144.87 138.301C1145.12 138.162 1145.3 137.931 1145.38 137.658C1145.46 137.386 1145.42 137.093 1145.28 136.845C1145.15 136.598 1144.92 136.414 1144.65 136.334C1144.37 136.254 1144.08 136.286 1143.83 136.42C1143.11 136.819 1142.47 137.351 1141.95 137.988L1137.65 135.5L1141.95 133.017C1142.47 133.653 1143.11 134.185 1143.83 134.584C1143.96 134.654 1144.09 134.698 1144.23 134.715C1144.37 134.732 1144.52 134.72 1144.65 134.682C1144.79 134.643 1144.92 134.578 1145.03 134.489C1145.14 134.401 1145.23 134.292 1145.3 134.168C1145.37 134.044 1145.41 133.907 1145.43 133.766C1145.44 133.625 1145.43 133.482 1145.39 133.346C1145.35 133.21 1145.28 133.083 1145.2 132.973C1145.11 132.863 1145 132.771 1144.87 132.704C1144.49 132.495 1144.15 132.232 1143.85 131.922L1145.51 130.963C1145.64 130.895 1145.75 130.803 1145.84 130.691C1145.93 130.579 1146 130.45 1146.04 130.311C1146.07 130.173 1146.09 130.028 1146.07 129.885C1146.05 129.742 1146 129.604 1145.93 129.479C1145.86 129.354 1145.76 129.245 1145.65 129.159C1145.53 129.072 1145.4 129.009 1145.26 128.974C1145.12 128.939 1144.98 128.932 1144.84 128.955C1144.69 128.977 1144.56 129.028 1144.44 129.104L1142.78 130.062C1142.66 129.647 1142.6 129.217 1142.61 128.785C1142.61 128.644 1142.59 128.503 1142.54 128.372C1142.48 128.24 1142.41 128.12 1142.31 128.018C1142.21 127.916 1142.09 127.834 1141.96 127.777C1141.84 127.721 1141.7 127.69 1141.55 127.688H1141.53C1141.25 127.687 1140.98 127.798 1140.78 127.995C1140.58 128.192 1140.47 128.46 1140.46 128.742C1140.45 129.565 1140.59 130.383 1140.88 131.154L1136.57 133.639V128.673C1137.39 128.539 1138.17 128.251 1138.87 127.827C1139.12 127.68 1139.29 127.442 1139.36 127.165C1139.43 126.889 1139.39 126.596 1139.24 126.352C1139.09 126.108 1138.85 125.932 1138.58 125.864C1138.3 125.795 1138.01 125.839 1137.76 125.986C1137.39 126.209 1136.99 126.375 1136.57 126.48V124.855C1136.57 124.571 1136.46 124.297 1136.26 124.096C1136.06 123.894 1135.78 123.781 1135.5 123.781C1135.22 123.781 1134.94 123.894 1134.74 124.096C1134.54 124.297 1134.43 124.571 1134.43 124.855V126.48C1134.01 126.375 1133.61 126.209 1133.24 125.986C1132.99 125.839 1132.7 125.795 1132.42 125.864C1132.15 125.932 1131.91 126.108 1131.76 126.352C1131.61 126.596 1131.57 126.889 1131.64 127.165C1131.71 127.442 1131.88 127.68 1132.13 127.827C1132.83 128.251 1133.61 128.539 1134.43 128.673V133.639L1130.12 131.154C1130.41 130.383 1130.56 129.564 1130.54 128.741C1130.54 128.459 1130.42 128.191 1130.22 127.994C1130.02 127.797 1129.75 127.686 1129.47 127.687H1129.45C1129.3 127.689 1129.17 127.72 1129.04 127.776C1128.91 127.832 1128.79 127.914 1128.69 128.015C1128.59 128.117 1128.52 128.237 1128.47 128.368C1128.41 128.499 1128.39 128.64 1128.39 128.781C1128.4 129.213 1128.34 129.644 1128.22 130.06L1126.56 129.104C1126.44 129.031 1126.31 128.983 1126.17 128.963C1126.02 128.943 1125.88 128.951 1125.74 128.986C1125.61 129.022 1125.48 129.085 1125.36 129.171C1125.25 129.258 1125.16 129.366 1125.08 129.489C1125.01 129.612 1124.97 129.748 1124.95 129.89C1124.93 130.031 1124.94 130.174 1124.98 130.311C1125.02 130.449 1125.08 130.577 1125.17 130.689C1125.26 130.801 1125.37 130.894 1125.49 130.964L1127.15 131.923C1126.85 132.232 1126.51 132.495 1126.13 132.704C1126 132.772 1125.89 132.863 1125.8 132.974C1125.71 133.084 1125.65 133.211 1125.61 133.347C1125.57 133.483 1125.56 133.626 1125.57 133.767C1125.59 133.908 1125.63 134.044 1125.7 134.168C1125.77 134.292 1125.86 134.402 1125.97 134.49C1126.08 134.578 1126.21 134.644 1126.35 134.682C1126.48 134.721 1126.63 134.732 1126.77 134.715C1126.91 134.699 1127.04 134.654 1127.17 134.584C1127.89 134.186 1128.53 133.654 1129.05 133.017L1133.35 135.5L1129.05 137.983C1128.53 137.347 1127.89 136.815 1127.17 136.416C1127.04 136.346 1126.91 136.302 1126.77 136.285C1126.63 136.268 1126.48 136.28 1126.35 136.318C1126.21 136.357 1126.08 136.422 1125.97 136.511C1125.86 136.599 1125.77 136.708 1125.7 136.832C1125.63 136.956 1125.59 137.093 1125.57 137.234C1125.56 137.375 1125.57 137.518 1125.61 137.654C1125.65 137.79 1125.72 137.917 1125.8 138.027C1125.89 138.137 1126 138.229 1126.13 138.296C1126.51 138.505 1126.85 138.768 1127.15 139.078L1125.49 140.041C1125.37 140.11 1125.26 140.204 1125.17 140.316C1125.08 140.428 1125.02 140.556 1124.98 140.693C1124.94 140.831 1124.93 140.974 1124.95 141.115C1124.97 141.257 1125.01 141.393 1125.08 141.516C1125.16 141.639 1125.25 141.747 1125.36 141.833C1125.48 141.92 1125.61 141.983 1125.74 142.018C1125.88 142.054 1126.02 142.062 1126.17 142.042C1126.31 142.022 1126.44 141.974 1126.56 141.901L1128.22 140.943C1128.34 141.358 1128.4 141.788 1128.39 142.22C1128.39 142.504 1128.49 142.779 1128.69 142.984C1128.89 143.189 1129.16 143.307 1129.45 143.312H1129.47C1129.75 143.313 1130.02 143.202 1130.22 143.005C1130.42 142.808 1130.53 142.54 1130.54 142.258C1130.55 141.435 1130.41 140.617 1130.12 139.846L1134.43 137.361V142.327C1133.61 142.461 1132.83 142.749 1132.13 143.173C1131.88 143.32 1131.71 143.558 1131.64 143.835C1131.57 144.111 1131.61 144.404 1131.76 144.648C1131.91 144.892 1132.15 145.068 1132.42 145.136C1132.7 145.205 1132.99 145.161 1133.24 145.014C1133.61 144.791 1134.01 144.625 1134.43 144.52V146.145C1134.43 146.429 1134.54 146.703 1134.74 146.904C1134.94 147.106 1135.22 147.219 1135.5 147.219C1135.78 147.219 1136.06 147.106 1136.26 146.904C1136.46 146.703 1136.57 146.429 1136.57 146.145V144.52C1136.99 144.625 1137.39 144.791 1137.76 145.014C1138.01 145.161 1138.3 145.205 1138.58 145.136C1138.85 145.068 1139.09 144.892 1139.24 144.648C1139.39 144.404 1139.43 144.111 1139.36 143.835C1139.29 143.558 1139.12 143.32 1138.87 143.173C1138.17 142.749 1137.39 142.461 1136.57 142.327V137.361L1140.88 139.846C1140.59 140.617 1140.44 141.436 1140.46 142.259C1140.46 142.541 1140.58 142.809 1140.78 143.006C1140.98 143.203 1141.25 143.314 1141.53 143.313H1141.55C1141.7 143.311 1141.83 143.28 1141.96 143.224C1142.09 143.168 1142.21 143.086 1142.31 142.985C1142.41 142.883 1142.48 142.763 1142.53 142.632C1142.59 142.501 1142.61 142.36 1142.61 142.219C1142.6 141.787 1142.66 141.356 1142.78 140.94L1144.44 141.899C1144.56 141.977 1144.69 142.03 1144.84 142.054C1144.98 142.078 1145.13 142.073 1145.27 142.039C1145.41 142.005 1145.54 141.942 1145.66 141.855C1145.78 141.768 1145.87 141.658 1145.95 141.533C1146.02 141.407 1146.07 141.268 1146.08 141.123C1146.1 140.979 1146.09 140.833 1146.05 140.694C1146.01 140.554 1145.94 140.424 1145.85 140.312C1145.75 140.2 1145.64 140.108 1145.51 140.041Z" fill="#5784B4"/>
<path d="M1028.51 127.041L1026.85 126.082C1027.15 125.773 1027.49 125.509 1027.87 125.301C1028.12 125.162 1028.3 124.931 1028.38 124.658C1028.46 124.386 1028.42 124.093 1028.28 123.845C1028.15 123.598 1027.92 123.414 1027.65 123.334C1027.37 123.254 1027.08 123.286 1026.83 123.42C1026.11 123.819 1025.47 124.351 1024.95 124.988L1020.65 122.5L1024.95 120.017C1025.47 120.653 1026.11 121.185 1026.83 121.584C1026.96 121.654 1027.09 121.698 1027.23 121.715C1027.37 121.732 1027.52 121.72 1027.65 121.682C1027.79 121.643 1027.92 121.578 1028.03 121.489C1028.14 121.401 1028.23 121.292 1028.3 121.168C1028.37 121.044 1028.41 120.907 1028.43 120.766C1028.44 120.625 1028.43 120.482 1028.39 120.346C1028.35 120.21 1028.28 120.083 1028.2 119.973C1028.11 119.863 1028 119.771 1027.87 119.704C1027.49 119.495 1027.15 119.232 1026.85 118.922L1028.51 117.963C1028.64 117.895 1028.75 117.803 1028.84 117.691C1028.93 117.579 1029 117.45 1029.04 117.311C1029.07 117.173 1029.09 117.028 1029.07 116.885C1029.05 116.742 1029 116.604 1028.93 116.479C1028.86 116.354 1028.76 116.245 1028.65 116.159C1028.53 116.072 1028.4 116.009 1028.26 115.974C1028.12 115.939 1027.98 115.932 1027.84 115.955C1027.69 115.977 1027.56 116.028 1027.44 116.104L1025.78 117.062C1025.66 116.647 1025.6 116.217 1025.61 115.785C1025.61 115.644 1025.59 115.503 1025.54 115.372C1025.48 115.24 1025.41 115.12 1025.31 115.018C1025.21 114.916 1025.09 114.834 1024.96 114.777C1024.84 114.721 1024.7 114.69 1024.55 114.688H1024.53C1024.25 114.687 1023.98 114.798 1023.78 114.995C1023.58 115.192 1023.47 115.46 1023.46 115.742C1023.45 116.565 1023.59 117.383 1023.88 118.154L1019.57 120.639V115.673C1020.39 115.539 1021.17 115.251 1021.87 114.827C1022.12 114.68 1022.29 114.442 1022.36 114.165C1022.43 113.889 1022.39 113.596 1022.24 113.352C1022.09 113.108 1021.85 112.932 1021.58 112.864C1021.3 112.795 1021.01 112.839 1020.76 112.986C1020.39 113.209 1019.99 113.375 1019.57 113.48V111.855C1019.57 111.571 1019.46 111.297 1019.26 111.096C1019.06 110.894 1018.78 110.781 1018.5 110.781C1018.22 110.781 1017.94 110.894 1017.74 111.096C1017.54 111.297 1017.43 111.571 1017.43 111.855V113.48C1017.01 113.375 1016.61 113.209 1016.24 112.986C1015.99 112.839 1015.7 112.795 1015.42 112.864C1015.15 112.932 1014.91 113.108 1014.76 113.352C1014.61 113.596 1014.57 113.889 1014.64 114.165C1014.71 114.442 1014.88 114.68 1015.13 114.827C1015.83 115.251 1016.61 115.539 1017.43 115.673V120.639L1013.12 118.154C1013.41 117.383 1013.56 116.564 1013.54 115.741C1013.54 115.459 1013.42 115.191 1013.22 114.994C1013.02 114.797 1012.75 114.686 1012.47 114.687H1012.45C1012.3 114.689 1012.17 114.72 1012.04 114.776C1011.91 114.832 1011.79 114.914 1011.69 115.015C1011.59 115.117 1011.52 115.237 1011.47 115.368C1011.41 115.499 1011.39 115.64 1011.39 115.781C1011.4 116.213 1011.34 116.644 1011.22 117.06L1009.56 116.104C1009.44 116.031 1009.31 115.983 1009.17 115.963C1009.02 115.943 1008.88 115.951 1008.74 115.986C1008.61 116.022 1008.48 116.085 1008.36 116.171C1008.25 116.258 1008.16 116.366 1008.08 116.489C1008.01 116.612 1007.97 116.748 1007.95 116.89C1007.93 117.031 1007.94 117.174 1007.98 117.311C1008.02 117.449 1008.08 117.577 1008.17 117.689C1008.26 117.801 1008.37 117.894 1008.49 117.964L1010.15 118.923C1009.85 119.232 1009.51 119.495 1009.13 119.704C1009 119.772 1008.89 119.863 1008.8 119.974C1008.71 120.084 1008.65 120.211 1008.61 120.347C1008.57 120.483 1008.56 120.626 1008.57 120.767C1008.59 120.908 1008.63 121.044 1008.7 121.168C1008.77 121.292 1008.86 121.402 1008.97 121.49C1009.08 121.578 1009.21 121.644 1009.35 121.682C1009.48 121.721 1009.63 121.732 1009.77 121.715C1009.91 121.699 1010.04 121.654 1010.17 121.584C1010.89 121.186 1011.53 120.654 1012.05 120.017L1016.35 122.5L1012.05 124.983C1011.53 124.347 1010.89 123.815 1010.17 123.416C1010.04 123.346 1009.91 123.302 1009.77 123.285C1009.63 123.268 1009.48 123.28 1009.35 123.318C1009.21 123.357 1009.08 123.422 1008.97 123.511C1008.86 123.599 1008.77 123.708 1008.7 123.832C1008.63 123.956 1008.59 124.093 1008.57 124.234C1008.56 124.375 1008.57 124.518 1008.61 124.654C1008.65 124.79 1008.72 124.917 1008.8 125.027C1008.89 125.137 1009 125.229 1009.13 125.296C1009.51 125.505 1009.85 125.768 1010.15 126.078L1008.49 127.041C1008.37 127.11 1008.26 127.204 1008.17 127.316C1008.08 127.428 1008.02 127.556 1007.98 127.693C1007.94 127.831 1007.93 127.974 1007.95 128.115C1007.97 128.257 1008.01 128.393 1008.08 128.516C1008.16 128.639 1008.25 128.747 1008.36 128.833C1008.48 128.92 1008.61 128.983 1008.74 129.018C1008.88 129.054 1009.02 129.062 1009.17 129.042C1009.31 129.022 1009.44 128.974 1009.56 128.901L1011.22 127.943C1011.34 128.358 1011.4 128.788 1011.39 129.22C1011.39 129.504 1011.49 129.779 1011.69 129.984C1011.89 130.189 1012.16 130.307 1012.45 130.312H1012.47C1012.75 130.313 1013.02 130.202 1013.22 130.005C1013.42 129.808 1013.53 129.54 1013.54 129.258C1013.55 128.435 1013.41 127.617 1013.12 126.846L1017.43 124.361V129.327C1016.61 129.461 1015.83 129.749 1015.13 130.173C1014.88 130.32 1014.71 130.558 1014.64 130.835C1014.57 131.111 1014.61 131.404 1014.76 131.648C1014.91 131.892 1015.15 132.068 1015.42 132.136C1015.7 132.205 1015.99 132.161 1016.24 132.014C1016.61 131.791 1017.01 131.625 1017.43 131.52V133.145C1017.43 133.429 1017.54 133.703 1017.74 133.904C1017.94 134.106 1018.22 134.219 1018.5 134.219C1018.78 134.219 1019.06 134.106 1019.26 133.904C1019.46 133.703 1019.57 133.429 1019.57 133.145V131.52C1019.99 131.625 1020.39 131.791 1020.76 132.014C1021.01 132.161 1021.3 132.205 1021.58 132.136C1021.85 132.068 1022.09 131.892 1022.24 131.648C1022.39 131.404 1022.43 131.111 1022.36 130.835C1022.29 130.558 1022.12 130.32 1021.87 130.173C1021.17 129.749 1020.39 129.461 1019.57 129.327V124.361L1023.88 126.846C1023.59 127.617 1023.44 128.436 1023.46 129.259C1023.46 129.541 1023.58 129.809 1023.78 130.006C1023.98 130.203 1024.25 130.314 1024.53 130.313H1024.55C1024.7 130.311 1024.83 130.28 1024.96 130.224C1025.09 130.168 1025.21 130.086 1025.31 129.985C1025.41 129.883 1025.48 129.763 1025.53 129.632C1025.59 129.501 1025.61 129.36 1025.61 129.219C1025.6 128.787 1025.66 128.356 1025.78 127.94L1027.44 128.899C1027.56 128.977 1027.69 129.03 1027.84 129.054C1027.98 129.078 1028.13 129.073 1028.27 129.039C1028.41 129.005 1028.54 128.942 1028.66 128.855C1028.78 128.768 1028.87 128.658 1028.95 128.533C1029.02 128.407 1029.07 128.268 1029.08 128.123C1029.1 127.979 1029.09 127.833 1029.05 127.694C1029.01 127.554 1028.94 127.424 1028.85 127.312C1028.75 127.2 1028.64 127.108 1028.51 127.041Z" fill="#5784B4"/>
<line x1="861.712" y1="78.8164" x2="812.097" y2="197.893" stroke="#F9F9F9" stroke-opacity="0.7" stroke-linecap="round"/>
<path d="M667.51 81.041L665.85 80.082C666.15 79.7726 666.495 79.5093 666.872 79.3008C667.119 79.1616 667.301 78.9306 667.378 78.6581C667.455 78.3855 667.422 78.0935 667.285 77.8455C667.148 77.5975 666.918 77.4137 666.646 77.3341C666.374 77.2545 666.082 77.2855 665.833 77.4204C665.112 77.8193 664.474 78.3512 663.951 78.9878L659.648 76.5L663.95 74.0166C664.472 74.6533 665.111 75.1852 665.832 75.584C665.956 75.6536 666.092 75.6981 666.233 75.7149C666.373 75.7317 666.516 75.7204 666.653 75.6817C666.789 75.643 666.917 75.5777 667.028 75.4895C667.139 75.4013 667.231 75.2919 667.3 75.1678C667.368 75.0436 667.412 74.9071 667.427 74.7662C667.443 74.6252 667.43 74.4825 667.391 74.3464C667.351 74.2102 667.284 74.0834 667.195 73.973C667.106 73.8627 666.996 73.7712 666.871 73.7036C666.494 73.495 666.149 73.2317 665.849 72.9224L667.509 71.9634C667.636 71.8955 667.748 71.8028 667.838 71.6907C667.929 71.5786 667.996 71.4495 668.035 71.3111C668.075 71.1726 668.086 71.0276 668.068 70.8847C668.051 70.7418 668.005 70.6039 667.933 70.4792C667.861 70.3544 667.764 70.2455 667.65 70.1587C667.535 70.0719 667.403 70.0092 667.264 69.9741C667.124 69.9391 666.979 69.9325 666.837 69.9547C666.694 69.9769 666.558 70.0275 666.436 70.1035L664.775 71.062C664.657 70.6469 664.601 70.2167 664.608 69.7852C664.612 69.6438 664.587 69.5033 664.535 69.3716C664.484 69.2399 664.407 69.1196 664.309 69.0176C664.212 68.9156 664.094 68.834 663.965 68.7773C663.835 68.7207 663.696 68.6902 663.555 68.6875H663.535C663.253 68.6875 662.983 68.7979 662.782 68.995C662.581 69.1922 662.466 69.4603 662.46 69.7417C662.445 70.5649 662.586 71.3835 662.876 72.1543L658.574 74.6392V69.6729C659.387 69.5385 660.167 69.2514 660.873 68.8267C661.117 68.6796 661.292 68.4416 661.361 68.1651C661.429 67.8886 661.385 67.5961 661.238 67.3521C661.091 67.108 660.853 66.9324 660.577 66.8638C660.3 66.7952 660.008 66.8393 659.764 66.9863C659.394 67.2087 658.993 67.375 658.574 67.48V65.8555C658.574 65.5706 658.461 65.2973 658.26 65.0959C658.058 64.8944 657.785 64.7812 657.5 64.7812C657.215 64.7812 656.942 64.8944 656.74 65.0959C656.539 65.2973 656.426 65.5706 656.426 65.8555V67.48C656.007 67.375 655.606 67.2087 655.236 66.9863C654.992 66.8393 654.7 66.7952 654.423 66.8638C654.147 66.9324 653.909 67.108 653.762 67.3521C653.615 67.5961 653.571 67.8886 653.639 68.1651C653.708 68.4416 653.883 68.6796 654.127 68.8267C654.833 69.2514 655.613 69.5385 656.426 69.6729V74.6392L652.125 72.1543C652.414 71.3833 652.555 70.5643 652.541 69.7407C652.535 69.4593 652.42 69.1912 652.219 68.994C652.018 68.7969 651.748 68.6865 651.466 68.6865H651.445C651.304 68.6891 651.165 68.7195 651.036 68.7759C650.906 68.8323 650.789 68.9136 650.692 69.0153C650.594 69.1169 650.517 69.2368 650.465 69.3681C650.414 69.4995 650.388 69.6397 650.391 69.7808C650.399 70.2129 650.343 70.6439 650.225 71.0596L648.564 70.1035C648.442 70.0306 648.307 69.9827 648.166 69.9626C648.025 69.9425 647.881 69.9506 647.744 69.9865C647.606 70.0223 647.477 70.0852 647.363 70.1715C647.25 70.2577 647.155 70.3656 647.084 70.4889C647.013 70.6122 646.967 70.7484 646.949 70.8896C646.931 71.0308 646.941 71.1742 646.979 71.3114C647.016 71.4486 647.081 71.577 647.169 71.689C647.257 71.801 647.366 71.8944 647.49 71.9639L649.15 72.9229C648.85 73.2322 648.505 73.4954 648.128 73.7041C648.003 73.7716 647.893 73.8632 647.804 73.9735C647.715 74.0839 647.648 74.2107 647.609 74.3469C647.569 74.483 647.556 74.6257 647.572 74.7666C647.587 74.9076 647.631 75.0441 647.699 75.1683C647.768 75.2924 647.86 75.4018 647.971 75.49C648.082 75.5782 648.21 75.6435 648.346 75.6822C648.483 75.7209 648.626 75.7322 648.766 75.7154C648.907 75.6986 649.043 75.6541 649.167 75.5845C649.888 75.1856 650.526 74.6537 651.049 74.0171L655.352 76.5L651.05 78.9834C650.527 78.3468 649.889 77.8149 649.168 77.416C649.044 77.3464 648.908 77.3019 648.767 77.2851C648.627 77.2683 648.484 77.2796 648.347 77.3183C648.211 77.357 648.083 77.4223 647.972 77.5105C647.861 77.5987 647.769 77.7081 647.7 77.8322C647.632 77.9564 647.588 78.0929 647.573 78.2338C647.557 78.3748 647.57 78.5175 647.609 78.6536C647.649 78.7898 647.716 78.9166 647.805 79.027C647.894 79.1373 648.004 79.2288 648.129 79.2964C648.506 79.505 648.851 79.7683 649.151 80.0776L647.49 81.041C647.366 81.1104 647.257 81.2039 647.169 81.3159C647.081 81.4279 647.016 81.5563 646.979 81.6935C646.941 81.8307 646.931 81.9741 646.949 82.1153C646.967 82.2565 647.013 82.3927 647.084 82.516C647.155 82.6393 647.25 82.7472 647.363 82.8334C647.477 82.9197 647.606 82.9825 647.744 83.0184C647.881 83.0543 648.025 83.0624 648.166 83.0423C648.307 83.0222 648.442 82.9743 648.564 82.9014L650.225 81.9429C650.343 82.3579 650.399 82.7882 650.392 83.2197C650.387 83.5043 650.495 83.7792 650.692 83.9841C650.89 84.189 651.161 84.3071 651.445 84.3125H651.465C651.747 84.3125 652.017 84.2021 652.218 84.005C652.419 83.8078 652.534 83.5397 652.54 83.2583C652.555 82.4351 652.414 81.6165 652.125 80.8457L656.426 78.3608V83.3271C655.613 83.4615 654.833 83.7486 654.127 84.1733C653.883 84.3204 653.708 84.5584 653.639 84.8349C653.571 85.1114 653.615 85.4039 653.762 85.6479C653.909 85.892 654.147 86.0676 654.423 86.1362C654.7 86.2048 654.992 86.1607 655.236 86.0137C655.606 85.7913 656.007 85.625 656.426 85.52V87.1445C656.426 87.4294 656.539 87.7027 656.74 87.9041C656.942 88.1056 657.215 88.2188 657.5 88.2188C657.785 88.2188 658.058 88.1056 658.26 87.9041C658.461 87.7027 658.574 87.4294 658.574 87.1445V85.52C658.993 85.625 659.394 85.7913 659.764 86.0137C660.008 86.1607 660.3 86.2048 660.577 86.1362C660.853 86.0676 661.091 85.892 661.238 85.6479C661.385 85.4039 661.429 85.1114 661.361 84.8349C661.292 84.5584 661.117 84.3204 660.873 84.1733C660.167 83.7486 659.387 83.4615 658.574 83.3271V78.3608L662.876 80.8457C662.586 81.6167 662.445 82.4357 662.459 83.2593C662.465 83.5407 662.58 83.8088 662.781 84.006C662.982 84.2031 663.252 84.3135 663.534 84.3135H663.555C663.696 84.3109 663.835 84.2805 663.964 84.2241C664.094 84.1677 664.211 84.0864 664.308 83.9847C664.406 83.8831 664.483 83.7632 664.535 83.6319C664.586 83.5005 664.612 83.3603 664.609 83.2192C664.601 82.7871 664.657 82.3561 664.775 81.9404L666.436 82.8989C666.558 82.9774 666.695 83.0303 666.838 83.0544C666.981 83.0784 667.128 83.0732 667.269 83.039C667.41 83.0047 667.543 82.9422 667.659 82.8552C667.776 82.7682 667.873 82.6585 667.946 82.5327C668.019 82.4069 668.065 82.2677 668.082 82.1235C668.1 81.9792 668.088 81.833 668.047 81.6935C668.006 81.5541 667.938 81.4244 667.845 81.3122C667.753 81.2001 667.639 81.1078 667.51 81.041Z" fill="#5784B4"/>
<path d="M766.51 81.041L764.85 80.082C765.15 79.7726 765.495 79.5093 765.872 79.3008C766.119 79.1616 766.301 78.9306 766.378 78.6581C766.455 78.3855 766.422 78.0935 766.285 77.8455C766.148 77.5975 765.918 77.4137 765.646 77.3341C765.374 77.2545 765.082 77.2855 764.833 77.4204C764.112 77.8193 763.474 78.3512 762.951 78.9878L758.648 76.5L762.95 74.0166C763.472 74.6533 764.111 75.1852 764.832 75.584C764.956 75.6536 765.092 75.6981 765.233 75.7149C765.373 75.7317 765.516 75.7204 765.653 75.6817C765.789 75.643 765.917 75.5777 766.028 75.4895C766.139 75.4013 766.231 75.2919 766.3 75.1678C766.368 75.0436 766.412 74.9071 766.427 74.7662C766.443 74.6252 766.43 74.4825 766.391 74.3464C766.351 74.2102 766.284 74.0834 766.195 73.973C766.106 73.8627 765.996 73.7712 765.871 73.7036C765.494 73.495 765.149 73.2317 764.849 72.9224L766.509 71.9634C766.636 71.8955 766.748 71.8028 766.838 71.6907C766.929 71.5786 766.996 71.4495 767.035 71.3111C767.075 71.1726 767.086 71.0276 767.068 70.8847C767.051 70.7418 767.005 70.6039 766.933 70.4792C766.861 70.3544 766.764 70.2455 766.65 70.1587C766.535 70.0719 766.403 70.0092 766.264 69.9741C766.124 69.9391 765.979 69.9325 765.837 69.9547C765.694 69.9769 765.558 70.0275 765.436 70.1035L763.775 71.062C763.657 70.6469 763.601 70.2167 763.608 69.7852C763.612 69.6438 763.587 69.5033 763.535 69.3716C763.484 69.2399 763.407 69.1196 763.309 69.0176C763.212 68.9156 763.094 68.834 762.965 68.7773C762.835 68.7207 762.696 68.6902 762.555 68.6875H762.535C762.253 68.6875 761.983 68.7979 761.782 68.995C761.581 69.1922 761.466 69.4603 761.46 69.7417C761.445 70.5649 761.586 71.3835 761.876 72.1543L757.574 74.6392V69.6729C758.387 69.5385 759.167 69.2514 759.873 68.8267C760.117 68.6796 760.292 68.4416 760.361 68.1651C760.429 67.8886 760.385 67.5961 760.238 67.3521C760.091 67.108 759.853 66.9324 759.577 66.8638C759.3 66.7952 759.008 66.8393 758.764 66.9863C758.394 67.2087 757.993 67.375 757.574 67.48V65.8555C757.574 65.5706 757.461 65.2973 757.26 65.0959C757.058 64.8944 756.785 64.7812 756.5 64.7812C756.215 64.7812 755.942 64.8944 755.74 65.0959C755.539 65.2973 755.426 65.5706 755.426 65.8555V67.48C755.007 67.375 754.606 67.2087 754.236 66.9863C753.992 66.8393 753.7 66.7952 753.423 66.8638C753.147 66.9324 752.909 67.108 752.762 67.3521C752.615 67.5961 752.571 67.8886 752.639 68.1651C752.708 68.4416 752.883 68.6796 753.127 68.8267C753.833 69.2514 754.613 69.5385 755.426 69.6729V74.6392L751.125 72.1543C751.414 71.3833 751.555 70.5643 751.541 69.7407C751.535 69.4593 751.42 69.1912 751.219 68.994C751.018 68.7969 750.748 68.6865 750.466 68.6865H750.445C750.304 68.6891 750.165 68.7195 750.036 68.7759C749.906 68.8323 749.789 68.9136 749.692 69.0153C749.594 69.1169 749.517 69.2368 749.465 69.3681C749.414 69.4995 749.388 69.6397 749.391 69.7808C749.399 70.2129 749.343 70.6439 749.225 71.0596L747.564 70.1035C747.442 70.0306 747.307 69.9827 747.166 69.9626C747.025 69.9425 746.881 69.9506 746.744 69.9865C746.606 70.0223 746.477 70.0852 746.363 70.1715C746.25 70.2577 746.155 70.3656 746.084 70.4889C746.013 70.6122 745.967 70.7484 745.949 70.8896C745.931 71.0308 745.941 71.1742 745.979 71.3114C746.016 71.4486 746.081 71.577 746.169 71.689C746.257 71.801 746.366 71.8944 746.49 71.9639L748.15 72.9229C747.85 73.2322 747.505 73.4954 747.128 73.7041C747.003 73.7716 746.893 73.8632 746.804 73.9735C746.715 74.0839 746.648 74.2107 746.609 74.3469C746.569 74.483 746.556 74.6257 746.572 74.7666C746.587 74.9076 746.631 75.0441 746.699 75.1683C746.768 75.2924 746.86 75.4018 746.971 75.49C747.082 75.5782 747.21 75.6435 747.346 75.6822C747.483 75.7209 747.626 75.7322 747.766 75.7154C747.907 75.6986 748.043 75.6541 748.167 75.5845C748.888 75.1856 749.526 74.6537 750.049 74.0171L754.352 76.5L750.05 78.9834C749.527 78.3468 748.889 77.8149 748.168 77.416C748.044 77.3464 747.908 77.3019 747.767 77.2851C747.627 77.2683 747.484 77.2796 747.347 77.3183C747.211 77.357 747.083 77.4223 746.972 77.5105C746.861 77.5987 746.769 77.7081 746.7 77.8322C746.632 77.9564 746.588 78.0929 746.573 78.2338C746.557 78.3748 746.57 78.5175 746.609 78.6536C746.649 78.7898 746.716 78.9166 746.805 79.027C746.894 79.1373 747.004 79.2288 747.129 79.2964C747.506 79.505 747.851 79.7683 748.151 80.0776L746.49 81.041C746.366 81.1104 746.257 81.2039 746.169 81.3159C746.081 81.4279 746.016 81.5563 745.979 81.6935C745.941 81.8307 745.931 81.9741 745.949 82.1153C745.967 82.2565 746.013 82.3927 746.084 82.516C746.155 82.6393 746.25 82.7472 746.363 82.8334C746.477 82.9197 746.606 82.9825 746.744 83.0184C746.881 83.0543 747.025 83.0624 747.166 83.0423C747.307 83.0222 747.442 82.9743 747.564 82.9014L749.225 81.9429C749.343 82.3579 749.399 82.7882 749.392 83.2197C749.387 83.5043 749.495 83.7792 749.692 83.9841C749.89 84.189 750.161 84.3071 750.445 84.3125H750.465C750.747 84.3125 751.017 84.2021 751.218 84.005C751.419 83.8078 751.534 83.5397 751.54 83.2583C751.555 82.4351 751.414 81.6165 751.125 80.8457L755.426 78.3608V83.3271C754.613 83.4615 753.833 83.7486 753.127 84.1733C752.883 84.3204 752.708 84.5584 752.639 84.8349C752.571 85.1114 752.615 85.4039 752.762 85.6479C752.909 85.892 753.147 86.0676 753.423 86.1362C753.7 86.2048 753.992 86.1607 754.236 86.0137C754.606 85.7913 755.007 85.625 755.426 85.52V87.1445C755.426 87.4294 755.539 87.7027 755.74 87.9041C755.942 88.1056 756.215 88.2188 756.5 88.2188C756.785 88.2188 757.058 88.1056 757.26 87.9041C757.461 87.7027 757.574 87.4294 757.574 87.1445V85.52C757.993 85.625 758.394 85.7913 758.764 86.0137C759.008 86.1607 759.3 86.2048 759.577 86.1362C759.853 86.0676 760.091 85.892 760.238 85.6479C760.385 85.4039 760.429 85.1114 760.361 84.8349C760.292 84.5584 760.117 84.3204 759.873 84.1733C759.167 83.7486 758.387 83.4615 757.574 83.3271V78.3608L761.876 80.8457C761.586 81.6167 761.445 82.4357 761.459 83.2593C761.465 83.5407 761.58 83.8088 761.781 84.006C761.982 84.2031 762.252 84.3135 762.534 84.3135H762.555C762.696 84.3109 762.835 84.2805 762.964 84.2241C763.094 84.1677 763.211 84.0864 763.308 83.9847C763.406 83.8831 763.483 83.7632 763.535 83.6319C763.586 83.5005 763.612 83.3603 763.609 83.2192C763.601 82.7871 763.657 82.3561 763.775 81.9404L765.436 82.8989C765.558 82.9774 765.695 83.0303 765.838 83.0544C765.981 83.0784 766.128 83.0732 766.269 83.039C766.41 83.0047 766.543 82.9422 766.659 82.8552C766.776 82.7682 766.873 82.6585 766.946 82.5327C767.019 82.4069 767.065 82.2677 767.082 82.1235C767.1 81.9792 767.088 81.833 767.047 81.6935C767.006 81.5541 766.938 81.4244 766.845 81.3122C766.753 81.2001 766.639 81.1078 766.51 81.041Z" fill="#5784B4"/>
<path d="M898.51 101.041L896.85 100.082C897.15 99.7726 897.495 99.5093 897.872 99.3008C898.119 99.1616 898.301 98.9306 898.378 98.6581C898.455 98.3855 898.422 98.0935 898.285 97.8455C898.148 97.5975 897.918 97.4137 897.646 97.3341C897.374 97.2545 897.082 97.2855 896.833 97.4204C896.112 97.8193 895.474 98.3512 894.951 98.9878L890.648 96.5L894.95 94.0166C895.472 94.6533 896.111 95.1852 896.832 95.584C896.956 95.6536 897.092 95.6981 897.233 95.7149C897.373 95.7317 897.516 95.7204 897.653 95.6817C897.789 95.643 897.917 95.5777 898.028 95.4895C898.139 95.4013 898.231 95.2919 898.3 95.1678C898.368 95.0436 898.412 94.9071 898.427 94.7662C898.443 94.6252 898.43 94.4825 898.391 94.3464C898.351 94.2102 898.284 94.0834 898.195 93.973C898.106 93.8627 897.996 93.7712 897.871 93.7036C897.494 93.495 897.149 93.2317 896.849 92.9224L898.509 91.9634C898.636 91.8955 898.748 91.8028 898.838 91.6907C898.929 91.5786 898.996 91.4495 899.035 91.3111C899.075 91.1726 899.086 91.0276 899.068 90.8847C899.051 90.7418 899.005 90.6039 898.933 90.4792C898.861 90.3544 898.764 90.2455 898.65 90.1587C898.535 90.0719 898.403 90.0092 898.264 89.9741C898.124 89.9391 897.979 89.9325 897.837 89.9547C897.694 89.9769 897.558 90.0275 897.436 90.1035L895.775 91.062C895.657 90.6469 895.601 90.2167 895.608 89.7852C895.612 89.6438 895.587 89.5033 895.535 89.3716C895.484 89.2399 895.407 89.1196 895.309 89.0176C895.212 88.9156 895.094 88.834 894.965 88.7773C894.835 88.7207 894.696 88.6902 894.555 88.6875H894.535C894.253 88.6875 893.983 88.7979 893.782 88.995C893.581 89.1922 893.466 89.4603 893.46 89.7417C893.445 90.5649 893.586 91.3835 893.876 92.1543L889.574 94.6392V89.6729C890.387 89.5385 891.167 89.2514 891.873 88.8267C892.117 88.6796 892.292 88.4416 892.361 88.1651C892.429 87.8886 892.385 87.5961 892.238 87.3521C892.091 87.108 891.853 86.9324 891.577 86.8638C891.3 86.7952 891.008 86.8393 890.764 86.9863C890.394 87.2087 889.993 87.375 889.574 87.48V85.8555C889.574 85.5706 889.461 85.2973 889.26 85.0959C889.058 84.8944 888.785 84.7812 888.5 84.7812C888.215 84.7812 887.942 84.8944 887.74 85.0959C887.539 85.2973 887.426 85.5706 887.426 85.8555V87.48C887.007 87.375 886.606 87.2087 886.236 86.9863C885.992 86.8393 885.7 86.7952 885.423 86.8638C885.147 86.9324 884.909 87.108 884.762 87.3521C884.615 87.5961 884.571 87.8886 884.639 88.1651C884.708 88.4416 884.883 88.6796 885.127 88.8267C885.833 89.2514 886.613 89.5385 887.426 89.6729V94.6392L883.125 92.1543C883.414 91.3833 883.555 90.5643 883.541 89.7407C883.535 89.4593 883.42 89.1912 883.219 88.994C883.018 88.7969 882.748 88.6865 882.466 88.6865H882.445C882.304 88.6891 882.165 88.7195 882.036 88.7759C881.906 88.8323 881.789 88.9136 881.692 89.0153C881.594 89.1169 881.517 89.2368 881.465 89.3681C881.414 89.4995 881.388 89.6397 881.391 89.7808C881.399 90.2129 881.343 90.6439 881.225 91.0596L879.564 90.1035C879.442 90.0306 879.307 89.9827 879.166 89.9626C879.025 89.9425 878.881 89.9506 878.744 89.9865C878.606 90.0223 878.477 90.0852 878.363 90.1715C878.25 90.2577 878.155 90.3656 878.084 90.4889C878.013 90.6122 877.967 90.7484 877.949 90.8896C877.931 91.0308 877.941 91.1742 877.979 91.3114C878.016 91.4486 878.081 91.577 878.169 91.689C878.257 91.801 878.366 91.8944 878.49 91.9639L880.15 92.9229C879.85 93.2322 879.505 93.4954 879.128 93.7041C879.003 93.7716 878.893 93.8632 878.804 93.9735C878.715 94.0839 878.648 94.2107 878.609 94.3469C878.569 94.483 878.556 94.6257 878.572 94.7666C878.587 94.9076 878.631 95.0441 878.699 95.1683C878.768 95.2924 878.86 95.4018 878.971 95.49C879.082 95.5782 879.21 95.6435 879.346 95.6822C879.483 95.7209 879.626 95.7322 879.766 95.7154C879.907 95.6986 880.043 95.6541 880.167 95.5845C880.888 95.1856 881.526 94.6537 882.049 94.0171L886.352 96.5L882.05 98.9834C881.527 98.3468 880.889 97.8149 880.168 97.416C880.044 97.3464 879.908 97.3019 879.767 97.2851C879.627 97.2683 879.484 97.2796 879.347 97.3183C879.211 97.357 879.083 97.4223 878.972 97.5105C878.861 97.5987 878.769 97.7081 878.7 97.8322C878.632 97.9564 878.588 98.0929 878.573 98.2338C878.557 98.3748 878.57 98.5175 878.609 98.6536C878.649 98.7898 878.716 98.9166 878.805 99.027C878.894 99.1373 879.004 99.2288 879.129 99.2964C879.506 99.505 879.851 99.7683 880.151 100.078L878.49 101.041C878.366 101.11 878.257 101.204 878.169 101.316C878.081 101.428 878.016 101.556 877.979 101.693C877.941 101.831 877.931 101.974 877.949 102.115C877.967 102.257 878.013 102.393 878.084 102.516C878.155 102.639 878.25 102.747 878.363 102.833C878.477 102.92 878.606 102.983 878.744 103.018C878.881 103.054 879.025 103.062 879.166 103.042C879.307 103.022 879.442 102.974 879.564 102.901L881.225 101.943C881.343 102.358 881.399 102.788 881.392 103.22C881.387 103.504 881.495 103.779 881.692 103.984C881.89 104.189 882.161 104.307 882.445 104.312H882.465C882.747 104.313 883.017 104.202 883.218 104.005C883.419 103.808 883.534 103.54 883.54 103.258C883.555 102.435 883.414 101.617 883.125 100.846L887.426 98.3608V103.327C886.613 103.461 885.833 103.749 885.127 104.173C884.883 104.32 884.708 104.558 884.639 104.835C884.571 105.111 884.615 105.404 884.762 105.648C884.909 105.892 885.147 106.068 885.423 106.136C885.7 106.205 885.992 106.161 886.236 106.014C886.606 105.791 887.007 105.625 887.426 105.52V107.145C887.426 107.429 887.539 107.703 887.74 107.904C887.942 108.106 888.215 108.219 888.5 108.219C888.785 108.219 889.058 108.106 889.26 107.904C889.461 107.703 889.574 107.429 889.574 107.145V105.52C889.993 105.625 890.394 105.791 890.764 106.014C891.008 106.161 891.3 106.205 891.577 106.136C891.853 106.068 892.091 105.892 892.238 105.648C892.385 105.404 892.429 105.111 892.361 104.835C892.292 104.558 892.117 104.32 891.873 104.173C891.167 103.749 890.387 103.461 889.574 103.327V98.3608L893.876 100.846C893.586 101.617 893.445 102.436 893.459 103.259C893.465 103.541 893.58 103.809 893.781 104.006C893.982 104.203 894.252 104.314 894.534 104.313H894.555C894.696 104.311 894.835 104.28 894.964 104.224C895.094 104.168 895.211 104.086 895.308 103.985C895.406 103.883 895.483 103.763 895.535 103.632C895.586 103.501 895.612 103.36 895.609 103.219C895.601 102.787 895.657 102.356 895.775 101.94L897.436 102.899C897.558 102.977 897.695 103.03 897.838 103.054C897.981 103.078 898.128 103.073 898.269 103.039C898.41 103.005 898.543 102.942 898.659 102.855C898.776 102.768 898.873 102.658 898.946 102.533C899.019 102.407 899.065 102.268 899.082 102.123C899.1 101.979 899.088 101.833 899.047 101.694C899.006 101.554 898.938 101.424 898.845 101.312C898.753 101.2 898.639 101.108 898.51 101.041Z" fill="#5784B4"/>
<path d="M695.51 142.041L693.85 141.082C694.15 140.773 694.495 140.509 694.872 140.301C695.119 140.162 695.301 139.931 695.378 139.658C695.455 139.386 695.422 139.093 695.285 138.845C695.148 138.598 694.918 138.414 694.646 138.334C694.374 138.254 694.082 138.286 693.833 138.42C693.112 138.819 692.474 139.351 691.951 139.988L687.648 137.5L691.95 135.017C692.472 135.653 693.111 136.185 693.832 136.584C693.956 136.654 694.092 136.698 694.233 136.715C694.373 136.732 694.516 136.72 694.653 136.682C694.789 136.643 694.917 136.578 695.028 136.489C695.139 136.401 695.231 136.292 695.3 136.168C695.368 136.044 695.412 135.907 695.427 135.766C695.443 135.625 695.43 135.482 695.391 135.346C695.351 135.21 695.284 135.083 695.195 134.973C695.106 134.863 694.996 134.771 694.871 134.704C694.494 134.495 694.149 134.232 693.849 133.922L695.509 132.963C695.636 132.895 695.748 132.803 695.838 132.691C695.929 132.579 695.996 132.45 696.035 132.311C696.075 132.173 696.086 132.028 696.068 131.885C696.051 131.742 696.005 131.604 695.933 131.479C695.861 131.354 695.764 131.245 695.65 131.159C695.535 131.072 695.403 131.009 695.264 130.974C695.124 130.939 694.979 130.932 694.837 130.955C694.694 130.977 694.558 131.028 694.436 131.104L692.775 132.062C692.657 131.647 692.601 131.217 692.608 130.785C692.612 130.644 692.587 130.503 692.535 130.372C692.484 130.24 692.407 130.12 692.309 130.018C692.212 129.916 692.094 129.834 691.965 129.777C691.835 129.721 691.696 129.69 691.555 129.688H691.535C691.253 129.687 690.983 129.798 690.782 129.995C690.581 130.192 690.466 130.46 690.46 130.742C690.445 131.565 690.586 132.383 690.876 133.154L686.574 135.639V130.673C687.387 130.539 688.167 130.251 688.873 129.827C689.117 129.68 689.292 129.442 689.361 129.165C689.429 128.889 689.385 128.596 689.238 128.352C689.091 128.108 688.853 127.932 688.577 127.864C688.3 127.795 688.008 127.839 687.764 127.986C687.394 128.209 686.993 128.375 686.574 128.48V126.855C686.574 126.571 686.461 126.297 686.26 126.096C686.058 125.894 685.785 125.781 685.5 125.781C685.215 125.781 684.942 125.894 684.74 126.096C684.539 126.297 684.426 126.571 684.426 126.855V128.48C684.007 128.375 683.606 128.209 683.236 127.986C682.992 127.839 682.7 127.795 682.423 127.864C682.147 127.932 681.909 128.108 681.762 128.352C681.615 128.596 681.571 128.889 681.639 129.165C681.708 129.442 681.883 129.68 682.127 129.827C682.833 130.251 683.613 130.539 684.426 130.673V135.639L680.125 133.154C680.414 132.383 680.555 131.564 680.541 130.741C680.535 130.459 680.42 130.191 680.219 129.994C680.018 129.797 679.748 129.686 679.466 129.687H679.445C679.304 129.689 679.165 129.72 679.036 129.776C678.906 129.832 678.789 129.914 678.692 130.015C678.594 130.117 678.517 130.237 678.465 130.368C678.414 130.499 678.388 130.64 678.391 130.781C678.399 131.213 678.343 131.644 678.225 132.06L676.564 131.104C676.442 131.031 676.307 130.983 676.166 130.963C676.025 130.943 675.881 130.951 675.744 130.986C675.606 131.022 675.477 131.085 675.363 131.171C675.25 131.258 675.155 131.366 675.084 131.489C675.013 131.612 674.967 131.748 674.949 131.89C674.931 132.031 674.941 132.174 674.979 132.311C675.016 132.449 675.081 132.577 675.169 132.689C675.257 132.801 675.366 132.894 675.49 132.964L677.15 133.923C676.85 134.232 676.505 134.495 676.128 134.704C676.003 134.772 675.893 134.863 675.804 134.974C675.715 135.084 675.648 135.211 675.609 135.347C675.569 135.483 675.556 135.626 675.572 135.767C675.587 135.908 675.631 136.044 675.699 136.168C675.768 136.292 675.86 136.402 675.971 136.49C676.082 136.578 676.21 136.644 676.346 136.682C676.483 136.721 676.626 136.732 676.766 136.715C676.907 136.699 677.043 136.654 677.167 136.584C677.888 136.186 678.526 135.654 679.049 135.017L683.352 137.5L679.05 139.983C678.527 139.347 677.889 138.815 677.168 138.416C677.044 138.346 676.908 138.302 676.767 138.285C676.627 138.268 676.484 138.28 676.347 138.318C676.211 138.357 676.083 138.422 675.972 138.511C675.861 138.599 675.769 138.708 675.7 138.832C675.632 138.956 675.588 139.093 675.573 139.234C675.557 139.375 675.57 139.518 675.609 139.654C675.649 139.79 675.716 139.917 675.805 140.027C675.894 140.137 676.004 140.229 676.129 140.296C676.506 140.505 676.851 140.768 677.151 141.078L675.49 142.041C675.366 142.11 675.257 142.204 675.169 142.316C675.081 142.428 675.016 142.556 674.979 142.693C674.941 142.831 674.931 142.974 674.949 143.115C674.967 143.257 675.013 143.393 675.084 143.516C675.155 143.639 675.25 143.747 675.363 143.833C675.477 143.92 675.606 143.983 675.744 144.018C675.881 144.054 676.025 144.062 676.166 144.042C676.307 144.022 676.442 143.974 676.564 143.901L678.225 142.943C678.343 143.358 678.399 143.788 678.392 144.22C678.387 144.504 678.495 144.779 678.692 144.984C678.89 145.189 679.161 145.307 679.445 145.312H679.465C679.747 145.313 680.017 145.202 680.218 145.005C680.419 144.808 680.534 144.54 680.54 144.258C680.555 143.435 680.414 142.617 680.125 141.846L684.426 139.361V144.327C683.613 144.461 682.833 144.749 682.127 145.173C681.883 145.32 681.708 145.558 681.639 145.835C681.571 146.111 681.615 146.404 681.762 146.648C681.909 146.892 682.147 147.068 682.423 147.136C682.7 147.205 682.992 147.161 683.236 147.014C683.606 146.791 684.007 146.625 684.426 146.52V148.145C684.426 148.429 684.539 148.703 684.74 148.904C684.942 149.106 685.215 149.219 685.5 149.219C685.785 149.219 686.058 149.106 686.26 148.904C686.461 148.703 686.574 148.429 686.574 148.145V146.52C686.993 146.625 687.394 146.791 687.764 147.014C688.008 147.161 688.3 147.205 688.577 147.136C688.853 147.068 689.091 146.892 689.238 146.648C689.385 146.404 689.429 146.111 689.361 145.835C689.292 145.558 689.117 145.32 688.873 145.173C688.167 144.749 687.387 144.461 686.574 144.327V139.361L690.876 141.846C690.586 142.617 690.445 143.436 690.459 144.259C690.465 144.541 690.58 144.809 690.781 145.006C690.982 145.203 691.252 145.314 691.534 145.313H691.555C691.696 145.311 691.835 145.28 691.964 145.224C692.094 145.168 692.211 145.086 692.308 144.985C692.406 144.883 692.483 144.763 692.535 144.632C692.586 144.501 692.612 144.36 692.609 144.219C692.601 143.787 692.657 143.356 692.775 142.94L694.436 143.899C694.558 143.977 694.695 144.03 694.838 144.054C694.981 144.078 695.128 144.073 695.269 144.039C695.41 144.005 695.543 143.942 695.659 143.855C695.776 143.768 695.873 143.658 695.946 143.533C696.019 143.407 696.065 143.268 696.082 143.123C696.1 142.979 696.088 142.833 696.047 142.694C696.006 142.554 695.938 142.424 695.845 142.312C695.753 142.2 695.639 142.108 695.51 142.041Z" fill="#5784B4"/>
<path d="M774.57 177.26L772.91 176.301C773.21 175.991 773.555 175.728 773.932 175.52C774.179 175.38 774.361 175.149 774.438 174.877C774.515 174.604 774.482 174.312 774.345 174.064C774.208 173.816 773.978 173.632 773.706 173.553C773.435 173.473 773.142 173.504 772.893 173.639C772.172 174.038 771.534 174.57 771.011 175.207L766.709 172.719L771.01 170.235C771.533 170.872 772.171 171.404 772.892 171.803C773.016 171.872 773.152 171.917 773.293 171.934C773.433 171.95 773.576 171.939 773.713 171.9C773.849 171.862 773.977 171.796 774.088 171.708C774.199 171.62 774.291 171.511 774.36 171.387C774.429 171.262 774.472 171.126 774.487 170.985C774.503 170.844 774.49 170.701 774.451 170.565C774.411 170.429 774.344 170.302 774.255 170.192C774.166 170.081 774.056 169.99 773.931 169.922C773.554 169.714 773.209 169.45 772.909 169.141L774.569 168.182C774.696 168.114 774.808 168.022 774.898 167.909C774.989 167.797 775.056 167.668 775.095 167.53C775.135 167.391 775.146 167.246 775.129 167.103C775.111 166.961 775.065 166.823 774.993 166.698C774.921 166.573 774.825 166.464 774.71 166.377C774.595 166.291 774.463 166.228 774.324 166.193C774.184 166.158 774.039 166.151 773.897 166.173C773.754 166.196 773.618 166.246 773.496 166.322L771.835 167.281C771.717 166.866 771.661 166.435 771.668 166.004C771.672 165.863 771.647 165.722 771.595 165.59C771.544 165.459 771.467 165.338 771.369 165.236C771.272 165.134 771.155 165.053 771.025 164.996C770.896 164.939 770.756 164.909 770.615 164.906H770.595C770.313 164.906 770.043 165.017 769.842 165.214C769.641 165.411 769.526 165.679 769.521 165.96C769.505 166.784 769.646 167.602 769.936 168.373L765.634 170.858V165.892C766.447 165.757 767.227 165.47 767.933 165.045C768.177 164.898 768.352 164.66 768.421 164.384C768.489 164.107 768.445 163.815 768.298 163.571C768.151 163.327 767.913 163.151 767.637 163.083C767.36 163.014 767.068 163.058 766.824 163.205C766.454 163.427 766.053 163.594 765.634 163.699V162.074C765.634 161.789 765.521 161.516 765.32 161.315C765.118 161.113 764.845 161 764.56 161C764.275 161 764.002 161.113 763.8 161.315C763.599 161.516 763.486 161.789 763.486 162.074V163.699C763.067 163.594 762.666 163.427 762.296 163.205C762.052 163.058 761.76 163.014 761.483 163.083C761.207 163.151 760.969 163.327 760.822 163.571C760.675 163.815 760.631 164.107 760.699 164.384C760.768 164.66 760.943 164.898 761.188 165.045C761.893 165.47 762.673 165.757 763.486 165.892V170.858L759.185 168.373C759.474 167.602 759.616 166.783 759.601 165.959C759.595 165.678 759.48 165.41 759.279 165.213C759.078 165.016 758.808 164.905 758.526 164.905H758.505C758.364 164.908 758.225 164.938 758.096 164.995C757.966 165.051 757.85 165.132 757.752 165.234C757.654 165.336 757.577 165.456 757.525 165.587C757.474 165.718 757.449 165.858 757.451 166C757.459 166.432 757.403 166.863 757.285 167.278L755.625 166.322C755.502 166.249 755.367 166.201 755.226 166.181C755.085 166.161 754.941 166.169 754.804 166.205C754.666 166.241 754.537 166.304 754.423 166.39C754.31 166.476 754.215 166.584 754.144 166.708C754.073 166.831 754.027 166.967 754.009 167.108C753.991 167.25 754.001 167.393 754.039 167.53C754.076 167.667 754.141 167.796 754.229 167.908C754.317 168.02 754.426 168.113 754.55 168.183L756.21 169.142C755.91 169.451 755.565 169.714 755.188 169.923C755.063 169.99 754.953 170.082 754.864 170.192C754.775 170.303 754.708 170.429 754.669 170.566C754.629 170.702 754.616 170.844 754.632 170.985C754.647 171.126 754.691 171.263 754.759 171.387C754.828 171.511 754.92 171.621 755.031 171.709C755.143 171.797 755.27 171.862 755.406 171.901C755.543 171.94 755.686 171.951 755.827 171.934C755.967 171.917 756.104 171.873 756.227 171.803C756.948 171.404 757.587 170.872 758.109 170.236L762.412 172.719L758.11 175.202C757.588 174.566 756.949 174.034 756.228 173.635C756.104 173.565 755.968 173.521 755.828 173.504C755.687 173.487 755.544 173.498 755.407 173.537C755.271 173.576 755.144 173.641 755.032 173.729C754.921 173.817 754.829 173.927 754.76 174.051C754.692 174.175 754.648 174.312 754.633 174.453C754.617 174.594 754.63 174.736 754.67 174.872C754.709 175.009 754.776 175.135 754.865 175.246C754.954 175.356 755.064 175.448 755.189 175.515C755.566 175.724 755.911 175.987 756.211 176.296L754.55 177.26C754.426 177.329 754.317 177.423 754.229 177.535C754.141 177.647 754.076 177.775 754.039 177.912C754.001 178.049 753.991 178.193 754.009 178.334C754.027 178.475 754.073 178.611 754.144 178.735C754.215 178.858 754.31 178.966 754.423 179.052C754.537 179.138 754.666 179.201 754.804 179.237C754.941 179.273 755.085 179.281 755.226 179.261C755.367 179.241 755.502 179.193 755.625 179.12L757.285 178.162C757.403 178.577 757.459 179.007 757.452 179.438C757.447 179.723 757.555 179.998 757.752 180.203C757.95 180.408 758.221 180.526 758.505 180.531H758.525C758.807 180.531 759.077 180.421 759.278 180.224C759.479 180.027 759.594 179.758 759.6 179.477C759.615 178.654 759.474 177.835 759.185 177.064L763.486 174.58V179.546C762.673 179.68 761.893 179.967 761.188 180.392C760.943 180.539 760.768 180.777 760.699 181.054C760.631 181.33 760.675 181.623 760.822 181.867C760.969 182.111 761.207 182.286 761.483 182.355C761.76 182.424 762.052 182.379 762.296 182.232C762.666 182.01 763.067 181.844 763.486 181.739V183.363C763.486 183.648 763.599 183.921 763.8 184.123C764.002 184.324 764.275 184.438 764.56 184.438C764.845 184.438 765.118 184.324 765.32 184.123C765.521 183.921 765.634 183.648 765.634 183.363V181.739C766.053 181.844 766.454 182.01 766.824 182.232C767.068 182.379 767.36 182.424 767.637 182.355C767.913 182.286 768.151 182.111 768.298 181.867C768.445 181.623 768.489 181.33 768.421 181.054C768.352 180.777 768.177 180.539 767.933 180.392C767.227 179.967 766.447 179.68 765.634 179.546V174.58L769.936 177.064C769.646 177.835 769.505 178.654 769.52 179.478C769.525 179.759 769.64 180.028 769.841 180.225C770.042 180.422 770.312 180.532 770.594 180.532H770.615C770.756 180.53 770.895 180.499 771.024 180.443C771.154 180.386 771.271 180.305 771.369 180.203C771.466 180.102 771.543 179.982 771.595 179.851C771.646 179.719 771.672 179.579 771.669 179.438C771.661 179.006 771.717 178.575 771.835 178.159L773.496 179.118C773.618 179.196 773.755 179.249 773.898 179.273C774.041 179.297 774.188 179.292 774.329 179.258C774.47 179.223 774.603 179.161 774.719 179.074C774.836 178.987 774.933 178.877 775.006 178.751C775.079 178.626 775.125 178.486 775.143 178.342C775.16 178.198 775.148 178.052 775.107 177.912C775.066 177.773 774.998 177.643 774.905 177.531C774.813 177.419 774.699 177.327 774.57 177.26Z" fill="#5784B4"/>
<path d="M835.57 124.26L833.91 123.301C834.21 122.991 834.555 122.728 834.932 122.52C835.179 122.38 835.361 122.149 835.438 121.877C835.515 121.604 835.482 121.312 835.345 121.064C835.208 120.816 834.978 120.632 834.706 120.553C834.435 120.473 834.142 120.504 833.893 120.639C833.172 121.038 832.534 121.57 832.011 122.207L827.709 119.719L832.01 117.235C832.533 117.872 833.171 118.404 833.892 118.803C834.016 118.872 834.152 118.917 834.293 118.934C834.433 118.95 834.576 118.939 834.713 118.9C834.849 118.862 834.977 118.796 835.088 118.708C835.199 118.62 835.291 118.511 835.36 118.387C835.429 118.262 835.472 118.126 835.487 117.985C835.503 117.844 835.49 117.701 835.451 117.565C835.411 117.429 835.344 117.302 835.255 117.192C835.166 117.081 835.056 116.99 834.931 116.922C834.554 116.714 834.209 116.45 833.909 116.141L835.569 115.182C835.696 115.114 835.808 115.022 835.898 114.909C835.989 114.797 836.056 114.668 836.095 114.53C836.135 114.391 836.146 114.246 836.129 114.103C836.111 113.961 836.065 113.823 835.993 113.698C835.921 113.573 835.825 113.464 835.71 113.377C835.595 113.291 835.463 113.228 835.324 113.193C835.184 113.158 835.039 113.151 834.897 113.173C834.754 113.196 834.618 113.246 834.496 113.322L832.835 114.281C832.717 113.866 832.661 113.435 832.668 113.004C832.672 112.863 832.647 112.722 832.595 112.59C832.544 112.459 832.467 112.338 832.369 112.236C832.272 112.134 832.155 112.053 832.025 111.996C831.896 111.939 831.756 111.909 831.615 111.906H831.595C831.313 111.906 831.043 112.017 830.842 112.214C830.641 112.411 830.526 112.679 830.521 112.96C830.505 113.784 830.646 114.602 830.936 115.373L826.634 117.858V112.892C827.447 112.757 828.227 112.47 828.933 112.045C829.177 111.898 829.352 111.66 829.421 111.384C829.489 111.107 829.445 110.815 829.298 110.571C829.151 110.327 828.913 110.151 828.637 110.083C828.36 110.014 828.068 110.058 827.824 110.205C827.454 110.427 827.053 110.594 826.634 110.699V109.074C826.634 108.789 826.521 108.516 826.32 108.315C826.118 108.113 825.845 108 825.56 108C825.275 108 825.002 108.113 824.8 108.315C824.599 108.516 824.486 108.789 824.486 109.074V110.699C824.067 110.594 823.666 110.427 823.296 110.205C823.052 110.058 822.76 110.014 822.483 110.083C822.207 110.151 821.969 110.327 821.822 110.571C821.675 110.815 821.631 111.107 821.699 111.384C821.768 111.66 821.943 111.898 822.188 112.045C822.893 112.47 823.673 112.757 824.486 112.892V117.858L820.185 115.373C820.474 114.602 820.616 113.783 820.601 112.959C820.595 112.678 820.48 112.41 820.279 112.213C820.078 112.016 819.808 111.905 819.526 111.905H819.505C819.364 111.908 819.225 111.938 819.096 111.995C818.966 112.051 818.85 112.132 818.752 112.234C818.654 112.336 818.577 112.456 818.525 112.587C818.474 112.718 818.449 112.858 818.451 113C818.459 113.432 818.403 113.863 818.285 114.278L816.625 113.322C816.502 113.249 816.367 113.201 816.226 113.181C816.085 113.161 815.941 113.169 815.804 113.205C815.666 113.241 815.537 113.304 815.423 113.39C815.31 113.476 815.215 113.584 815.144 113.708C815.073 113.831 815.027 113.967 815.009 114.108C814.991 114.25 815.001 114.393 815.039 114.53C815.076 114.667 815.141 114.796 815.229 114.908C815.317 115.02 815.426 115.113 815.55 115.183L817.21 116.142C816.91 116.451 816.565 116.714 816.188 116.923C816.063 116.99 815.953 117.082 815.864 117.192C815.775 117.303 815.708 117.429 815.669 117.566C815.629 117.702 815.616 117.844 815.632 117.985C815.647 118.126 815.691 118.263 815.759 118.387C815.828 118.511 815.92 118.621 816.031 118.709C816.143 118.797 816.27 118.862 816.406 118.901C816.543 118.94 816.686 118.951 816.827 118.934C816.967 118.917 817.104 118.873 817.227 118.803C817.948 118.404 818.587 117.872 819.109 117.236L823.412 119.719L819.11 122.202C818.588 121.566 817.949 121.034 817.228 120.635C817.104 120.565 816.968 120.521 816.828 120.504C816.687 120.487 816.544 120.498 816.407 120.537C816.271 120.576 816.144 120.641 816.032 120.729C815.921 120.817 815.829 120.927 815.76 121.051C815.692 121.175 815.648 121.312 815.633 121.453C815.617 121.594 815.63 121.736 815.67 121.872C815.709 122.009 815.776 122.135 815.865 122.246C815.954 122.356 816.064 122.448 816.189 122.515C816.566 122.724 816.911 122.987 817.211 123.296L815.55 124.26C815.426 124.329 815.317 124.423 815.229 124.535C815.141 124.647 815.076 124.775 815.039 124.912C815.001 125.049 814.991 125.193 815.009 125.334C815.027 125.475 815.073 125.611 815.144 125.735C815.215 125.858 815.31 125.966 815.423 126.052C815.537 126.138 815.666 126.201 815.804 126.237C815.941 126.273 816.085 126.281 816.226 126.261C816.367 126.241 816.502 126.193 816.625 126.12L818.285 125.162C818.403 125.577 818.459 126.007 818.452 126.438C818.447 126.723 818.555 126.998 818.752 127.203C818.95 127.408 819.221 127.526 819.505 127.531H819.525C819.807 127.531 820.077 127.421 820.278 127.224C820.479 127.027 820.594 126.758 820.6 126.477C820.615 125.654 820.474 124.835 820.185 124.064L824.486 121.58V126.546C823.673 126.68 822.893 126.967 822.188 127.392C821.943 127.539 821.768 127.777 821.699 128.054C821.631 128.33 821.675 128.623 821.822 128.867C821.969 129.111 822.207 129.286 822.483 129.355C822.76 129.424 823.052 129.379 823.296 129.232C823.666 129.01 824.067 128.844 824.486 128.739V130.363C824.486 130.648 824.599 130.921 824.8 131.123C825.002 131.324 825.275 131.438 825.56 131.438C825.845 131.438 826.118 131.324 826.32 131.123C826.521 130.921 826.634 130.648 826.634 130.363V128.739C827.053 128.844 827.454 129.01 827.824 129.232C828.068 129.379 828.36 129.424 828.637 129.355C828.913 129.286 829.151 129.111 829.298 128.867C829.445 128.623 829.489 128.33 829.421 128.054C829.352 127.777 829.177 127.539 828.933 127.392C828.227 126.967 827.447 126.68 826.634 126.546V121.58L830.936 124.064C830.646 124.835 830.505 125.654 830.52 126.478C830.525 126.759 830.64 127.028 830.841 127.225C831.042 127.422 831.312 127.532 831.594 127.532H831.615C831.756 127.53 831.895 127.499 832.024 127.443C832.154 127.386 832.271 127.305 832.369 127.203C832.466 127.102 832.543 126.982 832.595 126.851C832.646 126.719 832.672 126.579 832.669 126.438C832.661 126.006 832.717 125.575 832.835 125.159L834.496 126.118C834.618 126.196 834.755 126.249 834.898 126.273C835.041 126.297 835.188 126.292 835.329 126.258C835.47 126.223 835.603 126.161 835.719 126.074C835.836 125.987 835.933 125.877 836.006 125.751C836.079 125.626 836.125 125.486 836.143 125.342C836.16 125.198 836.148 125.052 836.107 124.912C836.066 124.773 835.998 124.643 835.905 124.531C835.813 124.419 835.699 124.327 835.57 124.26Z" fill="#5784B4"/>
<path d="M911.51 148.041L909.85 147.082C910.15 146.773 910.495 146.509 910.872 146.301C911.119 146.162 911.301 145.931 911.378 145.658C911.455 145.386 911.422 145.093 911.285 144.845C911.148 144.598 910.918 144.414 910.646 144.334C910.374 144.254 910.082 144.286 909.833 144.42C909.112 144.819 908.474 145.351 907.951 145.988L903.648 143.5L907.95 141.017C908.472 141.653 909.111 142.185 909.832 142.584C909.956 142.654 910.092 142.698 910.233 142.715C910.373 142.732 910.516 142.72 910.653 142.682C910.789 142.643 910.917 142.578 911.028 142.489C911.139 142.401 911.231 142.292 911.3 142.168C911.368 142.044 911.412 141.907 911.427 141.766C911.443 141.625 911.43 141.482 911.391 141.346C911.351 141.21 911.284 141.083 911.195 140.973C911.106 140.863 910.996 140.771 910.871 140.704C910.494 140.495 910.149 140.232 909.849 139.922L911.509 138.963C911.636 138.895 911.748 138.803 911.838 138.691C911.929 138.579 911.996 138.45 912.035 138.311C912.075 138.173 912.086 138.028 912.068 137.885C912.051 137.742 912.005 137.604 911.933 137.479C911.861 137.354 911.764 137.245 911.65 137.159C911.535 137.072 911.403 137.009 911.264 136.974C911.124 136.939 910.979 136.932 910.837 136.955C910.694 136.977 910.558 137.028 910.436 137.104L908.775 138.062C908.657 137.647 908.601 137.217 908.608 136.785C908.612 136.644 908.587 136.503 908.535 136.372C908.484 136.24 908.407 136.12 908.309 136.018C908.212 135.916 908.094 135.834 907.965 135.777C907.835 135.721 907.696 135.69 907.555 135.688H907.535C907.253 135.687 906.983 135.798 906.782 135.995C906.581 136.192 906.466 136.46 906.46 136.742C906.445 137.565 906.586 138.383 906.876 139.154L902.574 141.639V136.673C903.387 136.539 904.167 136.251 904.873 135.827C905.117 135.68 905.292 135.442 905.361 135.165C905.429 134.889 905.385 134.596 905.238 134.352C905.091 134.108 904.853 133.932 904.577 133.864C904.3 133.795 904.008 133.839 903.764 133.986C903.394 134.209 902.993 134.375 902.574 134.48V132.855C902.574 132.571 902.461 132.297 902.26 132.096C902.058 131.894 901.785 131.781 901.5 131.781C901.215 131.781 900.942 131.894 900.74 132.096C900.539 132.297 900.426 132.571 900.426 132.855V134.48C900.007 134.375 899.606 134.209 899.236 133.986C898.992 133.839 898.7 133.795 898.423 133.864C898.147 133.932 897.909 134.108 897.762 134.352C897.615 134.596 897.571 134.889 897.639 135.165C897.708 135.442 897.883 135.68 898.127 135.827C898.833 136.251 899.613 136.539 900.426 136.673V141.639L896.125 139.154C896.414 138.383 896.555 137.564 896.541 136.741C896.535 136.459 896.42 136.191 896.219 135.994C896.018 135.797 895.748 135.686 895.466 135.687H895.445C895.304 135.689 895.165 135.72 895.036 135.776C894.906 135.832 894.789 135.914 894.692 136.015C894.594 136.117 894.517 136.237 894.465 136.368C894.414 136.499 894.388 136.64 894.391 136.781C894.399 137.213 894.343 137.644 894.225 138.06L892.564 137.104C892.442 137.031 892.307 136.983 892.166 136.963C892.025 136.943 891.881 136.951 891.744 136.986C891.606 137.022 891.477 137.085 891.363 137.171C891.25 137.258 891.155 137.366 891.084 137.489C891.013 137.612 890.967 137.748 890.949 137.89C890.931 138.031 890.941 138.174 890.979 138.311C891.016 138.449 891.081 138.577 891.169 138.689C891.257 138.801 891.366 138.894 891.49 138.964L893.15 139.923C892.85 140.232 892.505 140.495 892.128 140.704C892.003 140.772 891.893 140.863 891.804 140.974C891.715 141.084 891.648 141.211 891.609 141.347C891.569 141.483 891.556 141.626 891.572 141.767C891.587 141.908 891.631 142.044 891.699 142.168C891.768 142.292 891.86 142.402 891.971 142.49C892.082 142.578 892.21 142.644 892.346 142.682C892.483 142.721 892.626 142.732 892.766 142.715C892.907 142.699 893.043 142.654 893.167 142.584C893.888 142.186 894.526 141.654 895.049 141.017L899.352 143.5L895.05 145.983C894.527 145.347 893.889 144.815 893.168 144.416C893.044 144.346 892.908 144.302 892.767 144.285C892.627 144.268 892.484 144.28 892.347 144.318C892.211 144.357 892.083 144.422 891.972 144.511C891.861 144.599 891.769 144.708 891.7 144.832C891.632 144.956 891.588 145.093 891.573 145.234C891.557 145.375 891.57 145.518 891.609 145.654C891.649 145.79 891.716 145.917 891.805 146.027C891.894 146.137 892.004 146.229 892.129 146.296C892.506 146.505 892.851 146.768 893.151 147.078L891.49 148.041C891.366 148.11 891.257 148.204 891.169 148.316C891.081 148.428 891.016 148.556 890.979 148.693C890.941 148.831 890.931 148.974 890.949 149.115C890.967 149.257 891.013 149.393 891.084 149.516C891.155 149.639 891.25 149.747 891.363 149.833C891.477 149.92 891.606 149.983 891.744 150.018C891.881 150.054 892.025 150.062 892.166 150.042C892.307 150.022 892.442 149.974 892.564 149.901L894.225 148.943C894.343 149.358 894.399 149.788 894.392 150.22C894.387 150.504 894.495 150.779 894.692 150.984C894.89 151.189 895.161 151.307 895.445 151.312H895.465C895.747 151.313 896.017 151.202 896.218 151.005C896.419 150.808 896.534 150.54 896.54 150.258C896.555 149.435 896.414 148.617 896.125 147.846L900.426 145.361V150.327C899.613 150.461 898.833 150.749 898.127 151.173C897.883 151.32 897.708 151.558 897.639 151.835C897.571 152.111 897.615 152.404 897.762 152.648C897.909 152.892 898.147 153.068 898.423 153.136C898.7 153.205 898.992 153.161 899.236 153.014C899.606 152.791 900.007 152.625 900.426 152.52V154.145C900.426 154.429 900.539 154.703 900.74 154.904C900.942 155.106 901.215 155.219 901.5 155.219C901.785 155.219 902.058 155.106 902.26 154.904C902.461 154.703 902.574 154.429 902.574 154.145V152.52C902.993 152.625 903.394 152.791 903.764 153.014C904.008 153.161 904.3 153.205 904.577 153.136C904.853 153.068 905.091 152.892 905.238 152.648C905.385 152.404 905.429 152.111 905.361 151.835C905.292 151.558 905.117 151.32 904.873 151.173C904.167 150.749 903.387 150.461 902.574 150.327V145.361L906.876 147.846C906.586 148.617 906.445 149.436 906.459 150.259C906.465 150.541 906.58 150.809 906.781 151.006C906.982 151.203 907.252 151.314 907.534 151.313H907.555C907.696 151.311 907.835 151.28 907.964 151.224C908.094 151.168 908.211 151.086 908.308 150.985C908.406 150.883 908.483 150.763 908.535 150.632C908.586 150.501 908.612 150.36 908.609 150.219C908.601 149.787 908.657 149.356 908.775 148.94L910.436 149.899C910.558 149.977 910.695 150.03 910.838 150.054C910.981 150.078 911.128 150.073 911.269 150.039C911.41 150.005 911.543 149.942 911.659 149.855C911.776 149.768 911.873 149.658 911.946 149.533C912.019 149.407 912.065 149.268 912.082 149.123C912.1 148.979 912.088 148.833 912.047 148.694C912.006 148.554 911.938 148.424 911.845 148.312C911.753 148.2 911.639 148.108 911.51 148.041Z" fill="#5784B4"/>
</g>
<defs>
<clipPath id="clip0_597_498">
<rect width="1219" height="226" rx="10" fill="white"/>
</clipPath>
</defs>
</svg>
