<svg width="1219" height="226" viewBox="0 0 1219 226" fill="none" xmlns="http://www.w3.org/2000/svg">
<g clip-path="url(#clip0_597_533)">
<rect width="1219" height="226" rx="10" fill="#F9F9F9"/>
<path fill-rule="evenodd" clip-rule="evenodd" d="M1026.58 -119.048C1085.6 -123.44 1113.99 -119.048 1187.75 -119.048C1246.72 -98.7994 1358.73 -110.282 1360.84 -54.1413C1363.11 6.64339 1383.33 46.3217 1308.33 84.8388C1208.39 119.17 1142.33 101.405 1085.81 101.405C1000.46 101.405 983.052 73.2422 938.715 60.8174C851.997 36.516 647 88.1521 647 -12.4894C647 -113.131 745.619 -80.531 811.918 -101.653C885.261 -101.653 969.501 -114.8 1026.58 -119.048Z" fill="#899EB4"/>
<path fill-rule="evenodd" clip-rule="evenodd" d="M1089.61 -130.358C1146.81 -134.757 1167.1 -130.358 1244.21 -116.667C1300.84 -116.667 1411.53 -147.714 1413.57 -91.4758C1415.78 -30.5857 1412.01 22.0276 1339.32 60.6116C1242.46 95.0021 1184.67 77.5946 1129.52 77.5946C1036.31 77.5946 1039.13 40.1758 942.607 40.1758C873.02 40.1758 709.276 40.1758 730.962 -28.6945C741.51 -97.3124 838.819 -84.2986 885.579 -130.358C951.264 -130.358 1034.29 -126.103 1089.61 -130.358Z" fill="#A5B0BD"/>
<line x1="861.712" y1="78.8164" x2="812.097" y2="197.893" stroke="#F9F9F9" stroke-opacity="0.7" stroke-linecap="round"/>
<path d="M749.569 35.4132C738.455 59.3665 712.638 99.698 675.817 124.613C641.209 148.031 620.561 138.052 612.3 120.226C604.038 102.401 620.71 71.8391 651.219 82.7669" stroke="#7D99B6" stroke-opacity="0.7" stroke-width="5" stroke-linecap="round"/>
<path d="M810.995 47.0001C799.882 70.9534 774.064 111.285 737.244 136.2C702.635 159.618 681.987 149.638 673.726 131.813C665.465 113.988 682.136 83.4261 712.646 94.3538" stroke="#7D99B6" stroke-opacity="0.7" stroke-width="5" stroke-linecap="round"/>
<path d="M867.995 71.0001C856.882 94.9534 831.064 135.285 794.244 160.2C759.635 183.618 738.987 173.638 730.726 155.813C722.465 137.988 739.136 107.426 769.646 118.354" stroke="#7D99B6" stroke-opacity="0.7" stroke-width="5" stroke-linecap="round"/>
</g>
<defs>
<clipPath id="clip0_597_533">
<rect width="1219" height="226" rx="10" fill="white"/>
</clipPath>
</defs>
</svg>
