<svg width="47" height="38" viewBox="0 0 49 37" fill="none" xmlns="http://www.w3.org/2000/svg">
<circle cx="15.1893" cy="14.6893" r="14.6893" fill="url(#paint0_radial_445_266)"/>
<path d="M15.4397 36.0927C12.7792 36.0927 10.5148 35.1642 8.64634 33.3071C6.77648 31.4529 5.84155 29.1942 5.84155 26.5308C5.84155 24.0865 6.67695 21.9173 8.34773 20.0233C10.0185 18.1293 12.0953 17.1119 14.578 16.9711C15.0572 13.8641 16.4863 11.2975 18.8652 9.27125C21.2441 7.24497 24.0126 6.23183 27.1708 6.23183C30.7285 6.23183 33.7508 7.47533 36.2378 9.96231C38.7248 12.4493 39.9683 15.4716 39.9683 19.0294V21.1623H41.2822C43.3241 21.2277 45.0375 21.9778 46.4225 23.4125C47.8075 24.8473 48.5 26.5856 48.5 28.6275C48.5 30.7192 47.779 32.4867 46.3372 33.9299C44.8925 35.3718 43.125 36.0927 41.0348 36.0927H15.4397Z" fill="url(#paint1_radial_445_266)"/>
<defs>
<radialGradient id="paint0_radial_445_266" cx="0" cy="0" r="1" gradientUnits="userSpaceOnUse" gradientTransform="translate(15.1893 14.6893) rotate(90) scale(14.6893)">
<stop offset="0.699558" stop-color="#F3C545"/>
<stop offset="1" stop-color="#EEB155"/>
</radialGradient>
<radialGradient id="paint1_radial_445_266" cx="0" cy="0" r="1" gradientUnits="userSpaceOnUse" gradientTransform="translate(27.2079 21.3663) rotate(90) scale(34.0525 48.6465)">
<stop offset="0.416629" stop-opacity="0.2"/>
<stop offset="1"/>
</radialGradient>
</defs>
</svg>
