<svg width="95" height="95" viewBox="0 0 95 95" fill="none" xmlns="http://www.w3.org/2000/svg">
<path d="M48.3432 15C41.2196 15.0013 34.23 16.9437 28.12 20.6199C22.0099 24.2961 17.0086 29.5683 13.6495 35.8741C10.2904 42.1799 8.69963 49.2827 9.04676 56.4248C9.39389 63.567 11.6659 70.4806 15.6206 76.4282C19.5752 82.3758 25.064 87.1342 31.5015 90.196C37.9391 93.2577 45.0839 94.5079 52.1738 93.8131C59.2636 93.1183 66.0327 90.5047 71.7588 86.251C77.4849 81.9973 81.9533 76.2631 84.6873 69.6601C86.0291 66.4211 82.8142 63.1663 79.5796 64.4856C74.0358 66.7398 67.8803 66.9724 62.1834 65.143C56.4865 63.3136 51.6084 59.5379 48.3973 54.4724C45.1862 49.4069 43.8452 43.372 44.6075 37.4169C45.3697 31.4617 48.187 25.9631 52.5695 21.8769L52.8725 21.5609C55.0407 19.0724 53.3171 15.0316 49.8897 15.0316H48.843L48.5754 15.0079L48.3432 15Z" fill="url(#paint0_linear_599_257)"/>
<path d="M78.9457 13.3432C79.3962 13.6508 79.3962 14.3492 78.9457 14.6569C76.3639 16.4202 73.8935 19.2456 72.199 22.5193C71.9159 23.0665 71.0842 23.0665 70.801 22.5193C69.1066 19.2455 66.6364 16.4201 64.0543 14.6568C63.6038 14.3492 63.6038 13.6508 64.0543 13.3431C66.6361 11.5798 69.1065 8.75443 70.801 5.48067C71.0841 4.93353 71.9158 4.93353 72.199 5.48068C73.8934 8.75447 76.3636 11.5799 78.9457 13.3432Z" fill="url(#paint1_linear_599_257)"/>
<path d="M86.2415 25.446C86.5801 25.7246 86.5801 26.2754 86.2416 26.554C85.0804 27.5097 83.9747 28.9167 83.1435 30.5458C82.892 31.0387 82.108 31.0387 81.8566 30.5458C81.0253 28.9167 79.9198 27.5097 78.7585 26.554C78.4199 26.2754 78.4199 25.7246 78.7584 25.446C79.9196 24.4903 81.0253 23.0833 81.8565 21.4542C82.108 20.9613 82.892 20.9613 83.1434 21.4542C83.9747 23.0833 85.0802 24.4903 86.2415 25.446Z" fill="url(#paint2_linear_599_257)"/>
<defs>
<linearGradient id="paint0_linear_599_257" x1="9" y1="65.3998" x2="81.5" y2="82.8998" gradientUnits="userSpaceOnUse">
<stop stop-color="#F3C546"/>
<stop offset="1" stop-color="#DFA341"/>
</linearGradient>
<linearGradient id="paint1_linear_599_257" x1="71.5" y1="4" x2="91.1272" y2="24.621" gradientUnits="userSpaceOnUse">
<stop stop-color="#F3C546"/>
<stop offset="0.93" stop-color="#DFA341"/>
</linearGradient>
<linearGradient id="paint2_linear_599_257" x1="82.5" y1="20" x2="93.7008" y2="31" gradientUnits="userSpaceOnUse">
<stop stop-color="#F3C546"/>
<stop offset="0.93" stop-color="#DFA341"/>
</linearGradient>
</defs>
</svg>
