<svg width="96" height="68" viewBox="0 0 96 68" fill="none" xmlns="http://www.w3.org/2000/svg">
<path d="M21.5625 67.0833C15.5857 67.0833 10.4985 64.9974 6.30104 60.8254C2.10035 56.6599 0 51.5855 0 45.6023C0 40.111 1.87674 35.2379 5.63021 30.9829C9.38368 26.7279 14.0492 24.4423 19.6267 24.126C20.7032 17.1462 23.9136 11.3802 29.2579 6.82813C34.6022 2.27604 40.8218 0 47.9167 0C55.9092 0 62.699 2.79354 68.286 8.38063C73.8731 13.9677 76.6667 20.7575 76.6667 28.75V33.5417H79.6183C84.2055 33.6886 88.0549 35.3737 91.1662 38.5969C94.2776 41.8201 95.8333 45.7253 95.8333 50.3125C95.8333 55.0115 94.2137 58.9822 90.9746 62.2246C87.729 65.4638 83.7583 67.0833 79.0625 67.0833H21.5625Z" fill="url(#paint0_radial_599_209)"/>
<defs>
<radialGradient id="paint0_radial_599_209" cx="0" cy="0" r="1" gradientUnits="userSpaceOnUse" gradientTransform="translate(48 34) rotate(90) scale(76.5 109.286)">
<stop offset="0.416629" stop-opacity="0.2"/>
<stop offset="1"/>
</radialGradient>
</defs>
</svg>
