<svg width="95" height="95" viewBox="0 0 95 95" fill="none" xmlns="http://www.w3.org/2000/svg">
<path d="M23.575 66C18.1491 66 13.5309 64.1032 9.72025 60.3096C5.90675 56.5218 4 51.9075 4 46.4669C4 41.4736 5.70375 37.0424 9.11125 33.1733C12.5187 29.3041 16.7542 27.2258 21.8176 26.9382C22.7949 20.5913 25.7094 15.3482 30.5611 11.2089C35.4128 7.06964 41.0591 5 47.5 5C54.7558 5 60.9197 7.54021 65.9918 12.6206C71.0639 17.7011 73.6 23.8751 73.6 31.1429V35.5H76.2796C80.444 35.6336 83.9385 37.1659 86.7631 40.0968C89.5877 43.0277 91 46.5788 91 50.75C91 55.0229 89.5297 58.6335 86.5891 61.5819C83.6427 64.5273 80.038 66 75.775 66H23.575Z" fill="url(#paint0_radial_599_261)"/>
<path d="M44.875 50.4167C44.875 49.7757 45.213 49.161 45.8147 48.7078C46.4164 48.2546 47.2324 48 48.0833 48H76.9583C77.8092 48 78.6253 48.2546 79.227 48.7078C79.8287 49.161 80.1667 49.7757 80.1667 50.4167C80.1667 51.0576 79.8287 51.6723 79.227 52.1255C78.6253 52.5787 77.8092 52.8333 76.9583 52.8333H48.0833C47.2324 52.8333 46.4164 52.5787 45.8147 52.1255C45.213 51.6723 44.875 51.0576 44.875 50.4167ZM16 60.0833C16 59.4424 16.338 58.8277 16.9397 58.3745C17.5414 57.9213 18.3574 57.6667 19.2083 57.6667H54.5C55.3509 57.6667 56.167 57.9213 56.7686 58.3745C57.3703 58.8277 57.7083 59.4424 57.7083 60.0833C57.7083 60.7243 57.3703 61.339 56.7686 61.7922C56.167 62.2454 55.3509 62.5 54.5 62.5H19.2083C18.3574 62.5 17.5414 62.2454 16.9397 61.7922C16.338 61.339 16 60.7243 16 60.0833ZM25.625 67.3333C24.7741 67.3333 23.958 67.5879 23.3564 68.0412C22.7547 68.4944 22.4167 69.1091 22.4167 69.75C22.4167 70.3909 22.7547 71.0056 23.3564 71.4588C23.958 71.9121 24.7741 72.1667 25.625 72.1667H54.5C55.3509 72.1667 56.167 71.9121 56.7686 71.4588C57.3703 71.0056 57.7083 70.3909 57.7083 69.75C57.7083 69.1091 57.3703 68.4944 56.7686 68.0412C56.167 67.5879 55.3509 67.3333 54.5 67.3333H25.625ZM64.125 67.3333C63.2741 67.3333 62.458 67.5879 61.8564 68.0412C61.2547 68.4944 60.9167 69.1091 60.9167 69.75C60.9167 70.3909 61.2547 71.0056 61.8564 71.4588C62.458 71.9121 63.2741 72.1667 64.125 72.1667H76.9583C77.8092 72.1667 78.6253 71.9121 79.227 71.4588C79.8287 71.0056 80.1667 70.3909 80.1667 69.75C80.1667 69.1091 79.8287 68.4944 79.227 68.0412C78.6253 67.5879 77.8092 67.3333 76.9583 67.3333H64.125ZM64.125 57.6667C63.2741 57.6667 62.458 57.9213 61.8564 58.3745C61.2547 58.8277 60.9167 59.4424 60.9167 60.0833C60.9167 60.7243 61.2547 61.339 61.8564 61.7922C62.458 62.2454 63.2741 62.5 64.125 62.5H70.5417C71.3926 62.5 72.2086 62.2454 72.8103 61.7922C73.412 61.339 73.75 60.7243 73.75 60.0833C73.75 59.4424 73.412 58.8277 72.8103 58.3745C72.2086 57.9213 71.3926 57.6667 70.5417 57.6667H64.125ZM32.0417 79.4167C32.0417 78.7757 32.3797 78.161 32.9814 77.7078C33.583 77.2546 34.3991 77 35.25 77H70.5417C71.3926 77 72.2086 77.2546 72.8103 77.7078C73.412 78.161 73.75 78.7757 73.75 79.4167C73.75 80.0576 73.412 80.6723 72.8103 81.1255C72.2086 81.5787 71.3926 81.8333 70.5417 81.8333H35.25C34.3991 81.8333 33.583 81.5787 32.9814 81.1255C32.3797 80.6723 32.0417 80.0576 32.0417 79.4167ZM19.2083 77C18.3574 77 17.5414 77.2546 16.9397 77.7078C16.338 78.161 16 78.7757 16 79.4167C16 80.0576 16.338 80.6723 16.9397 81.1255C17.5414 81.5787 18.3574 81.8333 19.2083 81.8333H25.625C26.4759 81.8333 27.292 81.5787 27.8936 81.1255C28.4953 80.6723 28.8333 80.0576 28.8333 79.4167C28.8333 78.7757 28.4953 78.161 27.8936 77.7078C27.292 77.2546 26.4759 77 25.625 77H19.2083ZM25.625 48C24.7741 48 23.958 48.2546 23.3564 48.7078C22.7547 49.161 22.4167 49.7757 22.4167 50.4167C22.4167 51.0576 22.7547 51.6723 23.3564 52.1255C23.958 52.5787 24.7741 52.8333 25.625 52.8333H38.4583C39.3092 52.8333 40.1253 52.5787 40.727 52.1255C41.3286 51.6723 41.6667 51.0576 41.6667 50.4167C41.6667 49.7757 41.3286 49.161 40.727 48.7078C40.1253 48.2546 39.3092 48 38.4583 48H25.625Z" fill="url(#paint1_linear_599_261)"/>
<defs>
<radialGradient id="paint0_radial_599_261" cx="0" cy="0" r="1" gradientUnits="userSpaceOnUse" gradientTransform="translate(47.5757 35.9168) rotate(90) scale(69.5627 99.2124)">
<stop offset="0.416629" stop-opacity="0.2"/>
<stop offset="1"/>
</radialGradient>
<linearGradient id="paint1_linear_599_261" x1="48" y1="34.5" x2="48" y2="85.5" gradientUnits="userSpaceOnUse">
<stop stop-color="#424242"/>
<stop offset="1" stop-color="#ACACAC"/>
</linearGradient>
</defs>
</svg>
