<svg width="95" height="95" viewBox="0 0 95 95" fill="none" xmlns="http://www.w3.org/2000/svg">
<path d="M68.1365 6.09985C63.1688 6.10078 58.2944 7.47765 54.0335 10.0836C49.7725 12.6895 46.2848 16.4268 43.9422 20.8967C41.5997 25.3666 40.4904 30.4015 40.7324 35.4643C40.9745 40.5271 42.559 45.4279 45.3168 49.6439C48.0746 53.8599 51.9024 57.233 56.3917 59.4033C60.881 61.5737 65.8636 62.4599 70.8078 61.9674C75.7521 61.4749 80.4726 59.6222 84.4658 56.6069C88.459 53.5916 91.5751 49.5269 93.4818 44.8462C94.4175 42.5502 92.1755 40.243 89.9198 41.1782C86.0538 42.7761 81.7611 42.941 77.7883 41.6442C73.8154 40.3475 70.4136 37.671 68.1743 34.0803C65.935 30.4896 64.9998 26.2116 65.5313 21.9903C66.0629 17.7689 68.0276 13.8712 71.0838 10.9747L71.2951 10.7507C72.8071 8.98665 71.6052 6.12225 69.215 6.12225H68.4851L68.2985 6.10545L68.1365 6.09985Z" fill="url(#paint0_linear_599_266)"/>
<path d="M21.9501 90C16.5866 90 12.0214 88.1343 8.2546 84.4029C4.48493 80.6771 2.6001 76.1386 2.6001 70.7871C2.6001 65.8757 4.28426 61.5171 7.6526 57.7114C11.0209 53.9057 15.2077 51.8614 20.2129 51.5786C21.179 45.3357 24.06 40.1786 28.8559 36.1071C33.6518 32.0357 39.2332 30 45.6001 30C52.7725 30 58.8656 32.4986 63.8794 37.4957C68.8932 42.4929 71.4001 48.5657 71.4001 55.7143V60H74.0489C78.1654 60.1314 81.6198 61.6386 84.4119 64.5214C87.204 67.4043 88.6001 70.8971 88.6001 75C88.6001 79.2029 87.1467 82.7543 84.2399 85.6543C81.3274 88.5514 77.7641 90 73.5501 90H21.9501Z" fill="url(#paint1_radial_599_266)"/>
<defs>
<linearGradient id="paint0_linear_599_266" x1="46" y1="17.5001" x2="126" y2="96.0001" gradientUnits="userSpaceOnUse">
<stop stop-color="#F3C546"/>
<stop offset="1" stop-color="#DFA341"/>
</linearGradient>
<radialGradient id="paint1_radial_599_266" cx="0" cy="0" r="1" gradientUnits="userSpaceOnUse" gradientTransform="translate(45.6749 60.4099) rotate(90) scale(68.4224 98.072)">
<stop offset="0.416629" stop-opacity="0.2"/>
<stop offset="1"/>
</radialGradient>
</defs>
</svg>
