<svg width="95" height="95" viewBox="0 0 95 95" fill="none" xmlns="http://www.w3.org/2000/svg">
<g clip-path="url(#clip0_599_216)">
<path d="M21.3755 68C15.4507 68 10.4077 65.9477 6.24674 61.8431C2.08257 57.7449 0.000488281 52.7524 0.000488281 46.8659C0.000488281 41.4633 1.8609 36.6689 5.58174 32.4826C9.30257 28.2963 13.9275 26.0476 19.4565 25.7364C20.5237 18.8693 23.7062 13.1964 29.004 8.71786C34.3018 4.23929 40.4673 2 47.5005 2C55.4235 2 62.1542 4.74843 67.6927 10.2453C73.2312 15.7421 76.0005 22.4223 76.0005 30.2857V35H78.9265C83.4738 35.1446 87.2896 36.8024 90.374 39.9736C93.4583 43.1447 95.0005 46.9869 95.0005 51.5C95.0005 56.1231 93.395 60.0297 90.184 63.2197C86.9666 66.4066 83.0305 68 78.3755 68H21.3755Z" fill="url(#paint0_radial_599_216)"/>
<line x1="11.3906" y1="73.3975" x2="17.4717" y2="79.4786" stroke="#366FAB" stroke-width="1.4" stroke-linecap="round"/>
<line x1="11.2579" y1="79.48" x2="17.3391" y2="73.3989" stroke="#366FAB" stroke-width="1.4" stroke-linecap="round"/>
<line x1="14.415" y1="80.6984" x2="14.415" y2="72.0984" stroke="#366FAB" stroke-width="1.4" stroke-linecap="round"/>
<line x1="18.7009" y1="76.3841" x2="10.1009" y2="76.3841" stroke="#366FAB" stroke-width="1.4" stroke-linecap="round"/>
<line x1="22.3906" y1="82.3975" x2="28.4717" y2="88.4786" stroke="#366FAB" stroke-width="1.4" stroke-linecap="round"/>
<line x1="22.2579" y1="88.48" x2="28.3391" y2="82.3989" stroke="#366FAB" stroke-width="1.4" stroke-linecap="round"/>
<line x1="25.415" y1="89.6984" x2="25.415" y2="81.0984" stroke="#366FAB" stroke-width="1.4" stroke-linecap="round"/>
<line x1="29.7009" y1="85.3841" x2="21.1009" y2="85.3841" stroke="#366FAB" stroke-width="1.4" stroke-linecap="round"/>
<line x1="33.3906" y1="73.3975" x2="39.4717" y2="79.4786" stroke="#366FAB" stroke-width="1.4" stroke-linecap="round"/>
<line x1="33.2579" y1="79.48" x2="39.3391" y2="73.3989" stroke="#366FAB" stroke-width="1.4" stroke-linecap="round"/>
<line x1="36.415" y1="80.6984" x2="36.415" y2="72.0984" stroke="#366FAB" stroke-width="1.4" stroke-linecap="round"/>
<line x1="40.7009" y1="76.3841" x2="32.1009" y2="76.3841" stroke="#366FAB" stroke-width="1.4" stroke-linecap="round"/>
<line x1="55.3906" y1="73.3975" x2="61.4717" y2="79.4786" stroke="#366FAB" stroke-width="1.4" stroke-linecap="round"/>
<line x1="55.2579" y1="79.48" x2="61.3391" y2="73.3989" stroke="#366FAB" stroke-width="1.4" stroke-linecap="round"/>
<line x1="58.415" y1="80.6984" x2="58.415" y2="72.0984" stroke="#366FAB" stroke-width="1.4" stroke-linecap="round"/>
<line x1="62.7009" y1="76.3841" x2="54.1009" y2="76.3841" stroke="#366FAB" stroke-width="1.4" stroke-linecap="round"/>
<line x1="77.3906" y1="73.3975" x2="83.4717" y2="79.4786" stroke="#366FAB" stroke-width="1.4" stroke-linecap="round"/>
<line x1="77.2579" y1="79.48" x2="83.3391" y2="73.3989" stroke="#366FAB" stroke-width="1.4" stroke-linecap="round"/>
<line x1="80.415" y1="80.6984" x2="80.415" y2="72.0984" stroke="#366FAB" stroke-width="1.4" stroke-linecap="round"/>
<line x1="84.7009" y1="76.3841" x2="76.1009" y2="76.3841" stroke="#366FAB" stroke-width="1.4" stroke-linecap="round"/>
<line x1="44.3906" y1="82.3975" x2="50.4717" y2="88.4786" stroke="#366FAB" stroke-width="1.4" stroke-linecap="round"/>
<line x1="44.2582" y1="88.4803" x2="50.3393" y2="82.3991" stroke="#366FAB" stroke-width="1.4" stroke-linecap="round"/>
<line x1="47.415" y1="89.6984" x2="47.415" y2="81.0984" stroke="#366FAB" stroke-width="1.4" stroke-linecap="round"/>
<line x1="51.7009" y1="85.3843" x2="43.1009" y2="85.3843" stroke="#366FAB" stroke-width="1.4" stroke-linecap="round"/>
<line x1="66.3906" y1="82.3975" x2="72.4717" y2="88.4786" stroke="#366FAB" stroke-width="1.4" stroke-linecap="round"/>
<line x1="66.2579" y1="88.48" x2="72.3391" y2="82.3989" stroke="#366FAB" stroke-width="1.4" stroke-linecap="round"/>
<line x1="69.415" y1="89.6984" x2="69.415" y2="81.0984" stroke="#366FAB" stroke-width="1.4" stroke-linecap="round"/>
<line x1="73.7009" y1="85.3841" x2="65.1009" y2="85.3841" stroke="#366FAB" stroke-width="1.4" stroke-linecap="round"/>
</g>
<defs>
<radialGradient id="paint0_radial_599_216" cx="0" cy="0" r="1" gradientUnits="userSpaceOnUse" gradientTransform="translate(47.5831 35.4509) rotate(90) scale(75.2646 108.335)">
<stop offset="0.416629" stop-color="#CCCCCC"/>
<stop offset="1"/>
</radialGradient>
<clipPath id="clip0_599_216">
<rect width="95" height="95" fill="white"/>
</clipPath>
</defs>
</svg>
