<svg width="95" height="95" viewBox="0 0 95 95" fill="none" xmlns="http://www.w3.org/2000/svg">
<path d="M20.5 40.75C19.6049 40.75 18.7464 40.3944 18.1135 39.7615C17.4806 39.1285 17.125 38.2701 17.125 37.375C17.125 36.4799 17.4806 35.6215 18.1135 34.9885C18.7464 34.3556 19.6049 34 20.5 34H47.5C49.2902 34 51.0071 33.2888 52.273 32.023C53.5388 30.7571 54.25 29.0402 54.25 27.25C54.25 25.4598 53.5388 23.7429 52.273 22.477C51.0071 21.2112 49.2902 20.5 47.5 20.5C45.6437 20.5 43.9563 21.2425 42.7413 22.4913C42.4341 22.819 42.063 23.0803 41.6508 23.2589C41.2386 23.4376 40.7942 23.5297 40.345 23.5297C39.8958 23.5297 39.4514 23.4376 39.0392 23.2589C38.627 23.0803 38.2559 22.819 37.9487 22.4913C36.6325 21.175 36.6325 19.015 37.9487 17.6988C40.4125 15.2688 43.7875 13.75 47.5 13.75C51.0804 13.75 54.5142 15.1723 57.0459 17.7041C59.5777 20.2358 61 23.6696 61 27.25C61 30.8304 59.5777 34.2642 57.0459 36.7959C54.5142 39.3277 51.0804 40.75 47.5 40.75H20.5ZM71.125 47.5C72.0201 47.5 72.8786 47.1444 73.5115 46.5115C74.1444 45.8786 74.5 45.0201 74.5 44.125C74.5 43.2299 74.1444 42.3715 73.5115 41.7385C72.8786 41.1056 72.0201 40.75 71.125 40.75C70.18 40.75 69.3363 41.1213 68.7288 41.7288C68.4165 42.0416 68.0456 42.2898 67.6374 42.4592C67.2291 42.6286 66.7914 42.7157 66.3494 42.7157C65.9074 42.7157 65.4697 42.6286 65.0614 42.4592C64.6531 42.2898 64.2822 42.0416 63.97 41.7288C62.6875 40.4125 62.6875 38.2863 63.97 36.97C65.7925 35.1475 68.3238 34 71.125 34C73.8103 34 76.3857 35.0667 78.2845 36.9655C80.1833 38.8643 81.25 41.4397 81.25 44.125C81.25 46.8103 80.1833 49.3857 78.2845 51.2845C76.3857 53.1833 73.8103 54.25 71.125 54.25H23.875C22.9799 54.25 22.1215 53.8944 21.4885 53.2615C20.8556 52.6286 20.5 51.7701 20.5 50.875C20.5 49.9799 20.8556 49.1214 21.4885 48.4885C22.1215 47.8556 22.9799 47.5 23.875 47.5H71.125ZM67.75 67.75H20.5C19.6049 67.75 18.7464 67.3944 18.1135 66.7615C17.4806 66.1286 17.125 65.2701 17.125 64.375C17.125 63.4799 17.4806 62.6214 18.1135 61.9885C18.7464 61.3556 19.6049 61 20.5 61H67.75C70.4353 61 73.0107 62.0667 74.9095 63.9655C76.8083 65.8643 77.875 68.4397 77.875 71.125C77.875 73.8103 76.8083 76.3856 74.9095 78.2845C73.0107 80.1833 70.4353 81.25 67.75 81.25C64.9488 81.25 62.4175 80.1025 60.595 78.28C59.3125 76.9638 59.3125 74.8375 60.595 73.5212C60.9072 73.2084 61.2781 72.9601 61.6864 72.7908C62.0947 72.6214 62.5324 72.5343 62.9744 72.5343C63.4164 72.5343 63.8541 72.6214 64.2624 72.7908C64.6706 72.9601 65.0415 73.2084 65.3538 73.5212C65.9613 74.1287 66.805 74.5 67.75 74.5C68.6451 74.5 69.5036 74.1444 70.1365 73.5115C70.7694 72.8786 71.125 72.0201 71.125 71.125C71.125 70.2299 70.7694 69.3714 70.1365 68.7385C69.5036 68.1056 68.6451 67.75 67.75 67.75Z" fill="#356CA5"/>
</svg>
