<svg width="120" height="120" viewBox="0 0 120 120" fill="none" xmlns="http://www.w3.org/2000/svg">
<rect width="120" height="120" rx="16" fill="#2B5C99"/>
<path d="M25.8547 54H93.8132C100.191 54 105 48.8241 105 41.9566C105 36.1428 101.589 31.4932 96.5714 30.2499C95.3071 24.025 89.8945 19.4635 83.5258 19.4635C81.6427 19.4635 79.7884 19.8669 78.0893 20.6399C74.8862 15.272 69.2168 12 62.9445 12C53.1692 12 45.2129 20.077 45.2129 30.0108C32.0238 25.9104 23.5847 29.3824 19.943 31.5208C16.3013 33.6587 14 37.6342 14 41.9566C14 48.5981 19.3167 54 25.8547 54Z" fill="white"/>
<g clip-path="url(#clip0_621_391)">
<path d="M30.1139 63.8614C28.5158 62.496 26.461 63.1787 25.5477 65.568L11.3925 102.091C10.4792 104.48 10.9358 107.552 12.534 108.917C12.9906 109.259 13.6756 109.6 14.1322 109.6C15.2737 109.6 16.4153 108.576 17.1002 107.211L31.2555 70.688C32.1687 68.2987 31.7121 65.2267 30.1139 63.8614ZM53.6299 63.8614C52.0318 62.496 49.977 63.1787 49.0637 65.568L34.9085 102.091C33.9952 104.48 34.4518 107.552 36.05 108.917C36.5066 109.259 37.1916 109.6 37.6482 109.6C38.7897 109.6 39.9313 108.576 40.6162 107.211L54.7715 70.688C55.913 68.2987 55.2281 65.2267 53.6299 63.8614ZM78.7441 63.8614C77.1459 62.496 75.0911 63.1787 74.1779 65.568L60.0226 102.091C59.1094 104.48 59.566 107.552 61.1642 108.917C61.6208 109.259 62.3057 109.6 62.7624 109.6C63.9039 109.6 65.0455 108.576 65.7304 107.211L79.8857 70.688C80.7989 68.2987 80.3423 65.2267 78.7441 63.8614ZM78.0592 57.7174H21.8947C16.187 57.7174 10.4792 54.304 6.36962 48.5013C1.80342 42.016 -0.708008 33.1413 -0.708008 23.584C-0.708008 8.56534 5.91301 -4.74666 15.5021 -8.84266C20.0683 -29.664 33.082 -44 47.9222 -44C59.3377 -44 69.6117 -35.808 76.0044 -22.1547C76.9176 -22.1547 77.6026 -22.496 78.2875 -22.496C93.1277 -22.496 105 -4.40533 105 17.44C105 33.4827 98.6071 47.8187 88.7898 54.304C85.3651 56.6934 81.7121 57.7174 78.0592 57.7174ZM47.6939 -34.1013C35.1368 -34.1013 24.4062 -21.472 21.2098 -3.38133L20.7532 -0.309329L18.6984 0.373334C11.1642 2.42133 5.913 12.32 5.913 23.9253C5.913 30.4107 7.73949 36.896 10.9358 41.3334C13.9039 45.4294 17.7852 47.8187 21.8947 47.8187H78.0592C80.7989 47.8187 83.5386 47.136 86.0501 45.4293C93.356 40.6507 98.1505 29.728 98.1505 17.7813C98.1505 1.39734 89.2464 -12.256 78.0592 -12.256C76.9176 -12.256 75.7761 -12.256 74.6345 -11.9147L72.3514 -11.232L71.2099 -14.304C66.187 -26.592 57.5112 -34.1013 47.6939 -34.1013Z" fill="white" stroke="white" stroke-width="2.5"/>
<path d="M102.788 63.8614C101.19 62.496 99.1353 63.1787 98.222 65.568L84.0668 102.091C83.1535 104.48 83.6102 107.552 85.2083 108.917C85.6649 109.259 86.3499 109.6 86.8065 109.6C87.9481 109.6 89.0896 108.576 89.7745 107.211L103.93 70.688C104.843 68.2987 104.386 65.2267 102.788 63.8614ZM126.304 63.8614C124.706 62.496 122.651 63.1787 121.738 65.568L107.583 102.091C106.67 104.48 107.126 107.552 108.724 108.917C109.181 109.259 109.866 109.6 110.323 109.6C111.464 109.6 112.606 108.576 113.291 107.211L127.446 70.688C128.587 68.2987 127.902 65.2267 126.304 63.8614ZM151.418 63.8614C149.82 62.496 147.765 63.1787 146.852 65.568L132.697 102.091C131.784 104.48 132.24 107.552 133.839 108.917C134.295 109.259 134.98 109.6 135.437 109.6C136.578 109.6 137.72 108.576 138.405 107.211L152.56 70.688C153.473 68.2987 153.017 65.2267 151.418 63.8614ZM150.733 57.7174H94.5691C88.8613 57.7174 83.1535 54.304 79.0439 48.5013C74.4777 42.016 71.9663 33.1413 71.9663 23.584C71.9663 8.56534 78.5873 -4.74666 88.1764 -8.84266C92.7426 -29.664 105.756 -44 120.596 -44C132.012 -44 142.286 -35.808 148.679 -22.1547C149.592 -22.1547 150.277 -22.496 150.962 -22.496C165.802 -22.496 177.674 -4.40533 177.674 17.44C177.674 33.4827 171.281 47.8187 161.464 54.304C158.039 56.6934 154.386 57.7174 150.733 57.7174ZM120.368 -34.1013C107.811 -34.1013 97.0805 -21.472 93.8841 -3.38133L93.4275 -0.309329L91.3727 0.373334C83.8385 2.42133 78.5873 12.32 78.5873 23.9253C78.5873 30.4107 80.4138 36.896 83.6102 41.3334C86.5782 45.4294 90.4595 47.8187 94.5691 47.8187H150.733C153.473 47.8187 156.213 47.136 158.724 45.4293C166.03 40.6507 170.825 29.728 170.825 17.7813C170.825 1.39734 161.921 -12.256 150.733 -12.256C149.592 -12.256 148.45 -12.256 147.309 -11.9147L145.026 -11.232L143.884 -14.304C138.861 -26.592 130.186 -34.1013 120.368 -34.1013Z" fill="white" stroke="white" stroke-width="2.5"/>
</g>
<defs>
<clipPath id="clip0_621_391">
<rect width="98" height="56" fill="white" transform="translate(7 60)"/>
</clipPath>
</defs>
</svg>
