<svg width="120" height="120" viewBox="0 0 120 120" fill="none" xmlns="http://www.w3.org/2000/svg">
<g clip-path="url(#clip0_633_949)">
<path d="M15.6326 50H105.248C113.659 50 120 43.8383 120 35.6626C120 28.7415 115.502 23.2062 108.885 21.7261C107.218 14.3155 100.081 8.88509 91.6824 8.88509C89.1992 8.88509 86.7539 9.36537 84.5134 10.2856C80.2895 3.89525 72.8134 0 64.5423 0C51.6517 0 41.1599 9.61547 41.1599 21.4415C23.7676 16.56 12.6392 20.6933 7.83697 23.2391C3.03471 25.7842 0 30.5169 0 35.6626C0 43.5691 7.011 50 15.6326 50Z" fill="#1F4E5F"/>
<g clip-path="url(#clip1_633_949)">
<path d="M23.8476 58.9342C22.0978 57.1113 19.8481 58.0228 18.8482 61.2128L3.3503 109.974C2.35043 113.164 2.85036 117.266 4.60013 119.088C5.10006 119.544 5.84997 120 6.3499 120C7.59973 120 8.84957 118.633 9.59947 116.81L25.0974 68.0485C26.0973 64.8585 25.5973 60.7571 23.8476 58.9342ZM49.5942 58.9342C47.8444 57.1113 45.5947 58.0228 44.5948 61.2128L29.0969 109.974C28.097 113.164 28.597 117.266 30.3467 119.088C30.8467 119.544 31.5966 120 32.0965 120C33.3463 120 34.5962 118.633 35.3461 116.81L50.844 68.0485C52.0938 64.8585 51.3439 60.7571 49.5942 58.9342ZM77.0905 58.9342C75.3408 57.1113 73.0911 58.0228 72.0912 61.2128L56.5933 109.974C55.5934 113.164 56.0933 117.266 57.8431 119.088C58.343 119.544 59.0929 120 59.5929 120C60.8427 120 62.0925 118.633 62.8424 116.81L78.3404 68.0485C79.3402 64.8585 78.8403 60.7571 77.0905 58.9342ZM76.3406 50.7313H14.8488C8.59961 50.7313 2.35043 46.1742 -2.14897 38.427C-7.14831 29.7685 -9.89795 17.9199 -9.89795 5.1599C-9.89795 -14.8915 -2.6489 -32.6644 7.8497 -38.133C12.849 -65.9315 27.0972 -85.0715 43.345 -85.0715C55.8433 -85.0715 67.0919 -74.1344 74.0909 -55.9058C75.0908 -55.9058 75.8407 -56.3615 76.5906 -56.3615C92.8384 -56.3615 105.837 -32.2087 105.837 -3.04296C105.837 18.3756 98.8376 37.5156 88.0891 46.1742C84.3396 49.3642 80.3401 50.7313 76.3406 50.7313ZM43.095 -71.8558C29.3469 -71.8558 17.5984 -54.9944 14.0989 -30.8415L13.5989 -26.7401L11.3492 -25.8287C3.10034 -23.0944 -2.64891 -9.87867 -2.64891 5.61562C-2.64891 14.2742 -0.64917 22.9328 2.85036 28.8571C6.09993 34.3256 10.3494 37.5156 14.8488 37.5156H76.3406C79.3402 37.5156 82.3398 36.6042 85.0895 34.3256C93.0884 27.9456 98.3377 13.3628 98.3377 -2.58724C98.3377 -24.4615 88.589 -42.6901 76.3406 -42.6901C75.0908 -42.6901 73.841 -42.6901 72.5911 -42.2344L70.0915 -41.323L68.8416 -45.4244C63.3424 -61.8301 53.8436 -71.8558 43.095 -71.8558Z" fill="#1F4E5F" stroke="#1F4E5F" stroke-width="2.5"/>
<path d="M103.889 58.9342C102.139 57.1113 99.8891 58.0228 98.8893 61.2128L83.3913 109.974C82.3914 113.164 82.8914 117.266 84.6411 119.088C85.1411 119.544 85.891 120 86.3909 120C87.6407 120 88.8906 118.633 89.6405 116.81L105.138 68.0485C106.138 64.8585 105.638 60.7571 103.889 58.9342ZM129.635 58.9342C127.885 57.1113 125.636 58.0228 124.636 61.2128L109.138 109.974C108.138 113.164 108.638 117.266 110.388 119.088C110.888 119.544 111.638 120 112.138 120C113.387 120 114.637 118.633 115.387 116.81L130.885 68.0485C132.135 64.8585 131.385 60.7571 129.635 58.9342ZM157.132 58.9342C155.382 57.1113 153.132 58.0228 152.132 61.2128L136.634 109.974C135.634 113.164 136.134 117.266 137.884 119.088C138.384 119.544 139.134 120 139.634 120C140.884 120 142.134 118.633 142.883 116.81L158.381 68.0485C159.381 64.8585 158.881 60.7571 157.132 58.9342ZM156.382 50.7313H94.8898C88.6406 50.7313 82.3914 46.1742 77.892 38.427C72.8927 29.7685 70.1431 17.9199 70.1431 5.1599C70.1431 -14.8915 77.3921 -32.6644 87.8907 -38.133C92.89 -65.9315 107.138 -85.0715 123.386 -85.0715C135.884 -85.0715 147.133 -74.1344 154.132 -55.9058C155.132 -55.9058 155.882 -56.3615 156.632 -56.3615C172.879 -56.3615 185.878 -32.2087 185.878 -3.04296C185.878 18.3756 178.879 37.5156 168.13 46.1742C164.381 49.3642 160.381 50.7313 156.382 50.7313ZM123.136 -71.8558C109.388 -71.8558 97.6394 -54.9944 94.1399 -30.8415L93.64 -26.7401L91.3903 -25.8287C83.1414 -23.0944 77.3921 -9.87867 77.3921 5.61562C77.3921 14.2742 79.3918 22.9328 82.8914 28.8571C86.1409 34.3256 90.3904 37.5156 94.8898 37.5156H156.382C159.381 37.5156 162.381 36.6042 165.13 34.3256C173.129 27.9456 178.379 13.3628 178.379 -2.58724C178.379 -24.4615 168.63 -42.6901 156.382 -42.6901C155.132 -42.6901 153.882 -42.6901 152.632 -42.2344L150.132 -41.323L148.883 -45.4244C143.383 -61.8301 133.885 -71.8558 123.136 -71.8558Z" fill="#1F4E5F" stroke="#1F4E5F" stroke-width="2.5"/>
</g>
</g>
<defs>
<clipPath id="clip0_633_949">
<rect width="120" height="120" rx="16" fill="white"/>
</clipPath>
<clipPath id="clip1_633_949">
<rect width="106" height="66" fill="white" transform="translate(2 54)"/>
</clipPath>
</defs>
</svg>
