<svg width="120" height="120" viewBox="0 0 120 120" fill="none" xmlns="http://www.w3.org/2000/svg">
<g clip-path="url(#clip0_633_925)">
<path d="M15.6326 50H105.248C113.659 50 120 43.8383 120 35.6626C120 28.7415 115.502 23.2062 108.885 21.7261C107.218 14.3155 100.081 8.88509 91.6824 8.88509C89.1992 8.88509 86.7539 9.36537 84.5134 10.2856C80.2895 3.89525 72.8134 0 64.5423 0C51.6517 0 41.1599 9.61547 41.1599 21.4415C23.7676 16.56 12.6392 20.6933 7.83697 23.2391C3.03471 25.7842 0 30.5169 0 35.6626C0 43.5691 7.011 50 15.6326 50Z" fill="#85B6D2"/>
<g clip-path="url(#clip1_633_925)">
<path d="M118.505 -15.4514L109.191 -17.1344L106.157 -26.6009C102.908 -36.5803 96.8158 -45.2342 88.7289 -51.3591C80.642 -57.4839 70.962 -60.7753 61.0352 -60.7753C51.1085 -60.7753 41.4285 -57.4839 33.3416 -51.3591C25.2547 -45.2342 19.1629 -36.5803 15.9135 -26.6009L12.8797 -17.1344L3.57019 -15.4514C-2.94419 -14.2533 -8.7988 -10.498 -12.8357 -4.92812C-16.8727 0.641777 -18.798 7.62064 -18.2309 14.6282C-17.6638 21.6358 -14.6456 28.1619 -9.77323 32.9157C-4.90084 37.6695 1.47094 40.3049 8.08193 40.3007H114.023C120.658 40.3471 127.066 37.7319 131.969 32.9765C136.872 28.221 139.911 21.6745 140.481 14.6415C141.05 7.60852 139.107 0.605629 135.04 -4.97153C130.973 -10.5487 125.079 -14.2906 118.535 -15.4514H118.505ZM156.362 12.2148C156.353 18.1242 155.249 23.9737 153.115 29.4293C150.98 34.8849 147.857 39.8398 143.922 44.0111C139.988 48.1824 135.32 51.4883 130.184 53.7402C125.049 55.9921 119.547 57.1459 113.993 57.1356H8.04725C-2.56386 57.198 -12.8078 53.006 -20.6445 45.3944C-28.4813 37.7828 -33.3358 27.3101 -34.2414 16.0618C-35.147 4.81353 -32.0372 -6.38499 -25.5313 -15.3036C-19.0254 -24.2223 -9.60078 -30.2066 0.865753 -32.065C5.19711 -45.369 13.318 -56.9061 24.0987 -65.0716C34.8795 -73.2371 47.7842 -77.625 61.0179 -77.625C74.2516 -77.625 87.1563 -73.2371 97.937 -65.0716C108.718 -56.9061 116.839 -45.369 121.17 -32.065C131 -30.2859 139.922 -24.8677 146.361 -16.7678C152.8 -8.66782 156.341 1.59267 156.358 12.201L156.362 12.2148ZM29.4791 71.9324C30.0246 69.7989 31.3342 67.9778 33.1271 66.8596C34.9199 65.7415 37.0532 65.4153 39.0695 65.9509C41.0858 66.4866 42.8244 67.8416 43.9127 69.7252C45.001 71.6088 45.3521 73.8711 44.8909 76.027L36.9466 109.72C36.4363 111.895 35.1347 113.765 33.3283 114.919C31.5219 116.073 29.3585 116.416 27.3142 115.873C25.2699 115.33 23.5121 113.946 22.4274 112.024C21.3427 110.102 21.0201 107.8 21.5304 105.625L29.4791 71.9324ZM77.1535 71.9324C77.6991 69.7989 79.0087 67.9778 80.8015 66.8596C82.5944 65.7415 84.7276 65.4153 86.7439 65.9509C88.7602 66.4866 90.4989 67.8416 91.5872 69.7252C92.6754 71.6088 93.0266 73.8711 92.5653 76.027L84.6211 109.72C84.1107 111.895 82.8091 113.765 81.0027 114.919C79.1963 116.073 77.033 116.416 74.9887 115.873C72.9443 115.33 71.1865 113.946 70.1018 112.024C69.0172 110.102 68.6945 107.8 69.2049 105.625L77.1535 71.9324Z" fill="#85B6D2"/>
<path d="M118.505 -15.4514L109.191 -17.1344L106.157 -26.6009C102.908 -36.5803 96.8158 -45.2342 88.7289 -51.3591C80.642 -57.4839 70.962 -60.7753 61.0352 -60.7753C51.1085 -60.7753 41.4285 -57.4839 33.3416 -51.3591C25.2547 -45.2342 19.1629 -36.5803 15.9135 -26.6009L12.8797 -17.1344L3.57019 -15.4514C-2.94419 -14.2533 -8.7988 -10.498 -12.8357 -4.92812C-16.8727 0.641777 -18.798 7.62064 -18.2309 14.6282C-17.6638 21.6358 -14.6456 28.1619 -9.77323 32.9157C-4.90084 37.6695 1.47094 40.3049 8.08193 40.3007H114.023C120.658 40.3471 127.066 37.7319 131.969 32.9765C136.872 28.221 139.911 21.6745 140.481 14.6415C141.05 7.60852 139.107 0.605629 135.04 -4.97153C130.973 -10.5487 125.079 -14.2906 118.535 -15.4514H118.505ZM156.362 12.2148C156.353 18.1242 155.249 23.9737 153.115 29.4293C150.98 34.8849 147.857 39.8398 143.922 44.0111C139.988 48.1824 135.32 51.4883 130.184 53.7402C125.049 55.9921 119.547 57.1459 113.993 57.1356H8.04725C-2.56386 57.198 -12.8078 53.006 -20.6445 45.3944C-28.4813 37.7828 -33.3358 27.3101 -34.2414 16.0618C-35.147 4.81353 -32.0372 -6.38499 -25.5313 -15.3036C-19.0254 -24.2223 -9.60078 -30.2066 0.865753 -32.065C5.19711 -45.369 13.318 -56.9061 24.0987 -65.0716C34.8795 -73.2371 47.7842 -77.625 61.0179 -77.625C74.2516 -77.625 87.1563 -73.2371 97.937 -65.0716C108.718 -56.9061 116.839 -45.369 121.17 -32.065C131 -30.2859 139.922 -24.8677 146.361 -16.7678C152.8 -8.66782 156.341 1.59267 156.358 12.201L156.362 12.2148ZM29.4791 71.9324C30.0246 69.7989 31.3342 67.9778 33.1271 66.8596C34.9199 65.7415 37.0532 65.4153 39.0695 65.9509C41.0858 66.4866 42.8244 67.8416 43.9127 69.7252C45.001 71.6088 45.3521 73.8711 44.8909 76.027L36.9466 109.72C36.4363 111.895 35.1347 113.765 33.3283 114.919C31.5219 116.073 29.3585 116.416 27.3142 115.873C25.2699 115.33 23.5121 113.946 22.4274 112.024C21.3427 110.102 21.0201 107.8 21.5304 105.625L29.4791 71.9324ZM77.1535 71.9324C77.6991 69.7989 79.0087 67.9778 80.8015 66.8596C82.5944 65.7415 84.7276 65.4153 86.7439 65.9509C88.7602 66.4866 90.4989 67.8416 91.5872 69.7252C92.6754 71.6088 93.0266 73.8711 92.5653 76.027L84.6211 109.72C84.1107 111.895 82.8091 113.765 81.0027 114.919C79.1963 116.073 77.033 116.416 74.9887 115.873C72.9443 115.33 71.1865 113.946 70.1018 112.024C69.0172 110.102 68.6945 107.8 69.2049 105.625L77.1535 71.9324Z" stroke="#85B6D2"/>
</g>
</g>
<defs>
<clipPath id="clip0_633_925">
<rect width="120" height="120" rx="16" fill="white"/>
</clipPath>
<clipPath id="clip1_633_925">
<rect width="82" height="62" fill="white" transform="translate(19 58)"/>
</clipPath>
</defs>
</svg>