<svg width="120" height="120" viewBox="0 0 120 120" fill="none" xmlns="http://www.w3.org/2000/svg">
<rect width="120" height="120" rx="16" fill="#A0C4FF"/>
<path d="M25.8547 54H93.8132C100.191 54 105 48.8241 105 41.9566C105 36.1428 101.589 31.4932 96.5714 30.2499C95.3071 24.025 89.8945 19.4635 83.5258 19.4635C81.6427 19.4635 79.7884 19.8669 78.0893 20.6399C74.8862 15.272 69.2168 12 62.9445 12C53.1692 12 45.2129 20.077 45.2129 30.0108C32.0238 25.9104 23.5847 29.3824 19.943 31.5208C16.3013 33.6587 14 37.6342 14 41.9566C14 48.5981 19.3167 54 25.8547 54Z" fill="white"/>
<path d="M25.8547 54H93.8132C100.191 54 105 48.8241 105 41.9566C105 36.1428 101.589 31.4932 96.5714 30.2499C95.3071 24.025 89.8945 19.4635 83.5258 19.4635C81.6427 19.4635 79.7884 19.8669 78.0893 20.6399C74.8862 15.272 69.2168 12 62.9445 12C53.1692 12 45.2129 20.077 45.2129 30.0108C32.0238 25.9104 23.5847 29.3824 19.943 31.5208C16.3013 33.6587 14 37.6342 14 41.9566C14 48.5981 19.3167 54 25.8547 54Z" fill="white"/>
<g clip-path="url(#clip0_622_643)">
<path d="M103.022 -1.60441L96.0932 -3.01598L93.8363 -10.9556C91.4191 -19.3254 86.8874 -26.5835 80.8716 -31.7205C74.8557 -36.8575 67.6547 -39.618 60.2702 -39.618C52.8857 -39.618 45.6847 -36.8575 39.6688 -31.7205C33.653 -26.5835 29.1213 -19.3254 26.7041 -10.9556L24.4472 -3.01598L17.5218 -1.60441C12.6758 -0.599583 8.32051 2.55005 5.31741 7.22158C2.31432 11.8931 0.882071 17.7463 1.30393 23.6237C1.72579 29.501 3.97104 34.9745 7.59562 38.9615C11.2202 42.9486 15.9602 45.1589 20.8781 45.1554H99.6881C104.624 45.1943 109.39 43.001 113.038 39.0125C116.686 35.0241 118.946 29.5334 119.37 23.6348C119.793 17.7362 118.348 11.8628 115.322 7.18516C112.297 2.50754 107.913 -0.63081 103.044 -1.60441H103.022ZM131.184 21.5995C131.177 26.5558 130.356 31.4618 128.768 36.0375C127.18 40.6131 124.857 44.7689 121.93 48.2673C119.003 51.7658 115.531 54.5386 111.71 56.4273C107.89 58.316 103.797 59.2836 99.6655 59.275H20.8523C12.9587 59.3274 5.33821 55.8115 -0.49157 49.4276C-6.32134 43.0437 -9.93265 34.2601 -10.6063 24.826C-11.28 15.392 -8.96661 5.99969 -4.12686 -1.48046C0.712902 -8.96061 7.72391 -13.9798 15.51 -15.5384C18.7321 -26.6966 24.7732 -36.3728 32.7931 -43.2213C40.8129 -50.0698 50.4127 -53.75 60.2573 -53.75C70.1019 -53.75 79.7017 -50.0698 87.7215 -43.2213C95.7414 -36.3728 101.783 -26.6966 105.005 -15.5384C112.317 -14.0462 118.955 -9.50198 123.744 -2.70847C128.534 4.08505 131.168 12.6906 131.181 21.5879L131.184 21.5995ZM36.7955 71.6852C37.2013 69.8959 38.1756 68.3685 39.5093 67.4307C40.843 66.4929 42.4299 66.2192 43.9298 66.6685C45.4297 67.1178 46.7232 68.2542 47.5327 69.834C48.3423 71.4138 48.6035 73.3113 48.2604 75.1194L42.3506 103.378C41.971 105.202 41.0028 106.771 39.659 107.739C38.3151 108.706 36.7058 108.994 35.1851 108.539C33.6643 108.083 32.3566 106.922 31.5498 105.31C30.7429 103.698 30.5028 101.768 30.8825 99.9438L36.7955 71.6852ZM72.2606 71.6852C72.6665 69.8959 73.6407 68.3685 74.9744 67.4307C76.3081 66.4929 77.8951 66.2192 79.395 66.6685C80.8949 67.1178 82.1883 68.2542 82.9979 69.834C83.8074 71.4138 84.0686 73.3113 83.7255 75.1194L77.8158 103.378C77.4361 105.202 76.4679 106.771 75.1241 107.739C73.7803 108.706 72.171 108.994 70.6502 108.539C69.1294 108.083 67.8218 106.922 67.0149 105.31C66.208 103.698 65.968 101.768 66.3476 99.9438L72.2606 71.6852Z" fill="white"/>
<path d="M103.022 -1.60441L96.0932 -3.01598L93.8363 -10.9556C91.4191 -19.3254 86.8874 -26.5835 80.8716 -31.7205C74.8557 -36.8575 67.6547 -39.618 60.2702 -39.618C52.8857 -39.618 45.6847 -36.8575 39.6688 -31.7205C33.653 -26.5835 29.1213 -19.3254 26.7041 -10.9556L24.4472 -3.01598L17.5218 -1.60441C12.6758 -0.599583 8.32051 2.55005 5.31741 7.22158C2.31432 11.8931 0.882071 17.7463 1.30393 23.6237C1.72579 29.501 3.97104 34.9745 7.59562 38.9615C11.2202 42.9486 15.9602 45.1589 20.8781 45.1554H99.6881C104.624 45.1943 109.39 43.001 113.038 39.0125C116.686 35.0241 118.946 29.5334 119.37 23.6348C119.793 17.7362 118.348 11.8628 115.322 7.18516C112.297 2.50754 107.913 -0.63081 103.044 -1.60441H103.022ZM131.184 21.5995C131.177 26.5558 130.356 31.4618 128.768 36.0375C127.18 40.6131 124.857 44.7689 121.93 48.2673C119.003 51.7658 115.531 54.5386 111.71 56.4273C107.89 58.316 103.797 59.2836 99.6655 59.275H20.8523C12.9587 59.3274 5.33821 55.8115 -0.49157 49.4276C-6.32134 43.0437 -9.93265 34.2601 -10.6063 24.826C-11.28 15.392 -8.96661 5.99969 -4.12686 -1.48046C0.712902 -8.96061 7.72391 -13.9798 15.51 -15.5384C18.7321 -26.6966 24.7732 -36.3728 32.7931 -43.2213C40.8129 -50.0698 50.4127 -53.75 60.2573 -53.75C70.1019 -53.75 79.7017 -50.0698 87.7215 -43.2213C95.7414 -36.3728 101.783 -26.6966 105.005 -15.5384C112.317 -14.0462 118.955 -9.50198 123.744 -2.70847C128.534 4.08505 131.168 12.6906 131.181 21.5879L131.184 21.5995ZM36.7955 71.6852C37.2013 69.8959 38.1756 68.3685 39.5093 67.4307C40.843 66.4929 42.4299 66.2192 43.9298 66.6685C45.4297 67.1178 46.7232 68.2542 47.5327 69.834C48.3423 71.4138 48.6035 73.3113 48.2604 75.1194L42.3506 103.378C41.971 105.202 41.0028 106.771 39.659 107.739C38.3151 108.706 36.7058 108.994 35.1851 108.539C33.6643 108.083 32.3566 106.922 31.5498 105.31C30.7429 103.698 30.5028 101.768 30.8825 99.9438L36.7955 71.6852ZM72.2606 71.6852C72.6665 69.8959 73.6407 68.3685 74.9744 67.4307C76.3081 66.4929 77.8951 66.2192 79.395 66.6685C80.8949 67.1178 82.1883 68.2542 82.9979 69.834C83.8074 71.4138 84.0686 73.3113 83.7255 75.1194L77.8158 103.378C77.4361 105.202 76.4679 106.771 75.1241 107.739C73.7803 108.706 72.171 108.994 70.6502 108.539C69.1294 108.083 67.8218 106.922 67.0149 105.31C66.208 103.698 65.968 101.768 66.3476 99.9438L72.2606 71.6852Z" stroke="white"/>
</g>
<defs>
<clipPath id="clip0_622_643">
<rect width="61" height="52" fill="white" transform="translate(29 60)"/>
</clipPath>
</defs>
</svg>
