<svg width="120" height="120" viewBox="0 0 120 120" fill="none" xmlns="http://www.w3.org/2000/svg">
<g clip-path="url(#clip0_622_654)">
<rect width="120" height="120" rx="16" fill="#5A8FD8"/>
<path d="M25.8547 54H93.8132C100.191 54 105 48.8241 105 41.9566C105 36.1428 101.589 31.4932 96.5714 30.2499C95.3071 24.025 89.8945 19.4635 83.5258 19.4635C81.6427 19.4635 79.7884 19.8669 78.0893 20.6399C74.8862 15.272 69.2168 12 62.9445 12C53.1692 12 45.2129 20.077 45.2129 30.0108C32.0238 25.9104 23.5847 29.3824 19.943 31.5208C16.3013 33.6587 14 37.6342 14 41.9566C14 48.5981 19.3167 54 25.8547 54Z" fill="white"/>
<path d="M25.8547 54H93.8132C100.191 54 105 48.8241 105 41.9566C105 36.1428 101.589 31.4932 96.5714 30.2499C95.3071 24.025 89.8945 19.4635 83.5258 19.4635C81.6427 19.4635 79.7884 19.8669 78.0893 20.6399C74.8862 15.272 69.2168 12 62.9445 12C53.1692 12 45.2129 20.077 45.2129 30.0108C32.0238 25.9104 23.5847 29.3824 19.943 31.5208C16.3013 33.6587 14 37.6342 14 41.9566C14 48.5981 19.3167 54 25.8547 54Z" fill="white"/>
<g clip-path="url(#clip1_622_654)">
<path d="M37.9365 65.0109C36.8662 63.4662 35.47 64.1969 34.7885 66.619L26.8574 95.3407C26.1807 97.7839 26.4929 101.042 27.5576 102.585C27.9366 103.121 28.3568 103.4 28.7721 103.4C29.5295 103.4 30.2716 102.519 30.7154 100.978L38.6459 72.2548C39.3189 69.8121 39.0053 66.5748 37.9365 65.0109Z" fill="white" stroke="white" stroke-width="3"/>
<path d="M62.9397 65.0109C61.8749 63.4662 60.4727 64.1969 59.7913 66.619L51.8597 95.3407C51.1782 97.7839 51.4952 101.042 52.5559 102.585C52.9385 103.121 53.3593 103.4 53.7747 103.4C54.5364 103.4 55.27 102.519 55.7092 100.978L63.6406 72.2548C64.3222 69.8121 64.0045 66.5748 62.9397 65.0109Z" fill="white" stroke="white" stroke-width="3"/>
<path d="M87.9404 65.0109C86.8707 63.4662 85.4613 64.1969 84.7844 66.619L76.8544 95.3407C76.1817 97.7839 76.495 101.042 77.5541 102.585C77.9413 103.121 78.3661 103.4 78.7861 103.4C79.5332 103.4 80.2804 102.519 80.7093 100.978L88.6451 72.2548C89.3221 69.8121 88.9996 66.5748 87.9404 65.0109Z" fill="white" stroke="white" stroke-width="3"/>
<path d="M39.175 64.1645L39.175 64.1645L39.1695 64.1565C38.7945 63.6154 38.288 63.1206 37.6213 62.8675C36.9076 62.5966 36.169 62.665 35.5303 62.9937C34.3905 63.5803 33.7169 64.8894 33.3446 66.2127L33.3446 66.2127L33.3426 66.2198L25.4118 94.9404C25.4117 94.9406 25.4117 94.9409 25.4116 94.9411C25.4116 94.9412 25.4115 94.9414 25.4115 94.9415C25.0171 96.3662 24.9201 97.9786 25.0614 99.4445C25.1996 100.878 25.585 102.368 26.323 103.437L26.328 103.444L26.3331 103.451C26.8319 104.157 27.6453 104.9 28.7721 104.9C29.7708 104.9 30.5314 104.321 31.0251 103.713C31.5278 103.095 31.8996 102.287 32.1568 101.393L32.1591 101.385L32.1613 101.378L40.0918 72.654L40.0921 72.6532C40.4844 71.2292 40.5802 69.6219 40.4373 68.1576C40.2973 66.7233 39.9097 65.2396 39.175 64.1645Z" fill="white" stroke="white" stroke-width="3"/>
<path d="M64.1796 64.1667L64.1796 64.1667L64.1747 64.1595C63.8007 63.6171 63.2945 63.1212 62.627 62.8677C61.913 62.5964 61.1744 62.6652 60.536 62.9933C59.3957 63.5794 58.7201 64.8876 58.3473 66.2128L58.3473 66.2128L58.3454 66.2197L50.4148 94.9378C50.4146 94.9384 50.4145 94.939 50.4143 94.9396C50.0168 96.3658 49.92 97.979 50.0614 99.4446C50.1998 100.879 50.5854 102.367 51.3198 103.435L51.3274 103.446L51.3352 103.457C51.8358 104.158 52.6491 104.9 53.7747 104.9C54.7756 104.9 55.5361 104.321 56.0296 103.71C56.5303 103.09 56.8978 102.281 57.1518 101.389L57.1518 101.389L57.1551 101.378L65.0854 72.658C65.0856 72.6574 65.0857 72.6568 65.0859 72.6562C65.4835 71.2304 65.5803 69.6222 65.438 68.1582C65.2986 66.7231 64.9109 65.2407 64.1796 64.1667Z" fill="white" stroke="white" stroke-width="3"/>
<path d="M89.1824 64.1697L89.178 64.1633L89.1736 64.1569C88.7976 63.614 88.2896 63.1195 87.6218 62.8669C86.9083 62.597 86.1701 62.6651 85.5312 62.9924C84.3875 63.5783 83.7108 64.8875 83.3398 66.2153L83.3385 66.2198L75.4085 94.9415L75.4082 94.9425C75.016 96.367 74.9204 97.9792 75.0618 99.4446C75.2 100.878 75.5839 102.365 76.3174 103.434L76.3277 103.449L76.3384 103.464C76.846 104.166 77.6628 104.9 78.7861 104.9C79.7839 104.9 80.5436 104.316 81.0334 103.71C81.5346 103.09 81.9042 102.279 82.1544 101.38L82.1551 101.378L90.0906 72.6555C90.4859 71.2292 90.5801 69.6207 90.4367 68.157C90.2961 66.7226 89.9088 65.2423 89.1824 64.1697Z" fill="white" stroke="white" stroke-width="3"/>
</g>
</g>
<defs>
<clipPath id="clip0_622_654">
<rect width="120" height="120" rx="16" fill="white"/>
</clipPath>
<clipPath id="clip1_622_654">
<rect width="130" height="63" fill="white" transform="translate(19 46)"/>
</clipPath>
</defs>
</svg>
