<svg width="120" height="120" viewBox="0 0 120 120" fill="none" xmlns="http://www.w3.org/2000/svg">
<g clip-path="url(#clip0_633_931)">
<path d="M15.6326 50H105.248C113.659 50 120 43.8383 120 35.6626C120 28.7415 115.502 23.2062 108.885 21.7261C107.218 14.3155 100.081 8.88509 91.6824 8.88509C89.1992 8.88509 86.7539 9.36537 84.5134 10.2856C80.2895 3.89525 72.8134 0 64.5423 0C51.6517 0 41.1599 9.61547 41.1599 21.4415C23.7676 16.56 12.6392 20.6933 7.83697 23.2391C3.03471 25.7842 0 30.5169 0 35.6626C0 43.5691 7.011 50 15.6326 50Z" fill="#4682A9"/>
<g clip-path="url(#clip1_633_931)">
<path d="M24.9087 65.5374C23.5008 63.6251 21.6643 64.5297 20.7678 67.5285L10.3353 103.089C9.44523 106.114 9.85594 110.148 11.2564 112.058C11.755 112.721 12.3077 113.067 12.854 113.067C13.8501 113.067 14.8264 111.977 15.4101 110.069L25.8418 74.5062C26.727 71.4819 26.3146 67.4737 24.9087 65.5374Z" fill="#4682A9" stroke="#4682A9" stroke-width="3"/>
<path d="M57.7976 65.5374C56.397 63.6251 54.5526 64.5297 53.6562 67.5285L43.2231 103.089C42.3268 106.114 42.7437 110.148 44.1389 112.058C44.6422 112.721 45.1957 113.067 45.7421 113.067C46.744 113.067 47.7091 111.977 48.2867 110.069L58.7196 74.5062C59.6162 71.4819 59.1982 67.4737 57.7976 65.5374Z" fill="#4682A9" stroke="#4682A9" stroke-width="3"/>
<path d="M90.6833 65.5374C89.2762 63.6251 87.4223 64.5297 86.532 67.5285L76.1009 103.089C75.216 106.114 75.6282 110.148 77.0213 112.058C77.5306 112.721 78.0894 113.067 78.6418 113.067C79.6246 113.067 80.6074 111.977 81.1716 110.069L91.6103 74.5062C92.5008 71.4819 92.0766 67.4737 90.6833 65.5374Z" fill="#4682A9" stroke="#4682A9" stroke-width="3"/>
<path d="M26.1225 64.6561L26.1225 64.6561L26.1166 64.6482C25.6474 64.0108 25.046 63.4746 24.2985 63.2075C23.5148 62.9275 22.7082 62.9946 21.9925 63.3413C20.6728 63.9806 19.8194 65.4641 19.3307 67.0988L19.3306 67.0988L19.3285 67.1062L8.89632 102.665C8.89625 102.666 8.89617 102.666 8.8961 102.666C8.89606 102.666 8.89602 102.666 8.89598 102.666C8.38822 104.393 8.26155 106.356 8.44471 108.144C8.62473 109.902 9.12486 111.687 10.0467 112.945L10.052 112.952L10.0573 112.959C10.6935 113.806 11.6372 114.567 12.854 114.567C13.9346 114.567 14.8077 113.975 15.4217 113.264C16.0399 112.548 16.5126 111.592 16.8444 110.507L16.847 110.499L16.8494 110.491L27.2812 74.9284L27.2814 74.9275C27.7864 73.202 27.9116 71.2453 27.7264 69.4591C27.5442 67.7016 27.0413 65.9217 26.1225 64.6561Z" fill="#4682A9" stroke="#4682A9" stroke-width="3"/>
<path d="M59.013 64.6583L59.013 64.6583L59.0077 64.6511C58.5399 64.0124 57.9388 63.4751 57.1907 63.2076C56.4068 62.9273 55.6 62.9949 54.8846 63.341C53.5643 63.9797 52.7082 65.4623 52.219 67.0989L52.219 67.0989L52.2169 67.1062L41.7849 102.663C41.7847 102.663 41.7845 102.664 41.7843 102.665C41.2727 104.392 41.1462 106.356 41.3295 108.144C41.5097 109.902 42.01 111.686 42.9276 112.943L42.9357 112.954L42.9439 112.965C43.5828 113.807 44.5264 114.567 45.7421 114.567C46.8255 114.567 47.6984 113.975 48.3117 113.26C48.9272 112.543 49.3946 111.586 49.7224 110.503L49.7224 110.503L49.726 110.491L60.1577 74.9325C60.1579 74.9318 60.1581 74.9311 60.1583 74.9303C60.67 73.2031 60.7965 71.2455 60.6121 69.4597C60.4306 67.7015 59.9277 65.9229 59.013 64.6583Z" fill="#4682A9" stroke="#4682A9" stroke-width="3"/>
<path d="M91.9008 64.6613L91.8962 64.6549L91.8915 64.6485C91.4213 64.0094 90.8181 63.4735 90.0693 63.2069C89.2854 62.9279 88.4786 62.9948 87.7623 63.3401C86.4383 63.9786 85.5808 65.462 85.094 67.1016L85.0926 67.1063L74.6616 102.667L74.6613 102.668C74.1563 104.394 74.0315 106.356 74.2147 108.144C74.3947 109.901 74.893 111.685 75.8093 112.942L75.8203 112.957L75.8316 112.972C76.4787 113.814 77.4267 114.567 78.6418 114.567C79.7198 114.567 80.5917 113.97 81.2014 113.261C81.8176 112.543 82.2875 111.585 82.61 110.494L82.6109 110.491L93.0492 74.9299C93.5579 73.2021 93.6811 71.244 93.4951 69.4584C93.3122 67.7011 92.8097 65.9245 91.9008 64.6613Z" fill="#4682A9" stroke="#4682A9" stroke-width="3"/>
</g>
</g>
<defs>
<clipPath id="clip0_633_931">
<rect width="120" height="120" rx="16" fill="white"/>
</clipPath>
<clipPath id="clip1_633_931">
<rect width="171" height="78" fill="white" transform="translate(0 42)"/>
</clipPath>
</defs>
</svg>
