<svg width="100" height="100" viewBox="0 0 100 100" fill="none" xmlns="http://www.w3.org/2000/svg">
<path d="M50.9855 96.9954C43.1793 96.9954 35.9051 93.9824 30.4978 88.5084C25.018 82.9608 22 75.357 22 67.0954C22 53.5576 28.3262 43.87 35.0249 33.6166C40.2 25.6908 45.554 17.4982 48.6494 6.6928C48.9348 5.69 49.8924 5 50.9807 5C52.0689 5 53.0265 5.6946 53.3119 6.6928C56.4121 17.5028 61.771 25.7 66.9558 33.6258C73.6641 43.8792 80 53.5668 80 67.1C80 75.3754 77.0013 82.9792 71.5554 88.5084C66.1626 93.9824 58.8546 97 50.9807 97L50.9855 96.9954ZM50.9855 14.7152C47.7256 22.8848 43.3727 29.5502 39.1359 36.0408C32.5389 46.1424 26.8366 54.8686 26.8366 67.0954C26.8366 81.521 37.2206 92.3954 50.9855 92.3954C64.7697 92.3954 75.1683 81.521 75.1683 67.0954C75.1683 54.8732 69.4611 46.1516 62.8544 36.05C58.6079 29.5594 54.2453 22.8894 50.9855 14.7152Z" fill="#85B6D2" stroke="#85B6D2" stroke-width="5"/>
</svg>
