<svg width="120" height="120" viewBox="0 0 120 120" fill="none" xmlns="http://www.w3.org/2000/svg">
<rect width="120" height="120" rx="16" fill="#1A3A5E"/>
<path d="M18.0071 73.8513C17.8314 74.3145 17.5836 74.7305 17.2778 75.0754C16.972 75.4203 16.6142 75.6873 16.2249 75.8614C15.8356 76.0354 15.4223 76.1129 15.0088 76.0896C14.5952 76.0663 14.1894 75.9425 13.8145 75.7253C13.4397 75.5082 13.1031 75.2019 12.824 74.824C12.5449 74.4461 12.3288 74.004 12.188 73.5229C12.0472 73.0417 11.9844 72.5311 12.0033 72.02C12.0222 71.5089 12.1223 71.0074 12.298 70.5441C13.0206 68.5929 18.6583 62.7613 18.6583 62.7613C18.6583 62.7613 18.7386 71.9001 18.0071 73.8513ZM89.0764 79.3522C88.7215 80.2892 88.0799 81.0137 87.2928 81.3662C86.5057 81.7187 85.6375 81.6703 84.8793 81.2317C84.121 80.7932 83.5348 80.0004 83.2496 79.0277C82.9643 78.055 83.0035 76.9821 83.3583 76.045C84.0809 74.0938 89.7186 68.2622 89.7186 68.2622C89.7186 68.2622 89.8257 77.401 89.0764 79.3522ZM22.512 101.455C22.0438 101.454 21.5836 101.306 21.174 101.026C20.7645 100.746 20.419 100.342 20.1697 99.8524C19.9204 99.3628 19.7754 98.8031 19.7482 98.2256C19.721 97.6481 19.8125 97.0714 20.0142 96.5494L52.1279 13.9367C52.4461 13.1195 53.0139 12.492 53.7065 12.1922C54.3991 11.8924 55.1597 11.945 55.8209 12.3382C56.4822 12.7314 56.9899 13.4332 57.2325 14.2891C57.4751 15.145 57.4326 16.0849 57.1144 16.9021L25.0008 99.5148C24.7741 100.093 24.4207 100.582 23.9808 100.925C23.5409 101.268 23.0321 101.451 22.512 101.455ZM59.7013 107C59.287 107 58.8782 106.883 58.506 106.658C58.1776 106.465 57.8834 106.193 57.6405 105.859C57.3975 105.524 57.2105 105.133 57.0902 104.709C56.97 104.285 56.9189 103.835 56.9399 103.387C56.9609 102.938 57.0535 102.499 57.2125 102.094L89.3529 19.5147C89.6923 18.7408 90.2596 18.1579 90.9373 17.8867C91.615 17.6155 92.3511 17.6769 92.9932 18.058C93.6353 18.4392 94.1341 19.1109 94.3864 19.9342C94.6387 20.7574 94.625 21.669 94.3483 22.4801L62.1723 105.06C61.9486 105.637 61.5984 106.124 61.1616 106.467C60.7248 106.81 60.2188 106.995 59.7013 107ZM48.2475 90.2878C47.8332 90.2879 47.4243 90.171 47.0521 89.9461C46.7237 89.7527 46.4296 89.4809 46.1866 89.1464C45.9436 88.8119 45.7566 88.4213 45.6364 87.997C45.5162 87.5728 45.4651 87.1233 45.486 86.6745C45.507 86.2257 45.5997 85.7865 45.7587 85.3822L64.9198 36.1387C65.0773 35.7341 65.2978 35.3718 65.5687 35.0724C65.8396 34.7731 66.1555 34.5427 66.4984 34.3942C66.8414 34.2458 67.2046 34.1823 67.5674 34.2074C67.9302 34.2324 68.2854 34.3455 68.6128 34.5402C68.9403 34.7349 69.2334 35.0074 69.4756 35.3422C69.7178 35.6769 69.9043 36.0673 70.0244 36.4911C70.1445 36.9149 70.1959 37.3638 70.1757 37.8121C70.1554 38.2605 70.0639 38.6995 69.9063 39.1041L50.7452 88.3476C50.5195 88.9294 50.1652 89.4204 49.7232 89.7637C49.2812 90.1071 48.7695 90.2888 48.2475 90.2878ZM20.9776 60.303C20.6294 60.3026 20.2855 60.2085 19.9696 60.0274C19.4156 59.6945 18.991 59.1038 18.7887 58.3848C18.5864 57.6657 18.6229 56.8769 18.8903 56.1911L31.5127 23.7369C31.6445 23.3974 31.8291 23.0933 32.056 22.842C32.2829 22.5907 32.5476 22.397 32.835 22.2722C33.1224 22.1473 33.427 22.0936 33.7312 22.1141C34.0354 22.1347 34.3334 22.2291 34.6081 22.3919C34.8828 22.5548 35.1289 22.7829 35.3322 23.0633C35.5356 23.3437 35.6923 23.6708 35.7933 24.026C35.8944 24.3813 35.9378 24.7576 35.9212 25.1335C35.9046 25.5095 35.8282 25.8777 35.6964 26.2172L23.074 58.6604C22.8855 59.1507 22.5886 59.5651 22.2177 59.8557C21.8468 60.1464 21.4169 60.3014 20.9776 60.303ZM92.0379 64.7125C91.6464 64.7093 91.2618 64.584 90.9198 64.3484C90.5777 64.1127 90.2893 63.7743 90.0812 63.3644C89.8731 62.9545 89.7521 62.4863 89.7292 62.0032C89.7064 61.5201 89.7825 61.0377 89.9506 60.6006L102.573 28.1574C102.704 27.8165 102.888 27.5108 103.115 27.2579C103.342 27.005 103.607 26.8097 103.895 26.6833C104.183 26.5569 104.488 26.5018 104.793 26.5211C105.098 26.5404 105.397 26.6338 105.673 26.796C105.949 26.9581 106.196 27.1858 106.401 27.4661C106.605 27.7463 106.763 28.0737 106.866 28.4294C106.968 28.7851 107.013 29.1623 106.997 29.5393C106.981 29.9163 106.906 30.2858 106.775 30.6268L94.1342 63.0589C93.9462 63.5504 93.6497 63.9664 93.2788 64.2589C92.908 64.5514 92.4779 64.7087 92.0379 64.7125Z" fill="white" stroke="white" stroke-width="4"/>
</svg>
