<svg width="120" height="120" viewBox="0 0 120 120" fill="none" xmlns="http://www.w3.org/2000/svg">
<path d="M9.33503 76.8726C9.12047 77.4334 8.81786 77.9369 8.44446 78.3544C8.07107 78.7719 7.63421 79.0952 7.15883 79.3059C6.68345 79.5165 6.17886 79.6104 5.67386 79.5822C5.16887 79.5539 4.67336 79.4041 4.21563 79.1412C3.7579 78.8783 3.34692 78.5076 3.00614 78.0501C2.66536 77.5927 2.40147 77.0575 2.22952 76.475C2.05757 75.8926 1.98095 75.2744 2.00401 74.6557C2.02707 74.0371 2.14937 73.43 2.36393 72.8692C3.24621 70.5072 10.1302 63.4479 10.1302 63.4479C10.1302 63.4479 10.2282 74.5106 9.33503 76.8726ZM96.1143 83.5316C95.681 84.6659 94.8976 85.5429 93.9365 85.9696C92.9754 86.3963 91.9153 86.3377 90.9894 85.8069C90.0636 85.276 89.3478 84.3162 88.9995 83.1388C88.6512 81.9613 88.699 80.6625 89.1323 79.5282C90.0146 77.1662 96.8985 70.1069 96.8985 70.1069C96.8985 70.1069 97.0292 81.1696 96.1143 83.5316ZM14.8357 110.288C14.2641 110.286 13.7021 110.108 13.202 109.768C12.7019 109.429 12.28 108.94 11.9756 108.348C11.6712 107.755 11.4941 107.077 11.4609 106.378C11.4278 105.679 11.5395 104.981 11.7858 104.349L50.9982 4.34437C51.3868 3.35516 52.0802 2.59556 52.9258 2.23268C53.7715 1.8698 54.7002 1.93337 55.5077 2.40939C56.3151 2.88542 56.9351 3.73491 57.2313 4.77099C57.5275 5.80707 57.4756 6.94487 57.087 7.93408L17.8746 107.939C17.5978 108.639 17.1664 109.23 16.6292 109.646C16.0921 110.061 15.4707 110.283 14.8357 110.288ZM60.2458 117C59.7399 117 59.2407 116.859 58.7863 116.586C58.3853 116.352 58.0261 116.023 57.7294 115.618C57.4327 115.213 57.2044 114.74 57.0576 114.227C56.9108 113.713 56.8484 113.169 56.874 112.626C56.8996 112.083 57.0127 111.551 57.2069 111.062L96.452 11.0968C96.8664 10.1599 97.5591 9.45427 98.3866 9.126C99.2141 8.79773 100.113 8.87198 100.897 9.33338C101.681 9.79478 102.29 10.608 102.598 11.6045C102.906 12.601 102.89 13.7046 102.552 14.6865L63.263 114.651C62.9899 115.35 62.5623 115.94 62.0289 116.355C61.4955 116.77 60.8777 116.994 60.2458 117ZM46.2601 96.7695C45.7542 96.7695 45.255 96.6281 44.8005 96.3558C44.3995 96.1217 44.0403 95.7927 43.7437 95.3878C43.447 94.9828 43.2186 94.5099 43.0718 93.9964C42.925 93.4828 42.8626 92.9387 42.8882 92.3955C42.9138 91.8522 43.027 91.3206 43.2211 90.8311L66.6178 31.2205C66.8102 30.7307 67.0795 30.2921 67.4102 29.9298C67.741 29.5675 68.1267 29.2885 68.5454 29.1088C68.9642 28.9291 69.4077 28.8523 69.8507 28.8826C70.2937 28.9129 70.7275 29.0498 71.1273 29.2855C71.5271 29.5212 71.885 29.8511 72.1808 30.2563C72.4765 30.6615 72.7042 31.1341 72.8509 31.6471C72.9976 32.1602 73.0603 32.7035 73.0355 33.2463C73.0108 33.789 72.899 34.3204 72.7067 34.8102L49.3099 94.4208C49.0344 95.1251 48.6017 95.7194 48.062 96.1351C47.5223 96.5507 46.8975 96.7706 46.2601 96.7695ZM12.9622 60.472C12.537 60.4715 12.117 60.3577 11.7313 60.1384C11.0549 59.7354 10.5364 59.0204 10.2893 58.15C10.0423 57.2796 10.0869 56.3247 10.4134 55.4945L25.826 16.2078C25.987 15.7968 26.2124 15.4287 26.4894 15.1245C26.7664 14.8203 27.0897 14.5859 27.4406 14.4347C27.7916 14.2835 28.1634 14.2185 28.5349 14.2434C28.9064 14.2683 29.2702 14.3826 29.6057 14.5797C29.9411 14.7769 30.2416 15.053 30.4899 15.3924C30.7382 15.7318 30.9295 16.1279 31.0529 16.5578C31.1763 16.9878 31.2293 17.4434 31.209 17.8985C31.1887 18.3536 31.0955 18.7994 30.9345 19.2103L15.5219 58.4837C15.2917 59.0771 14.9293 59.5788 14.4763 59.9306C14.0234 60.2824 13.4985 60.4701 12.9622 60.472ZM99.7305 65.8099C99.2524 65.806 98.7828 65.6544 98.3652 65.3691C97.9476 65.0839 97.5954 64.6742 97.3413 64.1779C97.0872 63.6817 96.9394 63.115 96.9115 62.5302C96.8836 61.9454 96.9766 61.3614 97.1817 60.8323L112.594 21.559C112.755 21.1463 112.98 20.7763 113.257 20.4701C113.533 20.1639 113.857 19.9276 114.208 19.7745C114.56 19.6215 114.932 19.5548 115.305 19.5782C115.678 19.6016 116.043 19.7146 116.379 19.9109C116.716 20.1072 117.018 20.3828 117.268 20.7221C117.518 21.0614 117.711 21.4576 117.836 21.8882C117.961 22.3188 118.015 22.7754 117.996 23.2318C117.977 23.6882 117.885 24.1355 117.725 24.5482L102.29 63.8082C102.061 64.4032 101.699 64.9067 101.246 65.2608C100.793 65.6149 100.268 65.8052 99.7305 65.8099Z" fill="#0B2C3A" stroke="#0B2C3A" stroke-width="4"/>
</svg>
